<?xml version="1.0" encoding="utf-8"?>
<!-- Generator: Adobe Illustrator 23.0.1, SVG Export Plug-In . SVG Version: 6.00 Build 0)  -->
<svg version="1.1" id="Layer_1" xmlns="http://www.w3.org/2000/svg" xmlns:xlink="http://www.w3.org/1999/xlink" x="0px" y="0px"
	 viewBox="0 0 145 55" style="enable-background:new 0 0 145 55;" xml:space="preserve">
<style type="text/css">
	.st0{fill:#FFFFFF;}
</style>
<g>
	<path d="M10.28895,52.8401h125.33992c3.89609,0,7.05449-3.1584,7.05449-7.05449V9.21439c0-3.89609-3.1584-7.05449-7.05449-7.05449
		H10.28895c-3.89609,0-7.05449,3.1584-7.05449,7.05449v36.57122C3.23447,49.68169,6.39287,52.8401,10.28895,52.8401z"/>
	<g>
		<path class="st0" d="M41.30598,35.3835c0.03762-0.11177,0.07997-0.22221,0.11214-0.33553
			c0.2852-1.00478,1.16161-1.70042,2.20456-1.71222c1.26674-0.01433,2.53375-0.00415,3.80064-0.00535
			c0.70825-0.00067,0.99929-0.28818,0.99951-0.98827c0.00064-2.02519-0.00429-4.05039,0.00224-6.07556
			c0.0041-1.27193,0.8815-2.2438,2.13564-2.38794c1.26944-0.14589,2.48763,0.86446,2.55611,2.14265
			c0.03014,0.56258,0.01293,1.12783,0.01315,1.69187c0.00074,1.87723,0.01317,3.75458-0.00422,5.63165
			c-0.02131,2.30109-1.62326,4.19582-3.88,4.60921c-0.30715,0.05627-0.62485,0.07441-0.93785,0.07603
			c-1.47955,0.00768-2.95916,0.0043-4.43875,0.00326c-1.34362-0.00095-2.18621-0.66294-2.51062-1.96802
			c-0.01093-0.04395-0.03474-0.08469-0.05254-0.12693C41.30598,35.7534,41.30598,35.56845,41.30598,35.3835z"/>
		<path class="st0" d="M69.72203,29.83747c0-2.00652-0.01566-4.0132,0.00481-6.0195
			c0.01723-1.69045,1.75047-2.80032,3.29143-2.11027c0.92179,0.41278,1.39474,1.16195,1.40421,2.17346
			c0.01315,1.40537,0.0036,2.81095,0.00364,4.21644c0.00006,2.18221-0.00008,4.36442,0.00006,6.54663
			c0.00005,0.77806,0.26604,1.04103,1.05265,1.04118c1.20206,0.00023,2.40421-0.00809,3.60617,0.00249
			c1.44133,0.01268,2.47174,1.06081,2.43405,2.4572c-0.03097,1.14767-0.96435,2.15615-2.11137,2.2278
			c-0.7002,0.04374-1.40472,0.02166-2.10731,0.02264c-1.00785,0.0014-2.01653,0.02215-3.0234-0.0103
			c-2.20402-0.07103-4.03347-1.6299-4.46173-3.78642c-0.06787-0.34177-0.08926-0.69749-0.09081-1.04694
			c-0.00848-1.90477-0.00404-3.8096-0.00404-5.71441C69.72094,29.83747,69.72149,29.83747,69.72203,29.83747z"/>
		<path class="st0" d="M67.32681,34.59698c0,1.11893,0.00261,2.23788-0.00052,3.3568
			c-0.00764,2.73361-2.05649,4.79308-4.7861,4.80416c-1.58125,0.00642-3.16271,0.01236-4.74377-0.00672
			c-1.0489-0.01266-1.93793-0.74665-2.1963-1.75869c-0.26169-1.02503,0.18376-2.08713,1.09845-2.6181
			c0.38531-0.22367,0.80215-0.32085,1.24636-0.32003c1.22065,0.00226,2.44131,0.00111,3.66196,0.00046
			c0.7381-0.00039,1.014-0.28012,1.01419-1.02729c0.0005-2.02518-0.01056-4.05044,0.00442-6.07551
			c0.01165-1.57529,1.46729-2.67496,2.97241-2.27081c1.00194,0.26904,1.71207,1.16785,1.72417,2.22607
			c0.01406,1.22974,0.00328,2.45976,0.00328,3.68966C67.32584,34.59698,67.32632,34.59698,67.32681,34.59698z"/>
		<path class="st0" d="M60.22776,27.39215c0.00021,1.96874,0.01252,3.93759-0.0035,5.90621
			c-0.01401,1.72164-1.71309,2.85191-3.26592,2.17631c-0.88272-0.38405-1.35275-1.08615-1.42954-2.04502
			c-0.01692-0.2113-0.00651-0.42488-0.00652-0.63742c-0.00021-3.73415-0.00193-7.4683,0.00098-11.20244
			c0.00098-1.25676,0.78414-2.20846,1.97226-2.41476c1.40193-0.24343,2.7044,0.81927,2.72554,2.25553
			c0.02109,1.43235,0.00589,2.86523,0.00645,4.29788C60.22773,26.283,60.22755,26.83758,60.22776,27.39215z"/>
		<path class="st0" d="M64.97543,21.50942c1.30322-0.00057,2.34705,1.03885,2.34985,2.33989
			c0.0028,1.30857-1.05804,2.36802-2.3637,2.3606c-1.29276-0.00735-2.34191-1.06634-2.33857-2.36053
			C62.62636,22.5516,63.67351,21.50999,64.97543,21.50942z"/>
		<path class="st0" d="M72.05575,42.77045c0.00148,1.29768-1.04259,2.35034-2.3392,2.35845
			c-1.2952,0.0081-2.37389-1.07059-2.36662-2.3666c0.00728-1.29468,1.06071-2.33662,2.36098-2.33521
			C71.01543,40.42851,72.05427,41.46669,72.05575,42.77045z"/>
	</g>
	<g>
		<path class="st0" d="M128.13336,23.58856c-0.14049,0.22512-0.35217,0.48359-0.67036,0.73059
			c-0.84205,0.65374-2.08059,0.98284-3.69135,0.98284c-0.38535,0-0.79192-0.01881-1.21954-0.05656
			c-5.50276-0.48552-10.5642-0.55158-14.63731-0.19111c-3.37684,0.29894-5.87019-0.09437-7.02081-1.10744
			c-0.07539-0.06638-0.14436-0.13544-0.20802-0.20665c-0.00813,0.17048-0.0016,0.34862,0.02112,0.53521
			c0.10352,0.8503,0.21069,1.70202,0.36686,2.54371c0.43078,2.32166,0.97511,4.61709,1.67706,6.87332
			c0.60461,1.9434,1.23078,3.87925,2.24416,5.65929c0.36102,0.63411,0.74348,1.26757,1.3952,1.65164
			c0.47685,0.28102,0.96693,0.54918,1.47592,0.76439c2.07755,0.87844,4.28411,1.06486,6.63428,1.17862
			c0.58366-0.04847,1.29595-0.11187,2.00895-0.16594c1.44977-0.10992,2.85853-0.40702,4.22832-0.89601
			c0.82294-0.29377,1.48116-0.78595,2.00534-1.49219c0.93637-1.26157,1.5888-2.67172,2.1832-4.10847
			c1.25467-3.03268,2.19411-6.16564,2.883-9.37366c0.21688-1.00999,0.42202-2.02506,0.35116-3.06625
			C128.15466,23.75742,128.14545,23.67237,128.13336,23.58856z"/>
		<path class="st0" d="M127.24916,21.96593c-0.88824-0.74008-1.92995-1.196-3.02494-1.48029
			c-1.39589-0.3624-2.82016-0.61597-4.23356-0.90992c-0.24063-0.05004-0.38269-0.14911-0.48869-0.39897
			c-0.58095-1.36944-1.15693-2.74318-1.80663-4.08046c-0.39353-0.81002-0.92557-1.55032-1.67192-2.09896
			c-0.43218-0.31769-0.92256-0.53795-1.45184-0.49152c-0.62839,0.05513-1.17167,0.35287-1.64124,0.79591
			c-0.81229,0.76639-1.41125,1.68581-1.90058,2.67034c-0.52208,1.0504-0.96632,2.13929-1.46043,3.20398
			c-0.06291,0.13559-0.2075,0.3012-0.33846,0.32623c-0.84165,0.1608-1.6964,0.25578-2.53487,0.42997
			c-1.5686,0.32586-3.10753,0.74861-4.50762,1.56981c-0.69901,0.40999-1.18468,0.93222-1.39256,1.59977
			c0.09394,0.1819,0.2273,0.34971,0.40026,0.50199c1.04036,0.91601,3.47472,1.27866,6.67844,0.99521
			c0.38397-0.03398,0.77696-0.06404,1.17787-0.09049c0.17896-2.41464,1.62644-5.0333,1.696-5.15845l0.77266-0.06892
			c-0.01612,0.02907-1.60862,2.93216-1.81004,5.18768c2.86425-0.15648,6.11877-0.12952,9.60924,0.07885
			c-0.14127-2.28734-1.63315-5.21523-1.63315-5.21523l0.76421-0.00112c0.06554,0.12754,1.40484,2.81991,1.52526,5.25734
			c0.85923,0.0564,1.73178,0.12349,2.61574,0.20147c1.42385,0.12575,3.37046,0.08755,4.55787-0.8071
			c0.62814-0.47334,0.77099-0.97878,0.79484-1.08433C127.79676,22.54792,127.57026,22.23348,127.24916,21.96593z
			 M111.61314,19.24854c0-0.01469-0.01373-0.06114,0.00199-0.09308c0.49945-1.01541,1.03134-2.0072,1.85598-2.81096
			c0.89417-0.87152,1.65901-0.74337,2.42723,0.05776c0.72743,0.75859,1.19949,1.69862,1.63276,2.65074
			c0.02923,0.06423,0.02903,0.14185,0.03918,0.19554C115.5786,19.24854,113.60332,19.24854,111.61314,19.24854z M118.71529,19.46731
			c-0.1033-0.1128-0.2422-0.20888-0.30425-0.34106c-0.467-0.99462-0.9315-1.9913-1.62582-2.85328
			c-0.23682-0.29401-0.50095-0.58136-0.80192-0.80555c-0.98664-0.73496-2.08918-0.61144-3.03148,0.29334
			c-0.65908,0.63284-1.14137,1.39214-1.57793,2.18322c-0.21474,0.38912-0.40742,0.79088-0.59789,1.19271
			c-0.09984,0.21062-0.22904,0.30709-0.50682,0.18314c0.18629-0.44892,0.36502-0.89785,0.55783-1.34067
			c0.49992-1.14812,1.07154-2.25796,1.8025-3.2789c0.3689-0.51525,0.78043-0.98909,1.35197-1.29504
			c0.59973-0.32103,1.14996-0.21814,1.66741,0.18773c0.61942,0.48586,1.08325,1.11167,1.41853,1.80338
			c0.61495,1.26873,1.16093,2.57091,1.73374,3.85999c0.01611,0.03625,0.01044,0.08217,0.01492,0.12358
			C118.78248,19.40904,118.74889,19.43817,118.71529,19.46731z"/>
	</g>
	<g>
		<path class="st0" d="M50.85889,16.55518v-0.66797h0.48828c0.24219,0,0.45215-0.02881,0.62988-0.08643
			s0.3252-0.14648,0.44238-0.2666c0.11621-0.12012,0.20215-0.27344,0.25781-0.45947
			c0.05469-0.18604,0.08301-0.40771,0.08301-0.66406v-2.20459h0.66699v2.20459c0,0.33643-0.04395,0.6377-0.13184,0.90234
			c-0.08887,0.26514-0.21973,0.48926-0.39453,0.67334c-0.17383,0.18359-0.3916,0.32422-0.65137,0.42188
			c-0.26074,0.09766-0.56152,0.14697-0.90234,0.14697H50.85889z M52.47412,10.67627l0.60059-0.60742l0.61426,0.61475
			l-0.60742,0.60742L52.47412,10.67627z"/>
		<path class="st0" d="M55.36377,14.59082H54.6958V9.55273h0.66797V14.59082z"/>
		<path class="st0" d="M66.50244,13.93018v0.66406h-0.16309c-0.18555,0-0.36621-0.03516-0.54004-0.10596
			c-0.1748-0.0708-0.3252-0.17529-0.45215-0.31445c-0.1084,0.1084-0.24512,0.19189-0.41016,0.25098
			c-0.12207,0.04443-0.26465,0.07861-0.42773,0.10254c-0.16211,0.02344-0.34863,0.04053-0.55957,0.05078
			c-0.21094,0.01074-0.44922,0.01709-0.71582,0.01953c-0.26562,0.00244-0.56348,0.00342-0.89355,0.00342
			c-0.24023,0-0.46875-0.00049-0.68555-0.00146c-0.2168-0.00146-0.41992-0.00635-0.61035-0.01611
			c-0.19141-0.00928-0.36914-0.02393-0.53418-0.04395s-0.31738-0.04883-0.45898-0.08643
			c-0.33691-0.09229-0.58984-0.23682-0.75977-0.43457c-0.19336-0.2168-0.28906-0.50391-0.28906-0.8623
			c0-0.12012,0.00879-0.24072,0.02637-0.36182c0.01758-0.12158,0.03711-0.23193,0.05762-0.33203
			c0.02148-0.1001,0.04102-0.18262,0.05859-0.24756s0.02734-0.09961,0.03027-0.104l0.63574,0.19434
			c-0.03027,0.10791-0.05469,0.20361-0.07227,0.28613s-0.03418,0.17334-0.0498,0.27344s-0.02246,0.19727-0.02246,0.2915
			s0.00977,0.17627,0.0293,0.24561c0.02051,0.06934,0.05176,0.12939,0.0957,0.18018s0.10059,0.09424,0.17188,0.13086
			c0.07031,0.03662,0.15723,0.06885,0.26074,0.09717c0.24023,0.06348,0.53809,0.10059,0.89355,0.11133
			c0.35645,0.01025,0.76367,0.01562,1.22266,0.01562c0.38184,0,0.71289-0.00098,0.99512-0.00342
			c0.28125-0.00244,0.52051-0.01123,0.71875-0.02637c0.19727-0.01562,0.35938-0.03857,0.48535-0.06885
			c0.12598-0.03076,0.22461-0.07422,0.29492-0.13086c0.07129-0.05664,0.11914-0.12842,0.14551-0.21533
			c0.02539-0.0874,0.03809-0.19336,0.03809-0.31836v-0.96777h0.66797v1.09863c0,0.1084,0.01953,0.20215,0.05859,0.28076
			c0.03906,0.0791,0.08887,0.14404,0.14941,0.19434c0.06152,0.05078,0.13184,0.08838,0.21094,0.11328
			c0.0791,0.02441,0.15723,0.03711,0.23438,0.03711H66.50244z M61.62354,11.88086l-0.55859-0.56494l0.55176-0.57227l0.57227,0.57227
			L61.62354,11.88086z M62.97607,11.88818l-0.55762-0.56543l0.55078-0.57227l0.57227,0.57227L62.97607,11.88818z"/>
		<path class="st0" d="M66.41748,14.59424v-0.66748h1.35645c0.26367,0,0.47656-0.01904,0.6377-0.05664
			s0.28613-0.08496,0.37598-0.1416c0.08984-0.05615,0.15039-0.11816,0.18164-0.18506
			c0.03223-0.06738,0.05176-0.13135,0.05859-0.19287h-0.53711c-0.06152,0-0.12988-0.00244-0.20508-0.00684
			c-0.0752-0.00488-0.15332-0.01367-0.23438-0.02686c-0.08105-0.0127-0.16309-0.03223-0.24609-0.05811
			c-0.08203-0.02588-0.16211-0.06006-0.24023-0.10254c-0.06348-0.0376-0.12793-0.08447-0.19434-0.14111
			c-0.06543-0.05664-0.125-0.12646-0.17773-0.21045c-0.05371-0.0835-0.09668-0.18213-0.13086-0.29639
			s-0.05176-0.24805-0.05176-0.40137c0-0.19043,0.0332-0.37109,0.09961-0.54199c0.06543-0.1709,0.16016-0.31738,0.28223-0.43994
			s0.2627-0.21533,0.4209-0.2793c0.15723-0.06348,0.32617-0.09521,0.50488-0.09521c0.20508,0,0.39355,0.04346,0.56543,0.13086
			c0.17188,0.08691,0.31641,0.21191,0.43457,0.37451c0.12695,0.16943,0.2207,0.37891,0.28223,0.62891
			c0.06152,0.24951,0.0918,0.53564,0.0918,0.8584v0.4873c0,0.2334-0.04688,0.44043-0.13965,0.62207
			c-0.09277,0.18115-0.2334,0.32812-0.42188,0.44141c-0.31348,0.2002-0.76562,0.30029-1.35645,0.30029H66.41748z M67.63623,9.3374
			l0.60059-0.60742l0.61426,0.61426l-0.60742,0.60791L67.63623,9.3374z M68.31787,11.41846
			c-0.07812,0-0.15723,0.01318-0.23828,0.04053c-0.08203,0.02686-0.1543,0.06836-0.21973,0.12354
			c-0.06445,0.05518-0.11719,0.12646-0.1582,0.21387c-0.04199,0.08691-0.0625,0.19043-0.0625,0.31055
			c0,0.07812,0.00879,0.14307,0.02539,0.19629c0.01562,0.05273,0.03711,0.09668,0.06348,0.13086
			c0.02539,0.03418,0.05273,0.06152,0.08105,0.08301c0.02832,0.021,0.05566,0.03857,0.08105,0.05273
			c0.06836,0.04004,0.15234,0.06885,0.25098,0.08643c0.09863,0.01807,0.21582,0.02686,0.34961,0.02686h0.54395
			c-0.00488-0.2334-0.02832-0.43701-0.07227-0.61133s-0.10254-0.31689-0.17871-0.42725
			C68.67139,11.49365,68.51514,11.41846,68.31787,11.41846z"/>
		<path class="st0" d="M72.37744,14.59424c-0.22363-0.00244-0.41699-0.01953-0.57812-0.05127s-0.29785-0.07764-0.40918-0.1377
			c-0.1123-0.06006-0.20215-0.13525-0.26855-0.22607c-0.06738-0.09082-0.12012-0.19678-0.15723-0.31787
			c-0.03809-0.12158-0.0625-0.25732-0.07422-0.4082s-0.01758-0.31787-0.01758-0.50146V9.55273h0.66699v3.39893
			c0,0.20459,0.00684,0.37061,0.01953,0.49805c0.0127,0.12695,0.04688,0.22559,0.10254,0.29492s0.13867,0.1167,0.25098,0.14111
			c0.11133,0.0249,0.2666,0.03857,0.46484,0.04102V14.59424z"/>
		<path class="st0" d="M74.73438,11.71875c0.00488,0.01367,0.01367,0.05176,0.02832,0.11279
			c0.01367,0.06152,0.03027,0.13721,0.04785,0.22803c0.01758,0.09033,0.03711,0.19043,0.05762,0.30029
			c0.02148,0.10938,0.04004,0.22021,0.05664,0.33203s0.03125,0.21973,0.04297,0.32324s0.01758,0.19434,0.01758,0.27197
			c0,0.22607-0.03711,0.4209-0.11133,0.58447c-0.07422,0.16406-0.1709,0.29932-0.29004,0.40625
			c-0.11914,0.10742-0.25293,0.18701-0.40039,0.23877c-0.14844,0.05176-0.29883,0.07764-0.44922,0.07764H72.271v-0.66748h1.46338
			c0.03516,0,0.08496-0.00537,0.15039-0.01611c0.06445-0.01074,0.12891-0.03711,0.19434-0.07959
			c0.06445-0.04248,0.12109-0.10596,0.16895-0.19092c0.04883-0.08447,0.07324-0.20215,0.07324-0.35303
			c0-0.05176-0.00488-0.11719-0.0127-0.19629c-0.00879-0.07861-0.01855-0.16357-0.03223-0.25439
			c-0.0127-0.09033-0.02734-0.18359-0.04395-0.27881s-0.0332-0.18555-0.04883-0.27051
			c-0.0166-0.08447-0.03223-0.16016-0.0459-0.22607c-0.01465-0.06592-0.02637-0.11523-0.03613-0.14844L74.73438,11.71875z
			 M73.64258,15.94727l-0.57227,0.57227l-0.55127-0.57227l0.55811-0.56543L73.64258,15.94727z M74.99609,15.94043l-0.57227,0.57227
			l-0.55176-0.57227l0.55859-0.56543L74.99609,15.94043z"/>
		<path class="st0" d="M75.46875,16.55518v-0.66797h0.48828c0.24219,0,0.45215-0.02881,0.62988-0.08643
			s0.3252-0.14648,0.44238-0.2666c0.11621-0.12012,0.20215-0.27344,0.25781-0.45947
			c0.05469-0.18604,0.08301-0.40771,0.08301-0.66406v-2.20459h0.66699v2.20459c0,0.33643-0.04395,0.6377-0.13184,0.90234
			c-0.08887,0.26514-0.21973,0.48926-0.39453,0.67334c-0.17383,0.18359-0.3916,0.32422-0.65137,0.42188
			c-0.26074,0.09766-0.56152,0.14697-0.90234,0.14697H75.46875z"/>
		<path class="st0" d="M80.30176,14.64746c-0.12012,0-0.24121-0.00537-0.36328-0.01611
			c-0.12305-0.01074-0.24219-0.02734-0.3584-0.04932c-0.11719-0.02246-0.22852-0.05176-0.33594-0.08838
			s-0.2041-0.08057-0.29199-0.13281l-0.29297-0.16602l0.33203-0.58252l0.29297,0.16602
			c0.08301,0.04688,0.18457,0.08545,0.30469,0.11475s0.24707,0.05078,0.38086,0.06348
			c0.13477,0.01318,0.26953,0.01807,0.40625,0.01611c0.13672-0.00244,0.2627-0.01172,0.37793-0.02832
			c0.13672-0.02148,0.24902-0.05127,0.33789-0.09033c0.08789-0.03857,0.14453-0.08301,0.16797-0.13232
			c0.02344-0.05176,0.01953-0.12354-0.01074-0.21533c-0.03027-0.09229-0.08398-0.19434-0.15918-0.30762l-1.27832-1.93262
			l0.56445-0.36719c0.03125,0.04688,0.0625,0.09619,0.0957,0.14648c0.0332,0.05078,0.07227,0.10938,0.11621,0.17676
			c0.04492,0.06689,0.09668,0.146,0.15625,0.23682c0.05859,0.09033,0.12988,0.19971,0.21484,0.32666
			s0.18359,0.27539,0.29688,0.44531c0.11328,0.16943,0.24512,0.36719,0.39551,0.59326
			c0.05957,0.08984,0.1123,0.18311,0.15918,0.28076c0.04688,0.09814,0.08203,0.19629,0.10645,0.29492
			c0.02344,0.09912,0.0332,0.19873,0.0293,0.29883c-0.00293,0.1001-0.02734,0.19824-0.07227,0.29492
			c-0.14844,0.33203-0.48926,0.53711-1.02441,0.61475c-0.08203,0.01172-0.16992,0.021-0.26172,0.02832
			C80.49609,14.64355,80.40137,14.64746,80.30176,14.64746z"/>
	</g>
</g>
</svg>
