<svg width="220" height="65" viewBox="0 0 220 65" fill="none" xmlns="http://www.w3.org/2000/svg">
<mask id="mask0_1811_8437" style="mask-type:luminance" maskUnits="userSpaceOnUse" x="28" y="16" width="32" height="33">
<path d="M43.9209 24.7546C42.4793 24.7546 41.1691 24.7808 39.9783 24.8276C39.9778 24.8276 39.9778 24.8276 39.9778 24.8276C40.0425 24.6782 40.1079 24.5288 40.1738 24.3749C40.3254 24.026 40.4694 23.6713 40.6089 23.3304C40.9314 22.5379 41.2423 21.775 41.6311 21.0954C41.8124 20.7773 42.0105 20.4785 42.2357 20.2025C42.5263 19.8445 43.1333 19.2447 43.9209 19.2447C44.7084 19.2447 45.3149 19.8445 45.6065 20.2025C45.8312 20.4785 46.0294 20.7784 46.211 21.0965C46.5999 21.7762 46.9103 22.5379 47.2328 23.3304C47.3719 23.6713 47.5162 24.026 47.6684 24.3749C47.7347 24.5288 47.7997 24.6782 47.8644 24.8276C46.6735 24.7808 45.3628 24.7546 43.9209 24.7546ZM59.1839 26.9725C59.183 26.9714 59.1811 26.9702 59.1802 26.9702C58.7044 26.6316 57.7799 26.1686 56.006 25.7535C55.4745 25.6281 54.8668 25.5084 54.172 25.3977C53.2974 25.2575 52.2846 25.1309 51.1121 25.0283C51.0583 25.0237 51.0035 25.0192 50.9493 25.0146C50.7116 24.457 50.4663 23.8869 50.2052 23.2882C50.0661 22.9678 49.9347 22.6439 49.7948 22.3007C49.7782 22.2597 49.7611 22.2186 49.7441 22.1775C49.2315 20.9187 48.6905 19.6244 47.7553 18.4761C46.7169 17.2024 45.3557 16.5 43.9209 16.5C42.4869 16.5 41.1247 17.2024 40.0873 18.4761C39.1529 19.6233 38.6112 20.9164 38.0985 22.1741C38.0811 22.2175 38.0635 22.2597 38.047 22.3007C37.9074 22.6439 37.7755 22.9678 37.6365 23.2882C37.3759 23.8869 37.1305 24.457 36.8933 25.0146C36.8381 25.0192 36.7839 25.0237 36.73 25.0283C35.5553 25.1321 34.5407 25.2575 33.6648 25.3977C32.9722 25.5084 32.3667 25.6281 31.8371 25.7535C30.0626 26.1686 29.1378 26.6316 28.6623 26.9702C28.6596 26.9714 28.6574 26.9736 28.6547 26.9748C28.4838 27.0979 28.3964 27.3043 28.4242 27.5119L28.578 28.649C28.8117 30.3505 29.0606 32.3482 29.471 34.4066C29.7809 35.9625 30.1837 37.5527 30.7399 39.076C30.9583 39.6739 31.2006 40.2632 31.4715 40.8355C33.288 44.4657 36.6672 47.1882 40.735 48.1361C41.7571 48.3743 42.8233 48.5 43.9186 48.5C45.0098 48.5 46.071 48.3743 47.0888 48.1383C51.2336 47.1784 54.6649 44.3744 56.4595 40.6448C56.6694 40.1882 56.8614 39.7219 57.039 39.2475C58.3011 35.8721 58.7891 32.15 59.1901 29.1929L59.414 27.5073C59.4418 27.3009 59.3538 27.0945 59.1839 26.9725Z" fill="white"/>
</mask>
<g mask="url(#mask0_1811_8437)">
<mask id="mask1_1811_8437" style="mask-type:luminance" maskUnits="userSpaceOnUse" x="22" y="10" width="44" height="45">
<path d="M22.6777 54.2015H65.1605V10.7984H22.6777V54.2015Z" fill="white"/>
</mask>
<g mask="url(#mask1_1811_8437)">
<mask id="mask2_1811_8437" style="mask-type:luminance" maskUnits="userSpaceOnUse" x="28" y="16" width="32" height="33">
<path d="M43.1835 48.5949V48.4809H42.0352V48.3668H41.2315V48.2528H40.6573V48.1388H40.198V48.0248H39.8536V47.9107H39.5091V47.7967H39.1646V47.6827H38.8202V47.5686H38.5905V47.4546H38.3609V47.3406H38.0164V47.2266H37.7867V47.1125H37.5571V46.9985H37.3275V46.8845H37.2126V46.7704H36.983V46.6564H36.7533V46.5424H36.5237V46.4283H36.4089V46.3143H36.1792V46.2003H36.0644V46.0863H35.8347V45.9722H35.7199V45.8582H35.6051V45.7442H35.3755V45.6301H35.2606V45.5161H35.1458V45.4021H34.9162V45.288H34.8013V45.174H34.6865V45.06H34.5717V44.946H34.4569V44.8319H34.342V44.7179H34.2272V44.6039H34.1124V44.4898H33.9976V44.3758H33.8827V44.2618H33.7679V44.1477H33.6531V44.0337H33.5383V43.9197H33.4235V43.8057H33.3086V43.6916H33.1938V43.4636H33.079V43.3495H32.9642V43.2355H32.8493V43.1215H32.7345V42.8934H32.6197V42.7794H32.5049V42.5513H32.39V42.4373H32.2752V42.3233H32.1604V42.0952H32.0456V41.8671H31.9307V41.7531H31.8159V41.5251H31.7011V41.297H31.5863V41.0689H31.4715V40.8409H31.3566V40.6128H31.2418V40.3848H31.127V40.0427H31.0122V39.8146H30.8973V39.5865H30.7825V39.2445H30.6677V38.9024H30.5529V38.5603H30.438V38.2182H30.3232V37.8761H30.2084V37.42H30.0936V37.0779H29.9787V36.6218H29.8639V36.1656H29.7491V35.7095H29.6343V35.2534H29.5195V34.6833H29.4046V34.1131H29.2898V33.4289H29.175V32.7447H29.0602V32.0606H28.9453V31.3764H28.8305V30.5782H28.7157V29.6659H28.6009V28.8677H28.486V28.0695H28.3712V27.1573H28.486V26.9292H28.7157V26.8152H28.8305V26.7012H29.0602V26.5871H29.2898V26.4731H29.5195V26.3591H29.7491V26.245H30.0936V26.131H30.438V26.017H30.7825V25.9029H31.2418V25.7889H31.5863V25.6749H32.1604V25.5609H32.7345V25.4468H33.3086V25.3328H33.9976V25.2188H34.9162V25.1047H35.9496V24.9907H36.8682V24.7626H36.983V24.5346H37.0978V24.1925H37.2126V23.9644H37.3275V23.7364H37.4423V23.3943H37.5571V23.1662H37.6719V22.8241H37.7867V22.5961H37.9016V22.368H38.0164V22.0259H38.1312V21.7979H38.246V21.4558H38.3609V21.2277H38.4757V20.9997H38.5905V20.7716H38.7053V20.4295H38.8202V20.2015H38.935V20.0874H39.0498V19.8594H39.1646V19.6313H39.2795V19.5173H39.3943V19.2892H39.5091V19.0611H39.6239V18.9471H39.7387V18.7191H39.8536V18.605H39.9684V18.377H40.0832V18.2629H40.198V18.1489H40.3129V18.0349H40.4277V17.9209H40.5425V17.8068H40.6573V17.6928H40.7722V17.5788H40.887V17.4647H41.1166V17.3507H41.2315V17.2367H41.4611V17.1226H41.5759V17.0086H41.8056V16.8946H42.15V16.7806H42.3797V16.6665H42.7242V16.5525H43.2983V16.4385H44.5613V16.5525H45.1355V16.6665H45.4799V16.7806H45.7096V16.8946H46.054V17.0086H46.1689V17.1226H46.3985V17.2367H46.5133V17.3507H46.743V17.4647H46.8578V17.5788H47.0875V17.6928H47.2023V17.8068H47.3171V17.9209H47.4319V18.0349H47.5467V18.1489H47.6616V18.2629H47.7764V18.491H47.8912V18.605H48.006V18.7191H48.1209V18.9471H48.2357V19.0611H48.3505V19.2892H48.4653V19.5173H48.5802V19.6313H48.695V19.8594H48.8098V20.0874H48.9246V20.3155H49.0395V20.5435H49.1543V20.7716H49.2691V20.9997H49.3839V21.3417H49.4987V21.5698H49.6136V21.7979H49.7284V22.0259H49.8432V22.368H49.958V22.5961H50.0729V22.9382H50.1877V23.1662H50.3025V23.5083H50.4173V23.7364H50.5322V23.9644H50.647V24.3065H50.7618V24.5346H50.8766V24.7626H50.9915V24.9907H51.91V25.1047H52.9435V25.2188H53.7472V25.3328H54.551V25.4468H55.1251V25.5609H55.6992V25.6749H56.1585V25.7889H56.6178V25.9029H57.0771V26.017H57.4216V26.131H57.766V26.245H57.9957V26.3591H58.3402V26.4731H58.5698V26.5871H58.7994V26.7012H59.0291V26.8152H59.1439V26.9292H59.2587V27.0432H59.3736V27.1573H59.4884V27.8415H59.3736V28.7537H59.2587V29.5519H59.1439V30.4641H59.0291V31.2624H58.9143V31.9465H58.7994V32.6307H58.6846V33.3149H58.5698V33.9991H58.455V34.5692H58.3402V35.0253H58.2253V35.5955H58.1105V36.0516H57.9957V36.6218H57.8809V36.9639H57.766V37.42H57.6512V37.7621H57.5364V38.2182H57.4216V38.5603H57.3067V38.9024H57.1919V39.2445H57.0771V39.4725H56.9623V39.8146H56.8475V40.0427H56.7326V40.3848H56.6178V40.6128H56.503V40.8409H56.3882V41.0689H56.2733V41.297H56.1585V41.5251H56.0437V41.6391H55.9289V41.8671H55.814V42.0952H55.6992V42.2092H55.5844V42.4373H55.4696V42.5513H55.3547V42.6654H55.2399V42.8934H55.1251V43.0074H55.0103V43.2355H54.8955V43.3495H54.7806V43.4636H54.6658V43.5776H54.551V43.6916H54.4362V43.9197H54.3213V44.0337H54.2065V44.1477H54.0917V44.2618H53.9769V44.3758H53.862V44.4898H53.7472V44.6039H53.6324V44.7179H53.5176V44.8319H53.4027V44.946H53.2879V45.06H53.1731V45.174H52.9435V45.288H52.8286V45.4021H52.7138V45.5161H52.599V45.6301H52.4842V45.7442H52.2545V45.8582H52.1397V45.9722H51.91V46.0863H51.7952V46.2003H51.6804V46.3143H51.4507V46.4283H51.3359V46.5424H51.1063V46.6564H50.8766V46.7704H50.647V46.8845H50.4173V46.9985H50.3025V47.1125H50.0729V47.2266H49.7284V47.3406H49.4987V47.4546H49.2691V47.5686H48.9246V47.6827H48.695V47.7967H48.3505V47.9107H48.006V48.0248H47.6616V48.1388H47.0875V48.2528H46.5133V48.3668H45.8244V48.4809H44.6762V48.5949H43.1835ZM40.0832 24.6486V24.7626H42.7242V24.6486H45.1355V24.7626H47.7764V24.6486H47.6616V24.4206H47.5467V24.1925H47.4319V23.8504H47.3171V23.6223H47.2023V23.2803H47.0875V23.0522H46.9726V22.7101H46.8578V22.482H46.743V22.254H46.6282V22.0259H46.5133V21.7979H46.3985V21.4558H46.2837V21.2277H46.1689V21.1137H46.054V20.8856H45.9392V20.7716H45.8244V20.5435H45.7096V20.4295H45.5947V20.2015H45.4799V20.0874H45.3651V19.9734H45.2503V19.8594H45.1355V19.7453H44.9058V19.6313H44.791V19.5173H44.5613V19.4032H44.2169V19.2892H43.6427V19.4032H43.2983V19.5173H43.0686V19.6313H42.9538V19.7453H42.7242V19.8594H42.6093V19.9734H42.4945V20.0874H42.3797V20.2015H42.2649V20.3155H42.15V20.5435H42.0352V20.6576H41.9204V20.8856H41.8056V20.9997H41.6907V21.2277H41.5759V21.4558H41.4611V21.6838H41.3463V21.9119H41.2315V22.14H41.1166V22.482H41.0018V22.7101H40.887V22.9382H40.7722V23.2803H40.6573V23.5083H40.5425V23.8504H40.4277V24.0785H40.3129V24.4206H40.198V24.6486" fill="white"/>
</mask>
<g mask="url(#mask2_1811_8437)">
<path d="M32.5003 46.3127L31.0724 46.5889L31.7456 47.8696L32.5003 46.3127Z" fill="#2EA641"/>
<path d="M44.6713 43.6442L46.3746 44.2328L45.9415 42.7437L44.6713 43.6442Z" fill="#2CA345"/>
<path d="M44.3773 29.6863L44.1071 28.18L42.9587 29.1602L44.3773 29.6863Z" fill="#61C332"/>
<path d="M41.9033 27.5633L44.1073 28.1799L42.6653 26.499L41.9033 27.5633Z" fill="#6AC62F"/>
<path d="M31.7452 47.8697L31.0721 46.589L29.8654 48.3302L31.7452 47.8697Z" fill="#2EA541"/>
<path d="M31.7453 47.8697L31.4399 49.7685L33.57 48.5128L31.7453 47.8697Z" fill="#2EA541"/>
<path d="M42.0105 42.2836L44.1988 41.653L43.1301 40.3128L42.0105 42.2836Z" fill="#2EA841"/>
<path d="M42.1427 16.986L43.825 16.0831L42.3538 14.9539L42.1427 16.986Z" fill="#8DD024"/>
<path d="M53.8496 20.9206L53.4948 22.483L55.0255 22.0049L53.8496 20.9206Z" fill="#78CA2A"/>
<path d="M48.2035 16.8597L48.139 15.2698L46.0141 16.0941L48.2035 16.8597Z" fill="#8BCF24"/>
<path d="M28.5003 24.1804L30.6571 23.5602L29.1717 22.4743L28.5003 24.1804Z" fill="#65C430"/>
<path d="M35.4647 17.8978L35.5653 19.9066L36.8695 18.6708L35.4647 17.8978Z" fill="#84CD27"/>
<path d="M35.4648 17.898L33.8593 17.8597L34.2647 19.2511L35.4648 17.898Z" fill="#84CD27"/>
<path d="M48.036 20.1645L49.1057 18.5811L47.6666 18.4684L48.036 20.1645Z" fill="#83CD27"/>
<path d="M38.0013 48.7231L39.9176 48.3283L38.8428 46.7041L38.0013 48.7231Z" fill="#2C9F4E"/>
<path d="M43.1947 45.7099L44.7554 45.143L43.6291 44.4873L43.1947 45.7099Z" fill="#2CA04C"/>
<path d="M43.825 16.0831L42.1427 16.986L43.9701 17.9241L43.825 16.0831Z" fill="#8FD123"/>
<path d="M54.9065 49.9133L55.9162 47.9256L54.1295 48.84L54.9065 49.9133Z" fill="#2DA04A"/>
<path d="M54.4077 47.1975L54.1295 48.8401L55.9162 47.9257L54.4077 47.1975Z" fill="#2DA347"/>
<path d="M56.0011 45.352L57.4261 46.6006L57.5361 45.0505L56.0011 45.352Z" fill="#2EA741"/>
<path d="M50.41 29.4824L51.9156 30.6921L51.7769 28.9986L50.41 29.4824Z" fill="#5EC233"/>
<path d="M52.3948 23.463L51.0969 22.7613L51.2022 24.7437L52.3948 23.463Z" fill="#73C82C"/>
<path d="M51.7768 28.9986L51.9155 30.6921L53.7942 29.688L51.7768 28.9986Z" fill="#5EC233"/>
<path d="M57.4262 46.6006L57.8587 48.4382L59.3161 46.7978L57.4262 46.6006Z" fill="#2EA641"/>
<path d="M48.0361 20.1646L49.6143 20.4198L49.1058 18.5812L48.0361 20.1646Z" fill="#83CD27"/>
<path d="M48.139 15.2698L48.2035 16.8597L49.7542 16.7919L48.139 15.2698Z" fill="#8ED023"/>
<path d="M58.1985 25.0781L57.0986 24.3583L56.7955 26.0668L58.1985 25.0781Z" fill="#64C431"/>
<path d="M35.6023 25.2609L34.163 24.2119L34.2491 25.7644L35.6023 25.2609Z" fill="#6DC62E"/>
<path d="M60.182 25.0624L61.2826 23.1042L59.1157 24.1392L60.182 25.0624Z" fill="#62C331"/>
<path d="M46.8559 21.2362L48.036 20.1646L46.6103 19.4456L46.8559 21.2362Z" fill="#81CC28"/>
<path d="M48.139 15.2697L49.7542 16.7919L49.7412 15.2504L48.139 15.2697Z" fill="#8ED023"/>
<path d="M43.8517 32.4194L43.2584 30.5126L42.6562 31.7615L43.8517 32.4194Z" fill="#54BF36"/>
<path d="M29.4607 39.0679L31.2722 38.1513L30.2566 37.2333L29.4607 39.0679Z" fill="#3DB53D"/>
<path d="M36.9363 47.1031L35.8962 45.4423L34.985 47.1762L36.9363 47.1031Z" fill="#2DA149"/>
<path d="M37.3169 29.8847L35.7303 29.84L36.2121 31.6438L37.3169 29.8847Z" fill="#5CC133"/>
<path d="M41.0637 14.8562L42.1426 16.986L42.3538 14.9539L41.0637 14.8562Z" fill="#90D123"/>
<path d="M50.9596 19.4829L53.1921 18.2543L50.8801 17.853L50.9596 19.4829Z" fill="#82CD27"/>
<path d="M49.7542 16.7919L51.2778 16.0604L49.7411 15.2504L49.7542 16.7919Z" fill="#8ACF25"/>
<path d="M46.6102 19.4455L45.2578 18.74L45.2449 20.3958L46.6102 19.4455Z" fill="#87CE26"/>
<path d="M39.0668 18.7193L36.8693 18.6708L38.2399 19.8336L39.0668 18.7193Z" fill="#87CE26"/>
<path d="M40.2732 20.3805L38.9395 21.2697L40.0841 22.4041L40.2732 20.3805Z" fill="#83CD27"/>
<path d="M46.4166 17.7515L46.014 16.094L44.9153 16.9244L46.4166 17.7515Z" fill="#8BCF24"/>
<path d="M53.0148 15.9667L52.21 17.1788L53.192 18.2543L53.0148 15.9667Z" fill="#88CF25"/>
<path d="M45.2579 18.7402L44.9153 16.9245L43.9702 17.9241L45.2579 18.7402Z" fill="#89CF25"/>
<path d="M33.6031 47.1404L34.0892 45.6089L32.5002 46.3128L33.6031 47.1404Z" fill="#2EA443"/>
<path d="M47.4269 45.6873L47.9918 47.0657L49.4822 45.0191L47.4269 45.6873Z" fill="#2CA04B"/>
<path d="M42.1428 16.986L41.0638 14.8562L40.3739 15.9431L42.1428 16.986Z" fill="#8DD024"/>
<path d="M41.9477 21.6493L42.3635 20.1252L40.2729 20.3807L41.9477 21.6493Z" fill="#80CC28"/>
<path d="M36.9712 17.3453L38.1563 15.309L36.5778 16.0747L36.9712 17.3453Z" fill="#87CE26"/>
<path d="M44.9153 16.9245L43.8251 16.0831L43.9701 17.9241L44.9153 16.9245Z" fill="#8DD024"/>
<path d="M46.4166 17.7516L44.9153 16.9245L45.2579 18.7402L46.4166 17.7516Z" fill="#8BCF24"/>
<path d="M46.014 16.094L43.8251 16.0829L44.9153 16.9243L46.014 16.094Z" fill="#8FD123"/>
<path d="M45.2578 18.7403L46.6103 19.4457L46.4165 17.7516L45.2578 18.7403Z" fill="#89CF25"/>
<path d="M46.8559 21.2362L46.6102 19.4456L45.2449 20.3959L46.8559 21.2362Z" fill="#81CC28"/>
<path d="M47.6665 18.4686L46.4164 17.7516L46.6102 19.4457L47.6665 18.4686Z" fill="#88CF25"/>
<path d="M48.2035 16.8597L46.0141 16.094L46.4167 17.7515L48.2035 16.8597Z" fill="#8BCF24"/>
<path d="M42.4922 18.5389L43.9701 17.924L42.1427 16.9859L42.4922 18.5389Z" fill="#8ACF25"/>
<path d="M43.9701 17.9241L43.852 19.5178L45.2578 18.7402L43.9701 17.9241Z" fill="#8BCF24"/>
<path d="M43.5346 20.8525L43.092 22.7456L44.4698 21.8617L43.5346 20.8525Z" fill="#83CD27"/>
<path d="M40.0841 22.4041L41.9479 21.6491L40.2732 20.3805L40.0841 22.4041Z" fill="#7DCB29"/>
<path d="M46.8559 21.2363L46.0264 22.917L47.9003 22.7161L46.8559 21.2363Z" fill="#81CC28"/>
<path d="M58.4404 21.7997L59.1158 24.1392L59.6615 22.5113L58.4404 21.7997Z" fill="#6AC62F"/>
<path d="M43.9701 17.9241L42.4922 18.539L43.852 19.5178L43.9701 17.9241Z" fill="#8BCF24"/>
<path d="M44.4698 21.8619L46.0265 22.917L46.8561 21.2363L44.4698 21.8619Z" fill="#80CC28"/>
<path d="M44.647 23.2642L43.092 22.7458L43.8448 24.4315L44.647 23.2642Z" fill="#7BCB29"/>
<path d="M52.2014 21.8217L51.0358 20.8475L51.0968 22.7614L52.2014 21.8217Z" fill="#79CA2A"/>
<path d="M44.4698 21.8618L46.8561 21.2362L45.2451 20.3959L44.4698 21.8618Z" fill="#80CC28"/>
<path d="M48.6311 21.475L48.036 20.1645L46.856 21.2361L48.6311 21.475Z" fill="#7FCC28"/>
<path d="M44.647 23.264L46.0265 22.9169L44.4698 21.8617L44.647 23.264Z" fill="#7BCB29"/>
<path d="M47.056 23.668L45.5148 24.7079L47.1931 24.9293L47.056 23.668Z" fill="#79CA2A"/>
<path d="M49.614 20.4198L48.631 21.4751L50.0382 21.7887L49.614 20.4198Z" fill="#81CC28"/>
<path d="M49.1058 18.5812L50.9597 19.4829L50.8802 17.853L49.1058 18.5812Z" fill="#87CE26"/>
<path d="M44.3775 29.6863L45.6473 28.1366L44.1072 28.18L44.3775 29.6863Z" fill="#61C332"/>
<path d="M47.444 27.2378L46.1682 26.2068L45.6473 28.1366L47.444 27.2378Z" fill="#6BC62E"/>
<path d="M48.6311 21.4751L46.856 21.2362L47.9003 22.7161L48.6311 21.4751Z" fill="#7FCC28"/>
<path d="M50.9597 19.4829L49.1058 18.5812L49.6143 20.4198L50.9597 19.4829Z" fill="#82CD27"/>
<path d="M47.0558 23.6679L49.4742 24.4302L47.9002 22.716L47.0558 23.6679Z" fill="#79CA2A"/>
<path d="M49.6143 20.4197L48.0361 20.1645L48.6313 21.475L49.6143 20.4197Z" fill="#81CC28"/>
<path d="M49.7543 16.7919L49.1058 18.5812L50.8802 17.8529L49.7543 16.7919Z" fill="#8ACF25"/>
<path d="M48.2033 16.8597L46.4164 17.7515L47.6665 18.4685L48.2033 16.8597Z" fill="#8BCF24"/>
<path d="M47.0559 23.668L47.9003 22.716L46.0264 22.9169L47.0559 23.668Z" fill="#79CA2A"/>
<path d="M47.4283 29.4277L48.7721 27.2544L46.8709 28.3288L47.4283 29.4277Z" fill="#61C332"/>
<path d="M48.631 21.4752L49.3043 23.0144L50.0382 21.7888L48.631 21.4752Z" fill="#7FCC28"/>
<path d="M53.4948 22.483L53.8496 20.9206L52.2017 21.8217L53.4948 22.483Z" fill="#74C92C"/>
<path d="M49.3044 23.0144L48.6311 21.4752L47.9003 22.7161L49.3044 23.0144Z" fill="#79CA2A"/>
<path d="M53.4948 22.483L52.2017 21.8217L52.3949 23.463L53.4948 22.483Z" fill="#74C92C"/>
<path d="M53.8494 20.9205L53.192 18.2542L52.3301 20.3829L53.8494 20.9205Z" fill="#78CA2A"/>
<path d="M51.0362 20.8474L50.9597 19.4829L49.6143 20.4198L51.0362 20.8474Z" fill="#7DCB29"/>
<path d="M43.092 22.7457L44.647 23.264L44.4698 21.8617L43.092 22.7457Z" fill="#7DCB29"/>
<path d="M44.6469 23.2641L43.8447 24.4314L45.5147 24.7078L44.6469 23.2641Z" fill="#7BCB29"/>
<path d="M43.8522 19.5176L43.5346 20.8524L45.2451 20.3957L43.8522 19.5176Z" fill="#87CE26"/>
<path d="M43.8446 24.4315L43.0918 22.7458L41.5072 23.1665L43.8446 24.4315Z" fill="#77C92B"/>
<path d="M47.444 27.2377L45.6473 28.1365L46.8711 28.3287L47.444 27.2377Z" fill="#6BC62E"/>
<path d="M49.3046 23.0144L51.0971 22.7614L50.0385 21.7888L49.3046 23.0144Z" fill="#79CA2A"/>
<path d="M48.036 20.1646L47.6666 18.4684L46.6103 19.4455L48.036 20.1646Z" fill="#83CD27"/>
<path d="M48.2035 16.8597L47.6666 18.4685L49.1057 18.5812L48.2035 16.8597Z" fill="#8BCF24"/>
<path d="M42.1428 16.9859L40.8941 17.0738L42.4923 18.5389L42.1428 16.9859Z" fill="#8DD024"/>
<path d="M41.5072 23.1663L43.0918 22.7456L41.9477 21.6491L41.5072 23.1663Z" fill="#7BCB29"/>
<path d="M43.5346 20.8524L43.8522 19.5176L42.3638 20.125L43.5346 20.8524Z" fill="#83CD27"/>
<path d="M45.2449 20.3958L45.2578 18.74L43.852 19.5176L45.2449 20.3958Z" fill="#85CE26"/>
<path d="M43.5345 20.8526L42.3636 20.1252L41.9478 21.6493L43.5345 20.8526Z" fill="#83CD27"/>
<path d="M45.2451 20.3959L43.5346 20.8526L44.4698 21.8618L45.2451 20.3959Z" fill="#85CE26"/>
<path d="M46.0266 22.9169L44.647 23.2641L45.5148 24.7078L46.0266 22.9169Z" fill="#7CCB29"/>
<path d="M49.4742 24.4302L47.1929 24.9292L48.6141 25.9446L49.4742 24.4302Z" fill="#74C92C"/>
<path d="M47.4439 27.2378L47.193 24.9292L46.1681 26.2068L47.4439 27.2378Z" fill="#6BC62E"/>
<path d="M47.1931 24.9292L45.5148 24.7077L46.1682 26.2068L47.1931 24.9292Z" fill="#74C92C"/>
<path d="M43.5345 20.8525L41.9478 21.6491L43.0919 22.7456L43.5345 20.8525Z" fill="#83CD27"/>
<path d="M40.3581 18.1973L40.8942 17.0738L39.0433 16.3912L40.3581 18.1973Z" fill="#89CF25"/>
<path d="M35.5653 19.9065L36.9065 20.007L36.8695 18.6707L35.5653 19.9065Z" fill="#7ECC28"/>
<path d="M34.2646 19.2509L33.8592 17.8595L32.8943 19.7472L34.2646 19.2509Z" fill="#7DCB29"/>
<path d="M42.4922 18.5391L40.358 18.1974L41.2031 19.3231L42.4922 18.5391Z" fill="#8ACF25"/>
<path d="M40.273 20.3806L38.24 19.8336L38.9393 21.2698L40.273 20.3806Z" fill="#83CD27"/>
<path d="M45.5148 24.7078L47.056 23.668L46.0265 22.9169L45.5148 24.7078Z" fill="#76C92B"/>
<path d="M49.4742 24.4303L47.0558 23.668L47.1929 24.9293L49.4742 24.4303Z" fill="#74C92C"/>
<path d="M43.8447 24.4313L43.9706 26.6559L45.5147 24.7077L43.8447 24.4313Z" fill="#77C92B"/>
<path d="M47.4285 29.4278L46.8711 28.3289L45.9099 29.6367L47.4285 29.4278Z" fill="#61C332"/>
<path d="M39.067 18.7193L40.2731 20.3806L40.358 18.1973L39.067 18.7193Z" fill="#87CE26"/>
<path d="M45.6472 28.1366L46.1681 26.2068L45.1828 26.9787L45.6472 28.1366Z" fill="#68C52F"/>
<path d="M45.1829 26.9787L44.1072 28.1799L45.6473 28.1365L45.1829 26.9787Z" fill="#6DC62E"/>
<path d="M45.5146 24.7077L43.9705 26.6559L45.1827 26.9786L45.5146 24.7077Z" fill="#76C92B"/>
<path d="M44.3773 29.6862L43.2584 30.5125L44.9547 31.6176L44.3773 29.6862Z" fill="#61C332"/>
<path d="M49.1056 18.5812L49.7541 16.7919L48.2034 16.8597L49.1056 18.5812Z" fill="#87CE26"/>
<path d="M51.2777 16.0604L49.7541 16.7918L50.88 17.8529L51.2777 16.0604Z" fill="#8ACF25"/>
<path d="M36.0284 48.8151L38.001 48.7232L36.936 47.103L36.0284 48.8151Z" fill="#2DA04B"/>
<path d="M31.4398 49.7685L31.7452 47.8697L29.8654 48.3302L31.4398 49.7685Z" fill="#2DA344"/>
<path d="M55.9161 47.9257L56.2373 49.8962L57.8587 48.4384L55.9161 47.9257Z" fill="#2DA345"/>
<path d="M59.3161 46.7978L58.9573 45.3906L57.4262 46.6005L59.3161 46.7978Z" fill="#2FA841"/>
<path d="M53.7498 46.0014L51.5882 46.0206L52.7512 46.9362L53.7498 46.0014Z" fill="#2EA443"/>
<path d="M40.3739 15.943L40.894 17.0739L42.1428 16.9859L40.3739 15.943Z" fill="#8ED023"/>
<path d="M43.8522 19.5177L42.4923 18.5389L42.3638 20.1251L43.8522 19.5177Z" fill="#87CE26"/>
<path d="M39.0671 18.7192L40.3581 18.1973L38.2908 17.5696L39.0671 18.7192Z" fill="#87CE26"/>
<path d="M42.3635 20.1251L41.203 19.323L40.2729 20.3806L42.3635 20.1251Z" fill="#86CE26"/>
<path d="M38.5193 22.8094L38.2842 24.3208L39.8087 24.537L38.5193 22.8094Z" fill="#79CA2A"/>
<path d="M38.9392 21.2698L38.2399 19.8336L36.9433 21.3423L38.9392 21.2698Z" fill="#7FCC28"/>
<path d="M38.5192 22.8096L38.9392 21.2698L36.9433 21.3424L38.5192 22.8096Z" fill="#79CA2A"/>
<path d="M38.1563 15.309L38.2907 17.5697L39.0433 16.3913L38.1563 15.309Z" fill="#8DD024"/>
<path d="M40.3581 18.1973L39.0433 16.3912L38.2908 17.5695L40.3581 18.1973Z" fill="#89CF25"/>
<path d="M41.1414 24.4426L43.8447 24.4315L41.5074 23.1665L41.1414 24.4426Z" fill="#76C92B"/>
<path d="M39.8085 24.537L41.6492 25.6697L41.1412 24.4424L39.8085 24.537Z" fill="#75C92B"/>
<path d="M48.1931 31.4817L46.5665 31.3743L46.6352 32.9918L48.1931 31.4817Z" fill="#57C035"/>
<path d="M52.6133 42.3834L53.5968 43.3027L54.4661 41.6647L52.6133 42.3834Z" fill="#31AA40"/>
<path d="M39.9176 48.3283L38.0013 48.7231L39.3233 50.1801L39.9176 48.3283Z" fill="#2C9E50"/>
<path d="M36.936 47.103L38.0011 48.7231L38.8425 46.7041L36.936 47.103Z" fill="#2DA149"/>
<path d="M34.985 47.1762L36.0287 48.8151L36.9363 47.103L34.985 47.1762Z" fill="#2DA346"/>
<path d="M33.5701 48.5127L34.9849 47.1761L33.603 47.1403L33.5701 48.5127Z" fill="#2DA247"/>
<path d="M46.381 48.7225L44.4183 48.2738L45.5019 49.9598L46.381 48.7225Z" fill="#2C9C53"/>
<path d="M44.4183 48.2739L42.95 49.6659L44.255 49.5638L44.4183 48.2739Z" fill="#2C9C53"/>
<path d="M42.7728 47.1208L44.4183 48.2739L44.3778 46.5964L42.7728 47.1208Z" fill="#2C9E50"/>
<path d="M38.8425 46.7042L39.9173 48.3284L40.8454 46.5599L38.8425 46.7042Z" fill="#2DA04A"/>
<path d="M41.1133 49.7609L41.9656 48.4548L39.9175 48.3283L41.1133 49.7609Z" fill="#2C9C54"/>
<path d="M44.4183 48.2739L46.381 48.7225L45.6403 47.4599L44.4183 48.2739Z" fill="#2C9C53"/>
<path d="M44.418 48.2739L42.7724 47.1208L41.9653 48.4549L44.418 48.2739Z" fill="#2C9C53"/>
<path d="M52.452 48.5936L54.1291 48.8401L52.7509 46.9363L52.452 48.5936Z" fill="#2DA04D"/>
<path d="M51.4054 47.5521L51.588 46.0206L50.1329 46.3107L51.4054 47.5521Z" fill="#2D9F4B"/>
<path d="M55.916 47.9256L54.9062 49.9133L56.2372 49.8961L55.916 47.9256Z" fill="#2DA345"/>
<path d="M57.4262 46.6006L55.9161 47.9255L57.8587 48.4382L57.4262 46.6006Z" fill="#2EA641"/>
<path d="M54.1293 48.8401L54.4076 47.1975L52.7511 46.9363L54.1293 48.8401Z" fill="#2DA04A"/>
<path d="M60.416 45.0744L60.088 43.6602L58.9573 45.3906L60.416 45.0744Z" fill="#32AB40"/>
<path d="M57.426 46.6006L56.001 45.352L55.6187 46.6277L57.426 46.6006Z" fill="#2EA641"/>
<path d="M58.66 43.9694L58.9813 42.0259L57.7107 42.8166L58.66 43.9694Z" fill="#32AB40"/>
<path d="M60.416 45.0745L58.9573 45.3906L59.3161 46.7978L60.416 45.0745Z" fill="#32AB40"/>
<path d="M58.66 43.9693L57.7107 42.8166L56.5289 43.9974L58.66 43.9693Z" fill="#32AB40"/>
<path d="M57.4262 46.6006L58.9573 45.3906L57.5362 45.0505L57.4262 46.6006Z" fill="#2EA641"/>
<path d="M58.66 43.9693L57.5361 45.0504L58.9572 45.3906L58.66 43.9693Z" fill="#32AB40"/>
<path d="M39.0433 16.3912L40.8942 17.0739L40.374 15.943L39.0433 16.3912Z" fill="#8CD024"/>
<path d="M42.4922 18.5389L40.894 17.0738L40.358 18.1973L42.4922 18.5389Z" fill="#8ACF25"/>
<path d="M36.8693 18.6708L39.0668 18.7192L38.2905 17.5696L36.8693 18.6708Z" fill="#84CD27"/>
<path d="M40.273 20.3806L39.0669 18.7193L38.24 19.8336L40.273 20.3806Z" fill="#83CD27"/>
<path d="M42.4923 18.5389L41.2032 19.323L42.3637 20.1251L42.4923 18.5389Z" fill="#8ACF25"/>
<path d="M40.3579 18.1973L40.2729 20.3806L41.203 19.323L40.3579 18.1973Z" fill="#89CF25"/>
<path d="M38.2905 17.5695L36.971 17.3452L36.8693 18.6708L38.2905 17.5695Z" fill="#88CF25"/>
<path d="M33.8593 17.8595L35.4648 17.8978L34.8242 15.9719L33.8593 17.8595Z" fill="#82CD27"/>
<path d="M38.1562 15.309L36.9712 17.3454L38.2906 17.5697L38.1562 15.309Z" fill="#8DD024"/>
<path d="M35.4646 17.8978L36.5777 16.0746L34.824 15.9719L35.4646 17.8978Z" fill="#84CD27"/>
<path d="M36.8695 18.6708L36.9712 17.3452L35.4647 17.8978L36.8695 18.6708Z" fill="#84CD27"/>
<path d="M35.4647 17.8978L36.9712 17.3453L36.5778 16.0746L35.4647 17.8978Z" fill="#84CD27"/>
<path d="M32.8943 19.7471L31.8844 20.4667L32.4006 21.5896L32.8943 19.7471Z" fill="#78CA2A"/>
<path d="M35.4647 17.8978L34.2646 19.251L35.5653 19.9066L35.4647 17.8978Z" fill="#84CD27"/>
<path d="M36.9434 21.3423L38.24 19.8336L36.9064 20.0071L36.9434 21.3423Z" fill="#7CCB29"/>
<path d="M40.084 22.4042L38.9393 21.2698L38.5192 22.8096L40.084 22.4042Z" fill="#7DCB29"/>
<path d="M34.163 24.2119L35.6023 25.261L35.6802 23.8281L34.163 24.2119Z" fill="#6FC72D"/>
<path d="M34.1065 22.6582L32.484 23.4946L34.1633 24.212L34.1065 22.6582Z" fill="#73C82C"/>
<path d="M40.084 22.404L38.5192 22.8094L39.8086 24.537L40.084 22.404Z" fill="#7DCB29"/>
<path d="M41.9479 21.6491L40.0841 22.404L41.5074 23.1663L41.9479 21.6491Z" fill="#80CC28"/>
<path d="M43.8447 24.4314L41.6494 25.6698L42.6652 26.499L43.8447 24.4314Z" fill="#77C92B"/>
<path d="M41.4678 29.424L42.9586 29.1602L41.903 27.5632L41.4678 29.424Z" fill="#61C332"/>
<path d="M36.9433 21.3423L35.4714 21.8867L37.1177 23.3683L36.9433 21.3423Z" fill="#7CCB29"/>
<path d="M28.9888 40.5842L27.874 39.2587L26.9002 40.4925L28.9888 40.5842Z" fill="#39B23E"/>
<path d="M36.3547 26.7031L37.4501 27.8015L38.6787 26.0682L36.3547 26.7031Z" fill="#69C52F"/>
<path d="M42.9587 29.1603L43.2585 30.5126L44.3773 29.6863L42.9587 29.1603Z" fill="#63C431"/>
<path d="M44.1072 28.1799L43.9706 26.6559L42.6652 26.499L44.1072 28.1799Z" fill="#68C52F"/>
<path d="M40.856 30.8903L43.2586 30.5125L41.468 29.4239L40.856 30.8903Z" fill="#5AC134"/>
<path d="M37.4502 27.8015L35.9706 28.2819L37.3172 29.8848L37.4502 27.8015Z" fill="#65C430"/>
<path d="M40.856 30.8903L42.6564 31.7614L43.2586 30.5124L40.856 30.8903Z" fill="#5AC134"/>
<path d="M41.4678 29.424L43.2584 30.5126L42.9586 29.1603L41.4678 29.424Z" fill="#61C332"/>
<path d="M43.2584 30.5126L43.8518 32.4194L44.9547 31.6176L43.2584 30.5126Z" fill="#5DC233"/>
<path d="M44.9549 31.6176L43.852 32.4194L45.4307 32.7441L44.9549 31.6176Z" fill="#58C034"/>
<path d="M47.4285 29.4277L45.9099 29.6366L46.5666 31.3744L47.4285 29.4277Z" fill="#61C332"/>
<path d="M45.5147 24.7077L45.1828 26.9786L46.1681 26.2067L45.5147 24.7077Z" fill="#76C92B"/>
<path d="M44.107 28.1799L45.1827 26.9787L43.9705 26.6559L44.107 28.1799Z" fill="#68C52F"/>
<path d="M41.5072 23.1663L40.0838 22.404L39.8085 24.537L41.5072 23.1663Z" fill="#7BCB29"/>
<path d="M40.4536 28.3058L41.9031 27.5633L40.3589 26.8038L40.4536 28.3058Z" fill="#66C430"/>
<path d="M35.6802 23.828L37.1177 23.3682L35.4714 21.8866L35.6802 23.828Z" fill="#72C82C"/>
<path d="M38.6787 26.0684L39.8087 24.5372L38.2842 24.321L38.6787 26.0684Z" fill="#6EC72D"/>
<path d="M41.9033 27.5632L42.9588 29.1602L44.1073 28.1799L41.9033 27.5632Z" fill="#6AC62F"/>
<path d="M40.3589 26.8039L41.9031 27.5634L41.6493 25.6698L40.3589 26.8039Z" fill="#6CC62E"/>
<path d="M43.8447 24.4313L42.6652 26.4989L43.9706 26.6559L43.8447 24.4313Z" fill="#77C92B"/>
<path d="M41.6494 25.6698L41.9032 27.5634L42.6652 26.4991L41.6494 25.6698Z" fill="#71C82D"/>
<path d="M39.8085 24.5371L40.3589 26.8038L41.6492 25.6697L39.8085 24.5371Z" fill="#75C92B"/>
<path d="M40.4537 28.3058L40.359 26.8038L39.0055 27.8628L40.4537 28.3058Z" fill="#66C430"/>
<path d="M37.3171 29.8848L38.5246 29.1729L37.4501 27.8015L37.3171 29.8848Z" fill="#5CC133"/>
<path d="M41.903 27.5632L40.4536 28.3058L41.4677 29.424L41.903 27.5632Z" fill="#6AC62F"/>
<path d="M45.6472 28.1366L44.3774 29.6863L45.9098 29.6367L45.6472 28.1366Z" fill="#68C52F"/>
<path d="M49.0548 29.9979L49.5159 28.3473L47.4283 29.4277L49.0548 29.9979Z" fill="#5DC233"/>
<path d="M39.9175 48.3284L41.9656 48.4549L40.8456 46.5599L39.9175 48.3284Z" fill="#2C9E50"/>
<path d="M39.7691 45.6076L42.3133 44.5263L39.6648 44.1799L39.7691 45.6076Z" fill="#2DA148"/>
<path d="M36.0285 48.8151L34.9849 47.1762L33.5701 48.5128L36.0285 48.8151Z" fill="#2DA04B"/>
<path d="M41.9655 48.4548L41.1132 49.7609L42.9498 49.6659L41.9655 48.4548Z" fill="#2C9D53"/>
<path d="M39.9175 48.3283L39.3232 50.1801L41.1133 49.7609L39.9175 48.3283Z" fill="#2C9E50"/>
<path d="M44.418 48.2739L41.9653 48.4549L42.9497 49.6659L44.418 48.2739Z" fill="#2C9C53"/>
<path d="M41.9656 48.4549L42.7727 47.1208L40.8456 46.5599L41.9656 48.4549Z" fill="#2C9D53"/>
<path d="M50.0222 48.0787L50.1331 46.3106L47.992 47.0656L50.0222 48.0787Z" fill="#2C9E4F"/>
<path d="M52.7512 46.9362L51.5882 46.0206L51.4056 47.5521L52.7512 46.9362Z" fill="#2DA148"/>
<path d="M45.5018 49.9598L44.4182 48.2738L44.2549 49.5637L45.5018 49.9598Z" fill="#2C9A55"/>
<path d="M52.7512 46.9362L51.4056 47.5521L52.4523 48.5935L52.7512 46.9362Z" fill="#2DA148"/>
<path d="M50.0222 48.0787L49.8653 49.652L51.3296 49.5345L50.0222 48.0787Z" fill="#2C9E4F"/>
<path d="M52.1607 43.8394L51.5882 46.0207L53.6345 44.6435L52.1607 43.8394Z" fill="#2EA741"/>
<path d="M51.3294 49.5346L51.4054 47.5522L50.022 48.0788L51.3294 49.5346Z" fill="#2C9D50"/>
<path d="M45.4305 32.7442L45.9221 34.4391L46.6351 32.992L45.4305 32.7442Z" fill="#52BE36"/>
<path d="M50.022 48.0787L51.4054 47.5521L50.1329 46.3106L50.022 48.0787Z" fill="#2C9E4F"/>
<path d="M49.4822 45.0191L50.1329 46.3107L50.9034 44.713L49.4822 45.0191Z" fill="#2CA247"/>
<path d="M49.4824 45.0191L47.992 47.0657L50.1331 46.3108L49.4824 45.0191Z" fill="#2CA247"/>
<path d="M53.6345 44.6435L51.5882 46.0207L53.7498 46.0015L53.6345 44.6435Z" fill="#2EA641"/>
<path d="M50.9034 44.713L50.1329 46.3107L51.588 46.0207L50.9034 44.713Z" fill="#2DA443"/>
<path d="M56.0013 45.3519L56.529 43.9973L54.9162 43.5887L56.0013 45.3519Z" fill="#2EA741"/>
<path d="M53.5966 43.3027L52.1605 43.8393L53.6344 44.6434L53.5966 43.3027Z" fill="#30A941"/>
<path d="M49.7902 43.0223L47.8081 42.5683L48.1706 44.3953L49.7902 43.0223Z" fill="#2EA741"/>
<path d="M47.4271 45.6872L46.3746 44.2328L45.9703 46.0359L47.4271 45.6872Z" fill="#2CA04B"/>
<path d="M45.6403 47.46L47.992 47.0657L45.9703 46.036L45.6403 47.46Z" fill="#2C9D51"/>
<path d="M49.4822 45.0192L50.9034 44.713L49.7901 43.0224L49.4822 45.0192Z" fill="#2CA247"/>
<path d="M49.4822 45.019L48.1705 44.3952L47.4269 45.6872L49.4822 45.019Z" fill="#2CA247"/>
<path d="M48.187 48.9509L50.0222 48.0787L47.992 47.0656L48.187 48.9509Z" fill="#2C9C52"/>
<path d="M51.3296 49.5346L52.4523 48.5936L51.4056 47.5522L51.3296 49.5346Z" fill="#2C9D50"/>
<path d="M50.022 48.0787L48.1868 48.951L49.8651 49.652L50.022 48.0787Z" fill="#2C9E4F"/>
<path d="M47.9919 47.0656L46.3809 48.7224L48.1869 48.9509L47.9919 47.0656Z" fill="#2C9F4F"/>
<path d="M55.9161 47.9255L55.6189 46.6277L54.4077 47.1974L55.9161 47.9255Z" fill="#2DA345"/>
<path d="M56.0012 45.352L53.7496 46.0014L55.6188 46.6277L56.0012 45.352Z" fill="#2EA741"/>
<path d="M57.426 46.6005L55.6187 46.6277L55.9159 47.9255L57.426 46.6005Z" fill="#2EA641"/>
<path d="M53.7498 46.0013L56.0013 45.3519L53.6345 44.6433L53.7498 46.0013Z" fill="#2EA443"/>
<path d="M52.7511 46.9363L54.4076 47.1975L53.7497 46.0015L52.7511 46.9363Z" fill="#2DA148"/>
<path d="M55.6188 46.6278L53.7496 46.0015L54.4075 47.1975L55.6188 46.6278Z" fill="#2EA442"/>
<path d="M58.9573 45.3906L60.088 43.6602L58.6602 43.9693L58.9573 45.3906Z" fill="#30A941"/>
<path d="M58.6602 43.9694L60.088 43.6603L58.9815 42.0259L58.6602 43.9694Z" fill="#32AB40"/>
<path d="M58.7744 40.6763L58.9814 42.0259L60.1238 40.4159L58.7744 40.6763Z" fill="#38B13F"/>
<path d="M56.5288 43.9973L56.0011 45.3519L57.5361 45.0504L56.5288 43.9973Z" fill="#31AA40"/>
<path d="M36.8693 18.6707L36.9063 20.007L38.2399 19.8335L36.8693 18.6707Z" fill="#84CD27"/>
<path d="M35.5653 19.9066L36.9435 21.3423L36.9065 20.0071L35.5653 19.9066Z" fill="#7ECC28"/>
<path d="M34.2112 20.9557L35.4715 21.8866L35.5653 19.9066L34.2112 20.9557Z" fill="#78CA2A"/>
<path d="M29.2282 31.7725L28.3257 30.4165L27.77 31.6266L29.2282 31.7725Z" fill="#50BE37"/>
<path d="M42.6563 31.7614L40.3818 32.4062L40.7651 33.765L42.6563 31.7614Z" fill="#57C035"/>
<path d="M45.4307 32.744L43.852 32.4193L44.5434 33.5902L45.4307 32.744Z" fill="#52BE36"/>
<path d="M47.0772 39.9377L45.9888 39.0418L45.2256 40.8655L47.0772 39.9377Z" fill="#34AE3F"/>
<path d="M47.5706 34.3433L46.3713 35.9872L47.6833 35.6777L47.5706 34.3433Z" fill="#49BC39"/>
<path d="M43.8447 24.4314L41.1414 24.4424L41.6494 25.6697L43.8447 24.4314Z" fill="#77C92B"/>
<path d="M41.5072 23.1663L39.8085 24.537L41.1412 24.4424L41.5072 23.1663Z" fill="#7BCB29"/>
<path d="M45.9098 29.6367L46.8711 28.3289L45.6473 28.1367L45.9098 29.6367Z" fill="#61C332"/>
<path d="M48.7721 27.2544L47.4283 29.4277L49.5159 28.3473L48.7721 27.2544Z" fill="#6AC62F"/>
<path d="M44.3774 29.6862L44.9548 31.6176L45.9098 29.6366L44.3774 29.6862Z" fill="#61C332"/>
<path d="M44.9548 31.6176L45.4306 32.7441L46.5665 31.3744L44.9548 31.6176Z" fill="#58C034"/>
<path d="M49.1945 34.0484L47.5703 34.3432L47.683 35.6776L49.1945 34.0484Z" fill="#4ABC39"/>
<path d="M52.451 27.5967L53.7943 29.688L54.4586 28.458L52.451 27.5967Z" fill="#63C431"/>
<path d="M42.7728 47.1207L44.3778 46.5964L43.1947 45.7098L42.7728 47.1207Z" fill="#2C9E50"/>
<path d="M43.1947 45.7098L40.8456 46.5598L42.7727 47.1207L43.1947 45.7098Z" fill="#2CA04C"/>
<path d="M38.8425 46.7042L40.8454 46.5598L39.7691 45.6077L38.8425 46.7042Z" fill="#2DA04A"/>
<path d="M34.089 45.6089L34.9848 47.1762L35.8959 45.4423L34.089 45.6089Z" fill="#2EA641"/>
<path d="M40.4536 28.3058L39.3813 30.2777L41.4678 29.424L40.4536 28.3058Z" fill="#66C430"/>
<path d="M31.2092 44.1736L30.3547 45.3323L32.594 44.5873L31.2092 44.1736Z" fill="#32AB40"/>
<path d="M45.64 47.4599L44.3774 46.5964L44.418 48.2739L45.64 47.4599Z" fill="#2C9D51"/>
<path d="M44.7551 45.1431L44.3774 46.5965L45.97 46.036L44.7551 45.1431Z" fill="#2CA04A"/>
<path d="M46.3745 44.2328L44.7552 45.143L45.9702 46.0359L46.3745 44.2328Z" fill="#2CA247"/>
<path d="M43.6291 44.4873L44.6713 43.6443L43.1827 43.269L43.6291 44.4873Z" fill="#2CA248"/>
<path d="M45.9414 42.7438L46.4542 41.28L45.2256 40.8656L45.9414 42.7438Z" fill="#2DA641"/>
<path d="M40.7118 43.0783L39.366 42.3652L39.665 44.1801L40.7118 43.0783Z" fill="#2DA641"/>
<path d="M44.7554 45.1431L43.1947 45.7099L44.3777 46.5965L44.7554 45.1431Z" fill="#2CA04A"/>
<path d="M40.8456 46.5598L43.1947 45.7098L42.3136 44.5263L40.8456 46.5598Z" fill="#2C9F4C"/>
<path d="M47.992 47.0657L45.6403 47.4599L46.3809 48.7225L47.992 47.0657Z" fill="#2C9F4F"/>
<path d="M44.3774 46.5965L45.64 47.46L45.97 46.036L44.3774 46.5965Z" fill="#2C9E4F"/>
<path d="M46.3746 44.2328L47.4271 45.6872L48.1707 44.3952L46.3746 44.2328Z" fill="#2CA247"/>
<path d="M45.9703 46.036L47.992 47.0657L47.4271 45.6873L45.9703 46.036Z" fill="#2C9F4D"/>
<path d="M46.4543 41.28L45.9414 42.7438L47.8081 42.5683L46.4543 41.28Z" fill="#30AA41"/>
<path d="M46.3746 44.2329L44.6713 43.6443L44.7553 45.143L46.3746 44.2329Z" fill="#2CA247"/>
<path d="M46.4543 41.2799L47.8081 42.5682L48.4063 40.6026L46.4543 41.2799Z" fill="#30AA41"/>
<path d="M50.1997 41.3242L49.5264 39.1817L48.4062 40.6027L50.1997 41.3242Z" fill="#31AB40"/>
<path d="M46.3745 44.2328L47.8081 42.5682L45.9414 42.7437L46.3745 44.2328Z" fill="#2CA247"/>
<path d="M48.4063 40.6027L47.0772 39.9378L46.4543 41.28L48.4063 40.6027Z" fill="#32AC40"/>
<path d="M47.8083 42.5683L46.3746 44.2329L48.1707 44.3953L47.8083 42.5683Z" fill="#2DA641"/>
<path d="M45.9413 42.7438L45.2256 40.8656L44.1985 41.6531L45.9413 42.7438Z" fill="#2DA641"/>
<path d="M48.1706 44.3953L49.4822 45.0192L49.7902 43.0224L48.1706 44.3953Z" fill="#2DA346"/>
<path d="M47.7927 38.6419L47.0774 39.9379L48.4064 40.6028L47.7927 38.6419Z" fill="#37B23F"/>
<path d="M51.2127 42.7513L50.9033 44.7129L52.1604 43.8393L51.2127 42.7513Z" fill="#2FA841"/>
<path d="M49.7903 43.0223L51.2129 42.7514L50.1999 41.3241L49.7903 43.0223Z" fill="#2EA741"/>
<path d="M50.1999 41.3241L48.9467 41.8374L49.7904 43.0223L50.1999 41.3241Z" fill="#31AB40"/>
<path d="M51.6666 41.2691L51.2128 42.7514L52.6131 42.3834L51.6666 41.2691Z" fill="#32AC40"/>
<path d="M60.0878 43.6603L60.6276 41.9734L58.9812 42.0259L60.0878 43.6603Z" fill="#33AD40"/>
<path d="M48.1573 32.9718L49.7681 32.5819L48.193 31.482L48.1573 32.9718Z" fill="#4FBE37"/>
<path d="M58.9813 42.0259L57.1912 41.3632L57.7107 42.8167L58.9813 42.0259Z" fill="#35AE3F"/>
<path d="M54.9162 43.5887L53.6345 44.6433L56.0013 45.3519L54.9162 43.5887Z" fill="#30A941"/>
<path d="M58.66 43.9693L56.5289 43.9974L57.5362 45.0505L58.66 43.9693Z" fill="#32AB40"/>
<path d="M56.529 43.9974L56.2311 42.5754L54.9162 43.5888L56.529 43.9974Z" fill="#31AA40"/>
<path d="M54.4661 41.6647L54.9162 43.5888L56.2312 42.5754L54.4661 41.6647Z" fill="#33AC40"/>
<path d="M52.1605 43.8394L53.5966 43.3028L52.6131 42.3834L52.1605 43.8394Z" fill="#2EA741"/>
<path d="M56.2311 42.5753L57.1913 41.3631L55.6904 40.2816L56.2311 42.5753Z" fill="#32AB40"/>
<path d="M54.2872 39.4401L54.4661 41.6648L55.6905 40.2817L54.2872 39.4401Z" fill="#38B23E"/>
<path d="M53.6345 44.6434L54.9162 43.5887L53.5967 43.3027L53.6345 44.6434Z" fill="#2EA641"/>
<path d="M54.466 41.6647L53.5967 43.3027L54.9162 43.5888L54.466 41.6647Z" fill="#33AC40"/>
<path d="M51.2128 42.7514L52.1605 43.8394L52.6131 42.3834L51.2128 42.7514Z" fill="#2FA841"/>
<path d="M52.1604 43.8394L50.9033 44.713L51.5879 46.0207L52.1604 43.8394Z" fill="#2EA741"/>
<path d="M51.6668 41.2691L50.1999 41.3242L51.2129 42.7514L51.6668 41.2691Z" fill="#32AC40"/>
<path d="M50.9036 44.7129L51.2129 42.7513L49.7903 43.0223L50.9036 44.7129Z" fill="#2DA443"/>
<path d="M54.2871 39.4401L52.9473 40.3128L54.466 41.6648L54.2871 39.4401Z" fill="#38B23E"/>
<path d="M50.7129 38.7155L49.5264 39.1817L51.1989 39.8873L50.7129 38.7155Z" fill="#38B23E"/>
<path d="M49.5264 39.1817L50.1997 41.3242L51.1989 39.8873L49.5264 39.1817Z" fill="#37B13F"/>
<path d="M48.9465 41.8373L50.1997 41.3241L48.4062 40.6026L48.9465 41.8373Z" fill="#30AA41"/>
<path d="M52.9474 40.3127L52.6133 42.3834L54.4661 41.6647L52.9474 40.3127Z" fill="#35AE3F"/>
<path d="M51.199 39.8873L50.1999 41.3242L51.6668 41.2691L51.199 39.8873Z" fill="#35AF3F"/>
<path d="M37.0472 25.2316L35.6025 25.2609L36.3549 26.7031L37.0472 25.2316Z" fill="#6FC72D"/>
<path d="M40.3592 26.8038L38.6789 26.0682L39.0057 27.8628L40.3592 26.8038Z" fill="#6CC62E"/>
<path d="M39.8089 24.5371L38.6789 26.0682L40.3592 26.8038L39.8089 24.5371Z" fill="#75C92B"/>
<path d="M38.6787 26.0682L37.047 25.2316L36.3547 26.7031L38.6787 26.0682Z" fill="#6EC72D"/>
<path d="M34.2647 19.251L34.2112 20.9557L35.5653 19.9066L34.2647 19.251Z" fill="#7DCB29"/>
<path d="M30.7295 21.9175L32.4838 23.4945L32.4005 21.5897L30.7295 21.9175Z" fill="#6DC62E"/>
<path d="M32.8943 19.7472L34.2111 20.9557L34.2646 19.251L32.8943 19.7472Z" fill="#78CA2A"/>
<path d="M35.4715 21.8866L34.2112 20.9557L34.1063 22.6581L35.4715 21.8866Z" fill="#78CA2A"/>
<path d="M35.6803 23.828L35.4715 21.8866L34.1063 22.658L35.6803 23.828Z" fill="#72C82C"/>
<path d="M35.5652 19.9066L35.4714 21.8866L36.9433 21.3423L35.5652 19.9066Z" fill="#7ECC28"/>
<path d="M35.6803 23.8282L34.1063 22.6582L34.1631 24.212L35.6803 23.8282Z" fill="#72C82C"/>
<path d="M37.0469 25.2316L38.2841 24.3209L37.1177 23.3682L37.0469 25.2316Z" fill="#6FC72D"/>
<path d="M47.4284 29.4277L46.5665 31.3744L48.1931 31.4818L47.4284 29.4277Z" fill="#61C332"/>
<path d="M45.9097 29.6366L44.9548 31.6176L46.5665 31.3744L45.9097 29.6366Z" fill="#61C332"/>
<path d="M45.9224 34.4391L45.4308 32.7442L44.5435 33.5904L45.9224 34.4391Z" fill="#49BC39"/>
<path d="M46.5663 31.3743L45.4305 32.744L46.6351 32.9918L46.5663 31.3743Z" fill="#58C034"/>
<path d="M49.0548 29.998L47.4283 29.4277L48.193 31.4818L49.0548 29.998Z" fill="#5DC233"/>
<path d="M49.5161 28.3473L50.4101 29.4824L50.8607 27.9397L49.5161 28.3473Z" fill="#63C431"/>
<path d="M38.142 45.1859L39.7691 45.6076L39.6647 44.1799L38.142 45.1859Z" fill="#2DA444"/>
<path d="M34.2084 43.9583L32.5942 44.5873L34.0892 45.6088L34.2084 43.9583Z" fill="#30A941"/>
<path d="M44.1985 41.6531L44.671 43.6443L45.9413 42.7438L44.1985 41.6531Z" fill="#2FA941"/>
<path d="M38.142 45.186L38.8424 46.7042L39.7691 45.6077L38.142 45.186Z" fill="#2DA444"/>
<path d="M42.6562 31.7615L42.1098 34.2207L43.8518 32.4194L42.6562 31.7615Z" fill="#57C035"/>
<path d="M47.7924 38.6419L48.4062 40.6028L49.5263 39.1818L47.7924 38.6419Z" fill="#37B23F"/>
<path d="M47.348 37.174L45.3996 37.7657L45.9888 39.0419L47.348 37.174Z" fill="#3DB63D"/>
<path d="M44.7274 39.6758L45.9888 39.0419L45.3996 37.7657L44.7274 39.6758Z" fill="#34AE40"/>
<path d="M46.3712 35.9871L45.1669 36.4893L45.3996 37.7657L46.3712 35.9871Z" fill="#41B93C"/>
<path d="M42.5801 38.693L41.386 39.9948L43.13 40.3129L42.5801 38.693Z" fill="#37B23F"/>
<path d="M47.3481 37.174L45.9889 39.0419L47.7926 38.6419L47.3481 37.174Z" fill="#3DB63D"/>
<path d="M44.1986 41.653L44.7274 39.6758L43.1299 40.3128L44.1986 41.653Z" fill="#2FA941"/>
<path d="M44.7274 39.6759L44.0346 38.3638L43.1299 40.3129L44.7274 39.6759Z" fill="#34AE40"/>
<path d="M44.1988 41.653L42.0105 42.2835L43.1827 43.2689L44.1988 41.653Z" fill="#2FA941"/>
<path d="M60.1235 40.4159L58.9812 42.0259L60.6276 41.9734L60.1235 40.4159Z" fill="#39B23E"/>
<path d="M58.979 39.2028L57.7266 38.4248L57.6506 39.8899L58.979 39.2028Z" fill="#3BB43E"/>
<path d="M55.6904 40.2816L57.1913 41.3632L57.6506 39.8899L55.6904 40.2816Z" fill="#37B13F"/>
<path d="M58.9813 42.0259L58.7742 40.6763L57.1912 41.3632L58.9813 42.0259Z" fill="#35AE3F"/>
<path d="M56.529 43.9974L57.7108 42.8166L56.2311 42.5754L56.529 43.9974Z" fill="#31AA40"/>
<path d="M57.6506 39.8899L55.5831 38.4431L55.6904 40.2816L57.6506 39.8899Z" fill="#38B23E"/>
<path d="M56.2311 42.5754L57.7108 42.8167L57.1913 41.3632L56.2311 42.5754Z" fill="#32AB40"/>
<path d="M55.583 38.4432L56.5014 37.5003L54.8445 37.3843L55.583 38.4432Z" fill="#3BB43E"/>
<path d="M51.212 37.5492L50.1023 36.7808L50.7131 38.7156L51.212 37.5492Z" fill="#3CB53D"/>
<path d="M57.6506 39.8899L57.7265 38.4248L55.5831 38.4431L57.6506 39.8899Z" fill="#38B23E"/>
<path d="M49.7684 32.5818L51.3246 32.2868L50.2506 31.083L49.7684 32.5818Z" fill="#4FBE37"/>
<path d="M52.8132 38.7271L53.6333 36.9235L52.291 36.7343L52.8132 38.7271Z" fill="#39B23E"/>
<path d="M50.1941 35.4403L50.8352 33.8538L49.1947 34.0485L50.1941 35.4403Z" fill="#43BA3B"/>
<path d="M52.8135 38.727L50.7132 38.7155L51.1991 39.8873L52.8135 38.727Z" fill="#39B23E"/>
<path d="M50.1022 36.7808L48.9939 37.8526L50.713 38.7156L50.1022 36.7808Z" fill="#3EB73C"/>
<path d="M48.4063 40.6026L47.8081 42.5682L48.9465 41.8374L48.4063 40.6026Z" fill="#32AC40"/>
<path d="M49.7902 43.0223L48.9465 41.8374L47.8081 42.5683L49.7902 43.0223Z" fill="#2EA741"/>
<path d="M37.1179 23.3681L38.2843 24.3208L38.5194 22.8094L37.1179 23.3681Z" fill="#76C92B"/>
<path d="M38.6786 26.0684L38.2841 24.321L37.0469 25.2317L38.6786 26.0684Z" fill="#6EC72D"/>
<path d="M36.9433 21.3423L37.1177 23.3683L38.5192 22.8095L36.9433 21.3423Z" fill="#7CCB29"/>
<path d="M37.0469 25.2316L37.1177 23.3682L35.6802 23.828L37.0469 25.2316Z" fill="#6FC72D"/>
<path d="M34.2112 20.9557L32.4006 21.5897L34.1064 22.6581L34.2112 20.9557Z" fill="#78CA2A"/>
<path d="M33.4366 27.1136L32.8997 25.0597L31.6587 25.9396L33.4366 27.1136Z" fill="#63C431"/>
<path d="M27.7437 22.378L28.5 24.1804L29.1714 22.4743L27.7437 22.378Z" fill="#67C530"/>
<path d="M34.2492 25.7644L34.1631 24.2119L32.8995 25.0596L34.2492 25.7644Z" fill="#6AC62F"/>
<path d="M32.4006 21.5896L34.2112 20.9556L32.8944 19.7471L32.4006 21.5896Z" fill="#72C82C"/>
<path d="M29.9354 25.3152L30.6571 23.5604L28.5003 24.1805L29.9354 25.3152Z" fill="#64C431"/>
<path d="M27.5576 25.1483L28.5 24.1805L26.5241 23.1214L27.5576 25.1483Z" fill="#62C331"/>
<path d="M31.6061 24.5637L29.9351 25.3151L31.6584 25.9395L31.6061 24.5637Z" fill="#69C52F"/>
<path d="M30.7296 21.9174L28.4189 20.8019L29.1716 22.4742L30.7296 21.9174Z" fill="#6DC62E"/>
<path d="M32.4839 23.4945L34.1064 22.6581L32.4006 21.5897L32.4839 23.4945Z" fill="#6EC72D"/>
<path d="M30.6568 23.5604L29.9351 25.3152L31.6061 24.5637L30.6568 23.5604Z" fill="#6AC62F"/>
<path d="M28.1566 29.1019L29.2249 28.3076L28.0449 27.7258L28.1566 29.1019Z" fill="#59C134"/>
<path d="M34.1633 24.2119L32.484 23.4944L32.8998 25.0596L34.1633 24.2119Z" fill="#6FC72D"/>
<path d="M31.6061 24.5636L32.4837 23.4944L30.6568 23.5602L31.6061 24.5636Z" fill="#69C52F"/>
<path d="M31.6585 25.9395L32.8995 25.0596L31.6062 24.5637L31.6585 25.9395Z" fill="#65C430"/>
<path d="M32.4838 23.4944L31.6062 24.5636L32.8995 25.0596L32.4838 23.4944Z" fill="#6EC72D"/>
<path d="M27.5578 25.1483L29.9353 25.3152L28.5002 24.1805L27.5578 25.1483Z" fill="#62C331"/>
<path d="M28.0087 26.4178L28.0448 27.7257L30.2999 26.9798L28.0087 26.4178Z" fill="#60C332"/>
<path d="M30.6567 20.2746L28.4189 20.802L30.7296 21.9175L30.6567 20.2746Z" fill="#6FC72D"/>
<path d="M32.8942 19.7474L30.6564 20.2748L31.8842 20.4669L32.8942 19.7474Z" fill="#78CA2A"/>
<path d="M30.7294 21.9175L31.8842 20.4668L30.6564 20.2746L30.7294 21.9175Z" fill="#6DC62E"/>
<path d="M34.9369 27.1984L34.2492 25.7644L33.4364 27.1136L34.9369 27.1984Z" fill="#65C430"/>
<path d="M37.0472 25.2316L35.6805 23.8281L35.6025 25.261L37.0472 25.2316Z" fill="#6FC72D"/>
<path d="M31.9996 27.7737L33.6456 28.672L33.4365 27.1136L31.9996 27.7737Z" fill="#60C332"/>
<path d="M40.8558 30.8903L41.4678 29.4239L39.3813 30.2776L40.8558 30.8903Z" fill="#5AC134"/>
<path d="M34.9368 27.1984L35.6022 25.261L34.249 25.7644L34.9368 27.1984Z" fill="#65C430"/>
<path d="M36.3549 26.7032L35.9706 28.282L37.4502 27.8016L36.3549 26.7032Z" fill="#69C52F"/>
<path d="M38.5246 29.173L37.3171 29.8849L38.2086 30.8101L38.5246 29.173Z" fill="#60C332"/>
<path d="M38.6785 26.0682L37.4499 27.8015L39.0053 27.8628L38.6785 26.0682Z" fill="#6EC72D"/>
<path d="M35.9703 28.2819L35.7303 29.84L37.3169 29.8848L35.9703 28.2819Z" fill="#61C332"/>
<path d="M39.7057 40.5572L41.3859 39.9946L40.1929 39.2364L39.7057 40.5572Z" fill="#33AD40"/>
<path d="M38.5245 29.173L40.4537 28.3058L39.0055 27.8628L38.5245 29.173Z" fill="#60C332"/>
<path d="M38.2085 30.81L39.2999 31.6116L39.3813 30.2777L38.2085 30.81Z" fill="#59C134"/>
<path d="M33.6457 28.6719L32.2917 29.1823L33.54 29.9722L33.6457 28.6719Z" fill="#5EC233"/>
<path d="M39.2999 31.6117L38.2085 30.8101L38.0395 32.0796L39.2999 31.6117Z" fill="#55BF35"/>
<path d="M48.1574 32.9717L46.6352 32.992L47.5705 34.3433L48.1574 32.9717Z" fill="#4FBE37"/>
<path d="M50.8606 27.9397L50.41 29.4824L51.7769 28.9986L50.8606 27.9397Z" fill="#64C431"/>
<path d="M51.3246 32.2869L53.4501 32.1585L51.9156 30.6923L51.3246 32.2869Z" fill="#50BE37"/>
<path d="M51.9155 30.6921L50.4099 29.4824L50.2504 31.0829L51.9155 30.6921Z" fill="#57C035"/>
<path d="M49.516 28.3473L49.0549 29.9979L50.41 29.4824L49.516 28.3473Z" fill="#63C431"/>
<path d="M50.2504 31.0829L50.41 29.4824L49.0549 29.9979L50.2504 31.0829Z" fill="#57C035"/>
<path d="M48.1932 31.4818L50.2505 31.0829L49.055 29.998L48.1932 31.4818Z" fill="#57C035"/>
<path d="M50.2504 31.0831L51.3244 32.2869L51.9155 30.6923L50.2504 31.0831Z" fill="#57C035"/>
<path d="M52.4745 33.6508L54.392 34.9275L53.9418 33.536L52.4745 33.6508Z" fill="#4ABC39"/>
<path d="M53.2225 30.8683L53.45 32.1584L54.6788 31.9042L53.2225 30.8683Z" fill="#55BF35"/>
<path d="M52.4745 33.6508L53.9418 33.536L53.4499 32.1584L52.4745 33.6508Z" fill="#4ABC39"/>
<path d="M56.1843 31.873L56.9959 30.1711L55.4062 30.8885L56.1843 31.873Z" fill="#4FBE37"/>
<path d="M52.4747 33.6508L53.4501 32.1584L51.3246 32.2867L52.4747 33.6508Z" fill="#4ABC39"/>
<path d="M55.4063 30.8885L53.7943 29.6882L53.2225 30.8684L55.4063 30.8885Z" fill="#54BF36"/>
<path d="M37.0824 45.8611L38.8426 46.7042L38.1422 45.186L37.0824 45.8611Z" fill="#2DA345"/>
<path d="M35.8216 43.4879L34.965 42.4843L34.2082 43.9584L35.8216 43.4879Z" fill="#30A941"/>
<path d="M42.3136 44.5263L39.7694 45.6077L40.8457 46.5598L42.3136 44.5263Z" fill="#2CA248"/>
<path d="M38.1422 45.1859L39.6649 44.1799L37.7948 43.552L38.1422 45.1859Z" fill="#2DA444"/>
<path d="M45.9221 34.439L44.5432 33.5903L43.4964 34.5525L45.9221 34.439Z" fill="#49BC39"/>
<path d="M47.5703 34.3433L49.1945 34.0485L48.1572 32.9717L47.5703 34.3433Z" fill="#49BC39"/>
<path d="M47.0772 39.9378L45.2256 40.8656L46.4542 41.28L47.0772 39.9378Z" fill="#34AE3F"/>
<path d="M44.7273 39.6758L44.1985 41.653L45.2256 40.8656L44.7273 39.6758Z" fill="#34AE40"/>
<path d="M39.4078 34.1823L38.1487 35.7719L40.085 35.9979L39.4078 34.1823Z" fill="#4ABC39"/>
<path d="M42.3136 44.5263L43.1827 43.2689L42.0105 42.2836L42.3136 44.5263Z" fill="#2CA248"/>
<path d="M39.7057 40.5573L37.7952 41.1385L39.3659 42.3651L39.7057 40.5573Z" fill="#33AD40"/>
<path d="M40.7119 43.0781L42.3136 44.5263L42.0105 42.2836L40.7119 43.0781Z" fill="#2DA641"/>
<path d="M40.9107 41.351L43.1299 40.3128L41.3859 39.9947L40.9107 41.351Z" fill="#31AA40"/>
<path d="M39.366 42.3652L40.7118 43.0783L40.9109 41.3511L39.366 42.3652Z" fill="#2FA941"/>
<path d="M39.7405 37.9036L41.4622 37.227L40.085 35.9979L39.7405 37.9036Z" fill="#3BB53E"/>
<path d="M40.9108 41.351L41.3859 39.9947L39.7057 40.5572L40.9108 41.351Z" fill="#31AA40"/>
<path d="M40.9109 41.351L39.7058 40.5573L39.366 42.3651L40.9109 41.351Z" fill="#31AA40"/>
<path d="M43.1299 40.3128L40.9107 41.351L42.0103 42.2836L43.1299 40.3128Z" fill="#32AD40"/>
<path d="M40.1929 39.2364L38.2357 39.1495L39.7057 40.5572L40.1929 39.2364Z" fill="#37B13F"/>
<path d="M39.3661 42.3651L37.7954 41.1385L37.1126 42.3452L39.3661 42.3651Z" fill="#2FA941"/>
<path d="M42.3133 44.5263L40.7115 43.0781L39.6648 44.18L42.3133 44.5263Z" fill="#2CA248"/>
<path d="M40.911 41.3511L40.7119 43.0783L42.0105 42.2838L40.911 41.3511Z" fill="#31AA40"/>
<path d="M35.9414 41.5947L37.7953 41.1385L36.3712 39.7466L35.9414 41.5947Z" fill="#32AC40"/>
<path d="M37.1126 42.3452L37.795 43.5521L39.3661 42.3651L37.1126 42.3452Z" fill="#31AA40"/>
<path d="M35.8962 45.4423L36.7784 44.4306L35.822 43.4878L35.8962 45.4423Z" fill="#2EA542"/>
<path d="M39.6649 44.1801L39.3659 42.3652L37.7948 43.5522L39.6649 44.1801Z" fill="#2EA442"/>
<path d="M36.7783 44.4305L38.1423 45.1859L37.7949 43.552L36.7783 44.4305Z" fill="#2DA641"/>
<path d="M36.9361 47.103L37.0823 45.8611L35.896 45.4422L36.9361 47.103Z" fill="#2DA149"/>
<path d="M60.1238 40.4159L58.979 39.2028L58.7744 40.6763L60.1238 40.4159Z" fill="#39B23E"/>
<path d="M58.9789 39.2029L60.1236 40.416L60.0157 38.1295L58.9789 39.2029Z" fill="#3BB43E"/>
<path d="M57.1912 41.3632L58.7742 40.6762L57.6505 39.8899L57.1912 41.3632Z" fill="#35AE3F"/>
<path d="M59.4284 36.6657L57.7267 38.4249L60.0159 38.1295L59.4284 36.6657Z" fill="#41B83C"/>
<path d="M57.6506 39.8899L58.7743 40.6763L58.979 39.2028L57.6506 39.8899Z" fill="#38B23E"/>
<path d="M60.7738 34.6111L60.1321 33.2725L59.3846 34.8152L60.7738 34.6111Z" fill="#47BB3A"/>
<path d="M55.9199 34.4387L55.7256 36.4387L57.5246 34.4048L55.9199 34.4387Z" fill="#47BB3A"/>
<path d="M60.0159 38.1294L57.7267 38.4248L58.9791 39.2028L60.0159 38.1294Z" fill="#3EB63D"/>
<path d="M57.7265 38.4249L57.7041 36.958L56.5014 37.5004L57.7265 38.4249Z" fill="#3CB53D"/>
<path d="M29.1716 22.4743L30.657 23.5603L30.7296 21.9174L29.1716 22.4743Z" fill="#6AC62F"/>
<path d="M28.5 24.1804L27.7437 22.378L26.5241 23.1213L28.5 24.1804Z" fill="#65C430"/>
<path d="M28.4187 20.8019L27.7437 22.378L29.1714 22.4742L28.4187 20.8019Z" fill="#6AC62F"/>
<path d="M32.4837 23.4945L30.7294 21.9174L30.6568 23.5603L32.4837 23.4945Z" fill="#6EC72D"/>
<path d="M31.8843 20.4668L30.7295 21.9175L32.4005 21.5897L31.8843 20.4668Z" fill="#73C82C"/>
<path d="M29.9353 25.3152L27.5578 25.1484L28.0088 26.418L29.9353 25.3152Z" fill="#64C431"/>
<path d="M35.0109 31.9884L35.8642 33.7625L36.2123 31.644L35.0109 31.9884Z" fill="#51BE37"/>
<path d="M42.1098 34.2206L43.4965 34.5525L43.8518 32.4193L42.1098 34.2206Z" fill="#4ABC39"/>
<path d="M38.4891 33.2815L38.0395 32.0796L37.3852 33.9464L38.4891 33.2815Z" fill="#4DBD38"/>
<path d="M43.0496 37.1234L44.0348 38.3638L45.167 36.4894L43.0496 37.1234Z" fill="#3DB63D"/>
<path d="M40.4537 28.3058L38.5245 29.173L39.3814 30.2777L40.4537 28.3058Z" fill="#66C430"/>
<path d="M37.4499 27.8016L38.5243 29.173L39.0053 27.8628L37.4499 27.8016Z" fill="#65C430"/>
<path d="M32.9048 36.146L33.0698 34.6208L31.3775 35.2117L32.9048 36.146Z" fill="#42B93B"/>
<path d="M34.4492 36.1565L34.6093 34.6356L33.0696 34.6209L34.4492 36.1565Z" fill="#42B93B"/>
<path d="M38.5244 29.173L38.2085 30.8101L39.3813 30.2778L38.5244 29.173Z" fill="#60C332"/>
<path d="M36.2123 31.6438L38.2086 30.8099L37.317 29.8847L36.2123 31.6438Z" fill="#54BF36"/>
<path d="M46.6351 32.992L45.9221 34.4391L47.5704 34.3433L46.6351 32.992Z" fill="#4FBE37"/>
<path d="M51.3245 32.2868L50.8353 33.8539L52.4747 33.6508L51.3245 32.2868Z" fill="#50BE37"/>
<path d="M48.1932 31.4819L49.7683 32.5818L50.2505 31.083L48.1932 31.4819Z" fill="#57C035"/>
<path d="M50.8352 33.8538L49.7682 32.5817L49.1947 34.0485L50.8352 33.8538Z" fill="#4ABC39"/>
<path d="M45.9221 34.4391L46.3711 35.9872L47.5704 34.3433L45.9221 34.4391Z" fill="#49BC39"/>
<path d="M47.3479 37.1739L48.7946 36.4358L47.683 35.6776L47.3479 37.1739Z" fill="#3DB63D"/>
<path d="M49.7681 32.5817L48.1573 32.9716L49.1946 34.0485L49.7681 32.5817Z" fill="#4FBE37"/>
<path d="M46.6352 32.9918L48.1574 32.9715L48.1931 31.4817L46.6352 32.9918Z" fill="#4FBE37"/>
<path d="M49.5263 39.1818L48.9938 37.8527L47.7924 38.6419L49.5263 39.1818Z" fill="#37B13F"/>
<path d="M50.1023 36.7808L52.1326 35.3972L50.1942 35.4404L50.1023 36.7808Z" fill="#3EB73C"/>
<path d="M50.713 38.7156L48.9939 37.8527L49.5264 39.1818L50.713 38.7156Z" fill="#38B23E"/>
<path d="M47.3479 37.1739L48.9937 37.8525L48.7946 36.4358L47.3479 37.1739Z" fill="#3DB63D"/>
<path d="M51.3246 32.2868L49.7684 32.5818L50.8354 33.8539L51.3246 32.2868Z" fill="#50BE37"/>
<path d="M52.4748 33.6509L52.1326 35.3972L54.3922 34.9276L52.4748 33.6509Z" fill="#4ABC39"/>
<path d="M50.194 35.4403L49.1946 34.0485L48.7946 36.4358L50.194 35.4403Z" fill="#43BA3B"/>
<path d="M52.1325 35.3972L52.4747 33.6509L50.8353 33.8539L52.1325 35.3972Z" fill="#43BA3B"/>
<path d="M54.392 34.9274L54.5492 36.1265L55.7255 36.4387L54.392 34.9274Z" fill="#45BB3A"/>
<path d="M58.2244 35.639L55.7256 36.4387L57.7042 36.9578L58.2244 35.639Z" fill="#43BA3B"/>
<path d="M50.1021 36.7808L50.194 35.4404L48.7946 36.4358L50.1021 36.7808Z" fill="#3EB73C"/>
<path d="M52.1327 35.3971L50.8354 33.8538L50.1943 35.4403L52.1327 35.3971Z" fill="#43BA3B"/>
<path d="M55.9198 34.4387L53.9419 33.536L54.3921 34.9275L55.9198 34.4387Z" fill="#47BB3A"/>
<path d="M54.6788 31.9041L53.9419 33.5359L55.4483 32.8889L54.6788 31.9041Z" fill="#50BE37"/>
<path d="M48.9938 37.8525L50.1021 36.7807L48.7946 36.4358L48.9938 37.8525Z" fill="#3AB43E"/>
<path d="M50.1023 36.7807L51.212 37.5491L52.2912 36.7342L50.1023 36.7807Z" fill="#3EB73C"/>
<path d="M56.1845 31.8731L55.4064 30.8886L54.6788 31.9043L56.1845 31.8731Z" fill="#4FBE37"/>
<path d="M55.6256 27.261L53.9512 27.1566L54.4587 28.4581L55.6256 27.261Z" fill="#61C332"/>
<path d="M53.4499 32.1584L53.2224 30.8683L51.9155 30.6922L53.4499 32.1584Z" fill="#4FBE37"/>
<path d="M54.4585 28.458L53.7942 29.688L55.7837 28.9229L54.4585 28.458Z" fill="#5EC233"/>
<path d="M37.795 43.5521L37.1126 42.3452L35.822 43.4878L37.795 43.5521Z" fill="#2EA741"/>
<path d="M28.4528 46.7225L29.8656 48.3302L29.7798 46.9885L28.4528 46.7225Z" fill="#31A940"/>
<path d="M42.3136 44.5264L43.1947 45.7099L43.6291 44.4873L42.3136 44.5264Z" fill="#2CA248"/>
<path d="M44.1988 41.6531L43.1827 43.269L44.6713 43.6443L44.1988 41.6531Z" fill="#2FA941"/>
<path d="M44.6711 43.6443L43.6289 44.4873L44.7551 45.143L44.6711 43.6443Z" fill="#2CA345"/>
<path d="M42.3136 44.5263L43.6291 44.4872L43.1828 43.2689L42.3136 44.5263Z" fill="#2CA248"/>
<path d="M34.1559 40.2118L33.6428 42.4018L34.965 42.4841L34.1559 40.2118Z" fill="#38B13F"/>
<path d="M35.8217 43.4879L35.9413 41.5948L34.9651 42.4842L35.8217 43.4879Z" fill="#30A941"/>
<path d="M37.7953 41.1385L35.9414 41.5948L37.1126 42.3452L37.7953 41.1385Z" fill="#32AC40"/>
<path d="M35.822 43.4879L37.1126 42.3452L35.9415 41.5948L35.822 43.4879Z" fill="#30A941"/>
<path d="M33.5997 38.3945L34.8902 38.2261L34.4493 36.1565L33.5997 38.3945Z" fill="#3CB53D"/>
<path d="M31.6127 36.6272L31.3774 35.2118L30.3912 35.9898L31.6127 36.6272Z" fill="#41B83C"/>
<path d="M35.3724 40.4909L35.9412 41.5947L36.371 39.7466L35.3724 40.4909Z" fill="#36AF3F"/>
<path d="M33.6431 42.4019L32.325 40.943L31.6952 42.8209L33.6431 42.4019Z" fill="#32AC40"/>
<path d="M34.9651 42.4841L35.9413 41.5947L35.3725 40.4909L34.9651 42.4841Z" fill="#32AB40"/>
<path d="M34.2082 43.9584L34.965 42.4843L33.6428 42.4019L34.2082 43.9584Z" fill="#30A941"/>
<path d="M35.3727 40.4909L34.8902 38.2261L34.1561 40.2119L35.3727 40.4909Z" fill="#36AF3F"/>
<path d="M32.5445 37.6378L31.2723 38.1514L32.6772 39.3063L32.5445 37.6378Z" fill="#3EB63D"/>
<path d="M34.8901 38.2261L35.3725 40.4909L36.371 39.7466L34.8901 38.2261Z" fill="#3CB53D"/>
<path d="M34.9652 42.4841L35.3727 40.4909L34.1561 40.2118L34.9652 42.4841Z" fill="#32AB40"/>
<path d="M36.7782 44.4306L35.896 45.4423L37.0823 45.8611L36.7782 44.4306Z" fill="#2DA641"/>
<path d="M37.795 43.5522L35.822 43.4879L36.7784 44.4307L37.795 43.5522Z" fill="#2EA741"/>
<path d="M38.8425 46.7042L37.0823 45.8611L36.936 47.103L38.8425 46.7042Z" fill="#2DA04A"/>
<path d="M36.7783 44.4306L37.0825 45.8611L38.1423 45.1861L36.7783 44.4306Z" fill="#2DA641"/>
<path d="M39.3 31.6116L40.8559 30.8903L39.3814 30.2777L39.3 31.6116Z" fill="#55BF35"/>
<path d="M42.6563 31.7615L40.8559 30.8904L40.3818 32.4062L42.6563 31.7615Z" fill="#57C035"/>
<path d="M39.2999 31.6115L38.0395 32.0795L38.489 33.2814L39.2999 31.6115Z" fill="#55BF35"/>
<path d="M40.8559 30.8904L39.3 31.6116L40.3819 32.4062L40.8559 30.8904Z" fill="#5AC134"/>
<path d="M32.4388 30.6835L33.3899 31.8157L33.5398 29.9721L32.4388 30.6835Z" fill="#55BF35"/>
<path d="M35.0109 31.9884L36.2123 31.644L34.5117 30.8499L35.0109 31.9884Z" fill="#51BE37"/>
<path d="M47.3482 37.1739L47.6833 35.6776L46.3713 35.9871L47.3482 37.1739Z" fill="#3DB63D"/>
<path d="M49.1948 34.0485L47.6833 35.6776L48.7948 36.4358L49.1948 34.0485Z" fill="#4ABC39"/>
<path d="M47.348 37.1739L46.3712 35.9871L45.3996 37.7657L47.348 37.1739Z" fill="#3DB63D"/>
<path d="M47.3479 37.174L47.7924 38.6419L48.9937 37.8526L47.3479 37.174Z" fill="#3DB63D"/>
<path d="M44.0186 35.8707L45.1667 36.4893L45.9221 34.439L44.0186 35.8707Z" fill="#42BA3B"/>
<path d="M43.1301 40.3129L44.0348 38.3638L42.5802 38.693L43.1301 40.3129Z" fill="#32AD40"/>
<path d="M53.45 32.1583L53.9419 33.5359L54.6787 31.9041L53.45 32.1583Z" fill="#4FBE37"/>
<path d="M53.7942 29.6882L51.9155 30.6923L53.2224 30.8684L53.7942 29.6882Z" fill="#5AC134"/>
<path d="M59.6992 31.8003L57.4445 31.8469L58.5985 33.0916L59.6992 31.8003Z" fill="#4FBE37"/>
<path d="M55.7837 28.9231L53.7942 29.6882L55.4062 30.8885L55.7837 28.9231Z" fill="#5BC133"/>
<path d="M57.3244 27.9398L55.6256 27.2609L55.7839 28.923L57.3244 27.9398Z" fill="#5DC233"/>
<path d="M51.2523 26.599L52.451 27.5969L52.8618 26.2369L51.2523 26.599Z" fill="#69C52F"/>
<path d="M34.2082 43.9584L35.8959 45.4423L35.8216 43.4878L34.2082 43.9584Z" fill="#30A941"/>
<path d="M32.5002 46.3127L34.0892 45.6088L32.5941 44.5874L32.5002 46.3127Z" fill="#2EA641"/>
<path d="M34.2085 43.9584L33.6431 42.4019L32.8322 43.3591L34.2085 43.9584Z" fill="#30A941"/>
<path d="M34.2082 43.9583L34.089 45.6088L35.8959 45.4422L34.2082 43.9583Z" fill="#30A941"/>
<path d="M32.5001 46.3127L32.594 44.5874L30.3547 45.3323L32.5001 46.3127Z" fill="#2EA641"/>
<path d="M33.6029 47.1403L31.7453 47.8696L33.57 48.5127L33.6029 47.1403Z" fill="#2EA443"/>
<path d="M31.6951 42.8209L31.2092 44.1736L32.8321 43.3591L31.6951 42.8209Z" fill="#33AC40"/>
<path d="M27.3776 45.0195L28.4529 46.7225L28.8545 45.2861L27.3776 45.0195Z" fill="#33AC40"/>
<path d="M32.5001 46.3128L30.3547 45.3324L31.0722 46.5891L32.5001 46.3128Z" fill="#2EA641"/>
<path d="M28.8545 45.2861L29.7798 46.9886L30.3549 45.3324L28.8545 45.2861Z" fill="#32AB40"/>
<path d="M38.489 33.2814L40.3818 32.4062L39.2999 31.6115L38.489 33.2814Z" fill="#4DBD38"/>
<path d="M38.2086 30.8101L36.2123 31.6439L38.0395 32.0796L38.2086 30.8101Z" fill="#59C134"/>
<path d="M31.0018 39.4884L30.6365 41.1367L32.3248 40.9429L31.0018 39.4884Z" fill="#3AB33E"/>
<path d="M33.6431 42.4019L34.1562 40.212L32.325 40.9431L33.6431 42.4019Z" fill="#32AC40"/>
<path d="M33.6456 28.6719L35.7304 29.84L35.9705 28.2818L33.6456 28.6719Z" fill="#5EC233"/>
<path d="M35.7304 29.84L34.5117 30.8497L36.2123 31.6438L35.7304 29.84Z" fill="#5BC133"/>
<path d="M35.0108 31.9884L34.5116 30.8499L33.3899 31.8159L35.0108 31.9884Z" fill="#51BE37"/>
<path d="M36.2579 35.5756L37.3851 33.9464L35.8641 33.7624L36.2579 35.5756Z" fill="#44BA3B"/>
<path d="M34.6093 34.6356L33.2743 33.406L33.0696 34.6209L34.6093 34.6356Z" fill="#47BB3A"/>
<path d="M33.2744 33.406L34.6094 34.6356L34.4789 33.112L33.2744 33.406Z" fill="#4BBC38"/>
<path d="M33.5398 29.9721L33.3899 31.8157L34.5116 30.8497L33.5398 29.9721Z" fill="#59C134"/>
<path d="M35.864 33.7625L35.0108 31.9884L34.4788 33.1121L35.864 33.7625Z" fill="#4ABC39"/>
<path d="M45.2257 40.8655L45.9888 39.0418L44.7274 39.6758L45.2257 40.8655Z" fill="#31AA40"/>
<path d="M47.7926 38.6418L45.9889 39.0418L47.0773 39.9377L47.7926 38.6418Z" fill="#37B23F"/>
<path d="M43.4964 34.5526L44.0186 35.8707L45.9221 34.439L43.4964 34.5526Z" fill="#49BC39"/>
<path d="M40.765 33.7651L41.6111 35.6868L42.1097 34.2208L40.765 33.7651Z" fill="#4BBC38"/>
<path d="M44.7274 39.6758L45.3995 37.7657L44.0345 38.3637L44.7274 39.6758Z" fill="#34AE40"/>
<path d="M44.0345 38.3638L45.3995 37.7658L45.1668 36.4894L44.0345 38.3638Z" fill="#38B33E"/>
<path d="M56.1845 31.873L54.6788 31.9042L55.4484 32.8889L56.1845 31.873Z" fill="#4FBE37"/>
<path d="M53.2225 30.8684L54.6788 31.9043L55.4063 30.8886L53.2225 30.8684Z" fill="#55BF35"/>
<path d="M60.132 33.2725L59.6992 31.8003L58.5984 33.0916L60.132 33.2725Z" fill="#4BBC38"/>
<path d="M56.9959 30.1712L55.7837 28.9231L55.4062 30.8885L56.9959 30.1712Z" fill="#56C035"/>
<path d="M57.3242 27.9398L55.7837 28.9229L56.9959 30.171L57.3242 27.9398Z" fill="#5DC233"/>
<path d="M54.4586 28.4581L53.9511 27.1566L52.451 27.5969L54.4586 28.4581Z" fill="#5EC233"/>
<path d="M34.0891 45.6089L33.603 47.1404L34.9849 47.1762L34.0891 45.6089Z" fill="#2EA641"/>
<path d="M31.7453 47.8696L33.6029 47.1403L32.5 46.3127L31.7453 47.8696Z" fill="#2EA541"/>
<path d="M29.8656 48.3302L31.0723 46.589L29.7797 46.9885L29.8656 48.3302Z" fill="#2EA641"/>
<path d="M30.3548 45.3324L29.7797 46.9886L31.0723 46.5891L30.3548 45.3324Z" fill="#31AA40"/>
<path d="M36.6976 38.2061L38.2356 39.1494L38.0951 37.463L36.6976 38.2061Z" fill="#3BB43E"/>
<path d="M34.4492 36.1565L32.5444 37.6377L33.5996 38.3945L34.4492 36.1565Z" fill="#42B93B"/>
<path d="M30.6366 41.1368L28.989 40.5843L29.3754 42.2681L30.6366 41.1368Z" fill="#38B13F"/>
<path d="M29.7798 46.9886L28.8545 45.2861L28.4528 46.7225L29.7798 46.9886Z" fill="#2FA841"/>
<path d="M30.6365 41.1368L31.695 42.8209L32.3248 40.943L30.6365 41.1368Z" fill="#38B13F"/>
<path d="M32.9046 36.146L31.6125 36.6271L32.5444 37.6377L32.9046 36.146Z" fill="#42B93B"/>
<path d="M32.3247 40.943L32.6771 39.3063L31.0017 39.4885L32.3247 40.943Z" fill="#36AF3F"/>
<path d="M45.9222 34.439L45.1669 36.4893L46.3712 35.9871L45.9222 34.439Z" fill="#49BC39"/>
<path d="M45.167 36.4893L44.0189 35.8708L43.0496 37.1234L45.167 36.4893Z" fill="#3FB83C"/>
<path d="M57.4444 31.8469L56.1843 31.873L56.8577 33.1453L57.4444 31.8469Z" fill="#4FBE37"/>
<path d="M57.4445 31.8469L59.6992 31.8003L58.5508 30.8208L57.4445 31.8469Z" fill="#4FBE37"/>
<path d="M34.4492 36.1565L33.0696 34.6209L32.9046 36.1461L34.4492 36.1565Z" fill="#42B93B"/>
<path d="M29.5938 35.0214L31.3774 35.2117L30.6516 33.5821L29.5938 35.0214Z" fill="#46BB3A"/>
<path d="M31.0019 39.4884L29.4608 39.0678L28.989 40.5842L31.0019 39.4884Z" fill="#3AB33E"/>
<path d="M31.6951 42.8209L30.6365 41.1368L29.3754 42.2682L31.6951 42.8209Z" fill="#33AC40"/>
<path d="M34.2084 43.9584L32.8322 43.3591L32.5942 44.5874L34.2084 43.9584Z" fill="#30A941"/>
<path d="M33.6431 42.4019L31.6952 42.8209L32.8322 43.3591L33.6431 42.4019Z" fill="#32AC40"/>
<path d="M32.8321 43.3591L31.2092 44.1736L32.5941 44.5874L32.8321 43.3591Z" fill="#32AB40"/>
<path d="M29.851 43.6396L31.6951 42.8208L29.3754 42.2681L29.851 43.6396Z" fill="#33AC40"/>
<path d="M36.2579 35.5755L34.6093 34.6356L34.4492 36.1565L36.2579 35.5755Z" fill="#44BA3B"/>
<path d="M34.4788 33.112L34.6092 34.6356L35.864 33.7623L34.4788 33.112Z" fill="#4CBD38"/>
<path d="M36.2579 35.5754L34.4492 36.1564L35.7138 36.9719L36.2579 35.5754Z" fill="#44BA3B"/>
<path d="M38.2357 39.1496L37.7952 41.1385L39.7057 40.5573L38.2357 39.1496Z" fill="#37B13F"/>
<path d="M35.7138 36.9721L34.4492 36.1566L34.8901 38.2262L35.7138 36.9721Z" fill="#3EB73C"/>
<path d="M37.3853 33.9462L36.2581 35.5755L38.1488 35.7717L37.3853 33.9462Z" fill="#4ABC39"/>
<path d="M41.2827 38.5152L41.4622 37.2269L39.7405 37.9035L41.2827 38.5152Z" fill="#38B23E"/>
<path d="M38.0952 37.463L38.2357 39.1494L39.7404 37.9034L38.0952 37.463Z" fill="#3DB63D"/>
<path d="M36.6977 38.2061L34.8901 38.226L36.371 39.7465L36.6977 38.2061Z" fill="#3BB43E"/>
<path d="M36.2579 35.5755L35.7137 36.972L38.0952 37.4631L36.2579 35.5755Z" fill="#44BA3B"/>
<path d="M37.3852 33.9462L38.1487 35.7717L39.4078 34.1822L37.3852 33.9462Z" fill="#4ABC39"/>
<path d="M36.2123 31.6439L37.3852 33.9464L38.0395 32.0796L36.2123 31.6439Z" fill="#54BF36"/>
<path d="M36.2579 35.5756L35.864 33.7624L34.6093 34.6357L36.2579 35.5756Z" fill="#44BA3B"/>
<path d="M36.2122 31.6439L35.8641 33.7624L37.3851 33.9464L36.2122 31.6439Z" fill="#54BF36"/>
<path d="M41.2828 38.5152L41.3861 39.9946L42.5802 38.6928L41.2828 38.5152Z" fill="#38B23E"/>
<path d="M38.2357 39.1495L40.1929 39.2365L39.7404 37.9035L38.2357 39.1495Z" fill="#37B13F"/>
<path d="M40.0849 35.9979L38.0952 37.4632L39.7404 37.9036L40.0849 35.9979Z" fill="#42B93B"/>
<path d="M37.7951 41.1385L38.2356 39.1496L36.371 39.7466L37.7951 41.1385Z" fill="#32AC40"/>
<path d="M33.3899 31.8157L34.4788 33.1119L35.0108 31.9882L33.3899 31.8157Z" fill="#51BE37"/>
<path d="M32.232 32.7385L33.0697 34.6208L33.2744 33.406L32.232 32.7385Z" fill="#4DBD38"/>
<path d="M56.8579 33.1453L56.1845 31.873L55.4484 32.8889L56.8579 33.1453Z" fill="#4BBC38"/>
<path d="M56.9959 30.1711L56.1843 31.873L57.4444 31.847L56.9959 30.1711Z" fill="#56C035"/>
<path d="M56.8579 33.1453L55.4484 32.8889L55.9199 34.4387L56.8579 33.1453Z" fill="#4BBC38"/>
<path d="M59.3844 34.8151L58.2243 35.6391L59.4282 36.6656L59.3844 34.8151Z" fill="#46BB3A"/>
<path d="M58.293 26.3829L57.3243 27.9398L58.9333 27.7639L58.293 26.3829Z" fill="#61C332"/>
<path d="M58.5508 30.8208L56.996 30.1711L57.4445 31.8469L58.5508 30.8208Z" fill="#53BF36"/>
<path d="M57.3244 27.9398L56.996 30.171L58.5193 29.3178L57.3244 27.9398Z" fill="#5DC233"/>
<path d="M32.325 40.943L34.1562 40.2119L32.6773 39.3063L32.325 40.943Z" fill="#36AF3F"/>
<path d="M33.5997 38.3945L34.1561 40.212L34.8902 38.2262L33.5997 38.3945Z" fill="#3CB53D"/>
<path d="M32.5444 37.6378L32.6771 39.3063L33.5996 38.3945L32.5444 37.6378Z" fill="#3EB63D"/>
<path d="M34.156 40.212L33.5996 38.3945L32.6771 39.3063L34.156 40.212Z" fill="#38B13F"/>
<path d="M32.2319 32.7385L30.6515 33.5821L31.3773 35.2117L32.2319 32.7385Z" fill="#4DBD38"/>
<path d="M32.5444 37.6378L34.4492 36.1565L32.9046 36.1461L32.5444 37.6378Z" fill="#3EB63D"/>
<path d="M32.2321 32.7385L31.3775 35.2117L33.0698 34.6208L32.2321 32.7385Z" fill="#4DBD38"/>
<path d="M31.3774 35.2116L29.5938 35.0214L30.3911 35.9896L31.3774 35.2116Z" fill="#45BB3A"/>
<path d="M30.763 31.9064L30.6515 33.5822L32.2319 32.7385L30.763 31.9064Z" fill="#50BE37"/>
<path d="M29.286 33.6953L30.6516 33.5821L29.2283 31.7725L29.286 33.6953Z" fill="#4ABC39"/>
<path d="M27.3681 36.4779L28.7426 36.144L27.1151 35.0155L27.3681 36.4779Z" fill="#43BA3B"/>
<path d="M30.7631 31.9065L32.232 32.7385L32.4388 30.6836L30.7631 31.9065Z" fill="#50BE37"/>
<path d="M29.2249 28.3076L30.3 26.9799L28.0449 27.7258L29.2249 28.3076Z" fill="#5CC133"/>
<path d="M29.5939 35.0215L30.6517 33.5822L29.2861 33.6954L29.5939 35.0215Z" fill="#46BB3A"/>
<path d="M30.3911 35.9897L29.5938 35.0215L28.7426 36.144L30.3911 35.9897Z" fill="#43BA3B"/>
<path d="M30.2568 37.2334L31.2724 38.1514L31.6128 36.6271L30.2568 37.2334Z" fill="#40B73C"/>
<path d="M31.3775 35.2118L31.6128 36.6272L32.9048 36.1462L31.3775 35.2118Z" fill="#45BB3A"/>
<path d="M30.2568 37.2333L31.6128 36.6271L30.3913 35.9897L30.2568 37.2333Z" fill="#40B73C"/>
<path d="M32.232 32.7385L33.39 31.8158L32.4389 30.6836L32.232 32.7385Z" fill="#4DBD38"/>
<path d="M29.2283 31.7724L30.7631 31.9064L29.9624 30.4272L29.2283 31.7724Z" fill="#50BE37"/>
<path d="M29.2283 31.7725L30.6516 33.5822L30.7631 31.9064L29.2283 31.7725Z" fill="#50BE37"/>
<path d="M29.2858 33.6955L28.179 32.8932L27.1614 33.7144L29.2858 33.6955Z" fill="#4ABC39"/>
<path d="M33.6457 28.6719L33.54 29.9722L35.7306 29.84L33.6457 28.6719Z" fill="#5EC233"/>
<path d="M30.7631 31.9064L32.4388 30.6835L31.2409 30.172L30.7631 31.9064Z" fill="#50BE37"/>
<path d="M29.2283 31.7725L29.9624 30.4272L28.3257 30.4164L29.2283 31.7725Z" fill="#50BE37"/>
<path d="M29.2858 33.6953L29.2281 31.7725L28.179 32.893L29.2858 33.6953Z" fill="#4ABC39"/>
<path d="M28.1567 29.102L29.9625 30.4274L29.225 28.3077L28.1567 29.102Z" fill="#59C134"/>
<path d="M29.2282 31.7725L27.77 31.6266L28.1791 32.8931L29.2282 31.7725Z" fill="#50BE37"/>
<path d="M38.1486 35.7718L38.0952 37.4631L40.0849 35.9978L38.1486 35.7718Z" fill="#43BA3B"/>
<path d="M42.6562 31.7615L40.765 33.765L42.1097 34.2207L42.6562 31.7615Z" fill="#57C035"/>
<path d="M36.2581 35.5755L38.0954 37.4631L38.1488 35.7718L36.2581 35.5755Z" fill="#44BA3B"/>
<path d="M36.6977 38.2062L38.0952 37.4632L35.7137 36.972L36.6977 38.2062Z" fill="#3BB43E"/>
<path d="M55.4483 32.8889L53.9419 33.536L55.9198 34.4387L55.4483 32.8889Z" fill="#4CBD38"/>
<path d="M58.5985 33.0915L56.8578 33.1453L57.5246 34.4049L58.5985 33.0915Z" fill="#4BBC38"/>
<path d="M55.9198 34.4387L54.392 34.9274L55.7255 36.4387L55.9198 34.4387Z" fill="#47BB3A"/>
<path d="M57.5245 34.4049L56.8578 33.1453L55.9198 34.4387L57.5245 34.4049Z" fill="#47BB3A"/>
<path d="M54.5493 36.1266L52.1326 35.3972L53.6336 36.9235L54.5493 36.1266Z" fill="#41B93C"/>
<path d="M55.7254 36.4388L54.8445 37.3842L56.5014 37.5003L55.7254 36.4388Z" fill="#40B83C"/>
<path d="M56.8578 33.1453L58.5985 33.0916L57.4445 31.8469L56.8578 33.1453Z" fill="#4BBC38"/>
<path d="M59.3844 34.8152L58.5984 33.0916L57.5245 34.405L59.3844 34.8152Z" fill="#46BB3A"/>
<path d="M58.2243 35.639L59.3844 34.8151L57.5245 34.4049L58.2243 35.639Z" fill="#43BA3B"/>
<path d="M59.3846 34.8151L60.8679 36.0026L60.7738 34.611L59.3846 34.8151Z" fill="#46BB3A"/>
<path d="M55.7256 36.4387L58.2244 35.639L57.5246 34.4048L55.7256 36.4387Z" fill="#40B83C"/>
<path d="M57.7265 38.4249L59.4282 36.6657L57.7041 36.958L57.7265 38.4249Z" fill="#3CB53D"/>
<path d="M59.3845 34.8152L60.132 33.2725L58.5984 33.0916L59.3845 34.8152Z" fill="#46BB3A"/>
<path d="M60.1412 30.33L59.8211 28.8287L58.5191 29.3179L60.1412 30.33Z" fill="#54BF36"/>
<path d="M56.996 30.171L58.5508 30.8208L58.5193 29.3178L56.996 30.171Z" fill="#56C035"/>
<path d="M32.232 32.7385L33.2744 33.406L33.39 31.8158L32.232 32.7385Z" fill="#4DBD38"/>
<path d="M33.39 31.8158L33.2744 33.406L34.4789 33.112L33.39 31.8158Z" fill="#51BE37"/>
<path d="M34.9369 27.1984L35.9704 28.282L36.3547 26.7032L34.9369 27.1984Z" fill="#65C430"/>
<path d="M33.4366 27.1136L31.6587 25.9395L31.9998 27.7737L33.4366 27.1136Z" fill="#63C431"/>
<path d="M37.3852 33.9463L39.4078 34.1823L38.4891 33.2814L37.3852 33.9463Z" fill="#4ABC39"/>
<path d="M38.489 33.2814L39.4076 34.1823L40.3818 32.4062L38.489 33.2814Z" fill="#4DBD38"/>
<path d="M40.193 39.2365L41.2827 38.5152L39.7405 37.9035L40.193 39.2365Z" fill="#37B13F"/>
<path d="M40.0851 35.9979L41.6114 35.6868L40.7652 33.7651L40.0851 35.9979Z" fill="#42B93B"/>
<path d="M40.382 32.4062L39.4078 34.1823L40.7652 33.765L40.382 32.4062Z" fill="#52BE36"/>
<path d="M40.0851 35.9979L40.7652 33.7651L39.4078 34.1823L40.0851 35.9979Z" fill="#42B93B"/>
<path d="M52.1326 35.3972L52.2913 36.7343L53.6336 36.9235L52.1326 35.3972Z" fill="#43BA3B"/>
<path d="M50.7132 38.7156L52.8135 38.7271L51.2121 37.5492L50.7132 38.7156Z" fill="#38B23E"/>
<path d="M57.7265 38.4248L56.5015 37.5003L55.5831 38.4432L57.7265 38.4248Z" fill="#3CB53D"/>
<path d="M57.7042 36.9579L55.7256 36.4388L56.5015 37.5003L57.7042 36.9579Z" fill="#3FB73C"/>
<path d="M35.7306 29.8401L33.54 29.9722L34.5118 30.8499L35.7306 29.8401Z" fill="#5BC133"/>
<path d="M32.2916 29.1824L33.6456 28.672L31.9996 27.7737L32.2916 29.1824Z" fill="#5BC133"/>
<path d="M43.0497 37.1234L42.5802 38.6929L44.0348 38.3638L43.0497 37.1234Z" fill="#3DB63D"/>
<path d="M44.0186 35.8707L43.4964 34.5526L41.6111 35.6867L44.0186 35.8707Z" fill="#42BA3B"/>
<path d="M41.386 39.9946L41.2827 38.5152L40.193 39.2364L41.386 39.9946Z" fill="#34AE3F"/>
<path d="M42.5801 38.6929L41.4623 37.227L41.2828 38.5153L42.5801 38.6929Z" fill="#37B23F"/>
<path d="M40.0851 35.9978L41.4623 37.2269L41.6114 35.6867L40.0851 35.9978Z" fill="#42B93B"/>
<path d="M41.6112 35.6867L41.4621 37.2269L43.0494 37.1233L41.6112 35.6867Z" fill="#43BA3B"/>
<path d="M52.1326 35.3971L54.5493 36.1266L54.3922 34.9275L52.1326 35.3971Z" fill="#43BA3B"/>
<path d="M54.8447 37.3843L54.5493 36.1266L53.6335 36.9235L54.8447 37.3843Z" fill="#3EB63D"/>
<path d="M50.1023 36.7808L52.2912 36.7343L52.1325 35.3972L50.1023 36.7808Z" fill="#3EB73C"/>
<path d="M52.8134 38.7271L52.2913 36.7343L51.2121 37.5492L52.8134 38.7271Z" fill="#39B23E"/>
<path d="M54.5491 36.1266L54.8445 37.3843L55.7254 36.4388L54.5491 36.1266Z" fill="#41B93C"/>
<path d="M52.8132 38.7271L54.8445 37.3843L53.6333 36.9235L52.8132 38.7271Z" fill="#39B23E"/>
<path d="M58.9333 27.7638L59.8214 28.8285L61.2448 27.6628L58.9333 27.7638Z" fill="#5CC133"/>
<path d="M27.8983 42.2708L28.9888 40.5844L26.9002 40.4926L27.8983 42.2708Z" fill="#38B03F"/>
<path d="M29.286 33.6954L27.1151 35.0156L29.5938 35.0215L29.286 33.6954Z" fill="#4ABC39"/>
<path d="M29.286 33.6954L27.1615 33.7142L27.1151 35.0155L29.286 33.6954Z" fill="#4ABC39"/>
<path d="M57.0985 24.3583L55.9607 23.0419L55.3298 24.2853L57.0985 24.3583Z" fill="#68C52F"/>
<path d="M53.192 18.2542L53.8494 20.9205L54.9467 19.7467L53.192 18.2542Z" fill="#81CC28"/>
<path d="M54.9469 19.7467L53.015 15.9668L53.1922 18.2543L54.9469 19.7467Z" fill="#78CA2A"/>
<path d="M53.015 15.9667L51.2778 16.0604L52.2101 17.1787L53.015 15.9667Z" fill="#88CF25"/>
<path d="M51.2778 16.0604L50.8801 17.8529L52.2101 17.1787L51.2778 16.0604Z" fill="#8ACF25"/>
<path d="M50.8801 17.853L53.1921 18.2543L52.2101 17.1788L50.8801 17.853Z" fill="#86CE26"/>
<path d="M51.0361 20.8474L49.6143 20.4198L50.0384 21.7887L51.0361 20.8474Z" fill="#7DCB29"/>
<path d="M53.192 18.2543L50.9595 19.4829L52.3301 20.3829L53.192 18.2543Z" fill="#81CC28"/>
<path d="M51.0969 22.7614L51.036 20.8475L50.0383 21.7887L51.0969 22.7614Z" fill="#78CA2A"/>
<path d="M52.3301 20.3829L50.9595 19.4829L51.0359 20.8474L52.3301 20.3829Z" fill="#7DCB29"/>
<path d="M48.6141 25.9446L47.1929 24.9292L47.4438 27.2378L48.6141 25.9446Z" fill="#6FC72D"/>
<path d="M50.0112 27.011L48.6141 25.9445L48.772 27.2543L50.0112 27.011Z" fill="#69C52F"/>
<path d="M51.2521 26.599L50.8605 27.9398L52.4509 27.5969L51.2521 26.599Z" fill="#69C52F"/>
<path d="M51.2021 24.7436L52.9569 24.8201L52.3947 23.4629L51.2021 24.7436Z" fill="#70C72D"/>
<path d="M60.182 25.0623L58.1984 25.0781L59.8233 26.4213L60.182 25.0623Z" fill="#62C331"/>
<path d="M55.6256 27.261L54.8755 25.8322L53.9512 27.1566L55.6256 27.261Z" fill="#61C332"/>
<path d="M55.7836 28.923L55.6253 27.2609L54.4584 28.4581L55.7836 28.923Z" fill="#5BC133"/>
<path d="M54.8754 25.8321L56.7956 26.0668L55.33 24.2853L54.8754 25.8321Z" fill="#67C530"/>
<path d="M58.9333 27.7639L57.3243 27.9398L58.5192 29.3179L58.9333 27.7639Z" fill="#5CC133"/>
<path d="M56.7957 26.0668L55.6256 27.2609L57.3244 27.9398L56.7957 26.0668Z" fill="#63C431"/>
<path d="M58.9331 27.7639L58.5191 29.3179L59.8211 28.8286L58.9331 27.7639Z" fill="#5CC133"/>
<path d="M58.293 26.3829L58.9333 27.7639L59.8234 26.4214L58.293 26.3829Z" fill="#61C332"/>
<path d="M58.5506 30.8207L59.699 31.8002L60.1411 30.3298L58.5506 30.8207Z" fill="#53BF36"/>
<path d="M59.1157 24.1392L58.1984 25.0781L60.182 25.0624L59.1157 24.1392Z" fill="#65C430"/>
<path d="M57.3243 27.9398L58.2929 26.3829L56.7955 26.0668L57.3243 27.9398Z" fill="#5DC233"/>
<path d="M58.9333 27.7639L61.2448 27.6629L59.8235 26.4214L58.9333 27.7639Z" fill="#5CC133"/>
<path d="M60.1412 30.3298L58.5191 29.3178L58.5506 30.8208L60.1412 30.3298Z" fill="#54BF36"/>
<path d="M61.2826 23.1042L59.6614 22.5113L59.1157 24.1392L61.2826 23.1042Z" fill="#63C431"/>
<path d="M55.9607 23.042L55.0253 22.0049L53.9764 23.8219L55.9607 23.042Z" fill="#6DC62E"/>
<path d="M29.8511 43.6397L28.8545 45.286L30.3549 45.3323L29.8511 43.6397Z" fill="#33AC40"/>
<path d="M29.8511 43.6398L31.2093 44.1736L31.6951 42.8209L29.8511 43.6398Z" fill="#33AC40"/>
<path d="M31.2093 44.1736L29.8511 43.6397L30.3548 45.3323L31.2093 44.1736Z" fill="#32AB40"/>
<path d="M28.3903 43.6537L29.3754 42.2681L27.8984 42.2707L28.3903 43.6537Z" fill="#34AD3F"/>
<path d="M27.3776 45.0194L28.8545 45.286L28.3905 43.6537L27.3776 45.0194Z" fill="#33AC40"/>
<path d="M29.3755 42.2681L28.3904 43.6537L29.8511 43.6397L29.3755 42.2681Z" fill="#36AF3F"/>
<path d="M29.8511 43.6397L28.3904 43.6537L28.8545 45.286L29.8511 43.6397Z" fill="#33AC40"/>
<path d="M43.8517 32.4193L43.4964 34.5525L44.5432 33.5903L43.8517 32.4193Z" fill="#54BF36"/>
<path d="M41.6111 35.6868L43.4964 34.5526L42.1098 34.2208L41.6111 35.6868Z" fill="#43BA3B"/>
<path d="M32.6771 39.3063L31.2722 38.1514L31.0017 39.4885L32.6771 39.3063Z" fill="#3AB33E"/>
<path d="M31.6126 36.6271L31.2723 38.1514L32.5445 37.6378L31.6126 36.6271Z" fill="#41B83C"/>
<path d="M29.4608 39.0678L27.8742 39.2587L28.9889 40.5842L29.4608 39.0678Z" fill="#3DB53D"/>
<path d="M31.0019 39.4884L28.989 40.5842L30.6366 41.1367L31.0019 39.4884Z" fill="#3AB33E"/>
<path d="M31.2722 38.1514L29.4607 39.0679L31.0018 39.4885L31.2722 38.1514Z" fill="#3EB63D"/>
<path d="M28.4359 37.5159L29.4607 39.0679L30.2566 37.2333L28.4359 37.5159Z" fill="#40B73C"/>
<path d="M28.9889 40.5844L27.8984 42.2708L29.3754 42.2682L28.9889 40.5844Z" fill="#39B23E"/>
<path d="M28.4359 37.5159L26.6091 37.7561L27.8741 39.2588L28.4359 37.5159Z" fill="#40B73C"/>
<path d="M29.4608 39.0679L28.436 37.5159L27.8742 39.2588L29.4608 39.0679Z" fill="#3DB53D"/>
<path d="M30.3911 35.9897L28.7426 36.144L30.2566 37.2333L30.3911 35.9897Z" fill="#43BA3B"/>
<path d="M26.6091 37.7561L28.4359 37.5159L27.368 36.4779L26.6091 37.7561Z" fill="#41B83C"/>
<path d="M28.7428 36.1441L27.3683 36.478L28.4361 37.5159L28.7428 36.1441Z" fill="#44BA3B"/>
<path d="M28.7426 36.1441L28.4359 37.5159L30.2566 37.2334L28.7426 36.1441Z" fill="#44BA3B"/>
<path d="M27.1151 35.0155L28.7426 36.144L29.5938 35.0215L27.1151 35.0155Z" fill="#47BB3A"/>
<path d="M31.2408 30.1721L32.2915 29.1823L30.7909 28.9566L31.2408 30.1721Z" fill="#57C035"/>
<path d="M29.9351 25.3151L30.2999 26.9799L31.6584 25.9394L29.9351 25.3151Z" fill="#64C431"/>
<path d="M28.0087 26.4179L30.2999 26.9799L29.9351 25.3151L28.0087 26.4179Z" fill="#60C332"/>
<path d="M29.9625 30.4274L30.791 28.9567L29.225 28.3077L29.9625 30.4274Z" fill="#55BF35"/>
<path d="M31.6584 25.9395L30.2999 26.9799L31.9995 27.7737L31.6584 25.9395Z" fill="#65C430"/>
<path d="M29.225 28.3075L30.791 28.9565L30.3 26.9798L29.225 28.3075Z" fill="#5CC133"/>
<path d="M34.9369 27.1984L33.6456 28.672L35.9705 28.282L34.9369 27.1984Z" fill="#65C430"/>
<path d="M33.4364 27.1136L34.2492 25.7645L32.8995 25.0597L33.4364 27.1136Z" fill="#63C431"/>
<path d="M34.9369 27.1984L36.3547 26.7032L35.6023 25.261L34.9369 27.1984Z" fill="#65C430"/>
<path d="M33.6456 28.672L34.9369 27.1984L33.4364 27.1136L33.6456 28.672Z" fill="#5EC233"/>
<path d="M29.9625 30.4273L28.1567 29.1019L28.3258 30.4165L29.9625 30.4273Z" fill="#55BF35"/>
<path d="M31.2407 30.1722L30.7909 28.9567L29.9623 30.4274L31.2407 30.1722Z" fill="#57C035"/>
<path d="M30.2999 26.9798L30.7909 28.9565L31.9995 27.7736L30.2999 26.9798Z" fill="#60C332"/>
<path d="M30.7629 31.9064L31.2407 30.172L29.9623 30.4272L30.7629 31.9064Z" fill="#50BE37"/>
<path d="M32.439 30.6837L33.54 29.9723L32.2917 29.1824L32.439 30.6837Z" fill="#55BF35"/>
<path d="M30.7909 28.9567L32.2915 29.1824L31.9995 27.7737L30.7909 28.9567Z" fill="#5BC133"/>
<path d="M32.2914 29.1824L31.2407 30.1722L32.4387 30.6837L32.2914 29.1824Z" fill="#5BC133"/>
<path d="M34.8901 38.2262L36.6977 38.2063L35.7138 36.972L34.8901 38.2262Z" fill="#3CB53D"/>
<path d="M38.2356 39.1495L36.6977 38.2061L36.371 39.7465L38.2356 39.1495Z" fill="#37B13F"/>
<path d="M59.3846 34.8151L59.4284 36.6656L60.8679 36.0026L59.3846 34.8151Z" fill="#46BB3A"/>
<path d="M57.7041 36.9578L59.4282 36.6655L58.2243 35.639L57.7041 36.9578Z" fill="#3FB73C"/>
<path d="M51.1988 39.8874L51.6665 41.2692L52.9471 40.3128L51.1988 39.8874Z" fill="#35AF3F"/>
<path d="M52.8132 38.727L54.287 39.44L54.8445 37.3842L52.8132 38.727Z" fill="#39B23E"/>
<path d="M41.6111 35.6868L43.0494 37.1234L44.0186 35.8708L41.6111 35.6868Z" fill="#43BA3B"/>
<path d="M42.5799 38.6929L43.0494 37.1234L41.4621 37.227L42.5799 38.6929Z" fill="#37B23F"/>
<path d="M51.0358 20.8474L52.2014 21.8217L52.3301 20.3829L51.0358 20.8474Z" fill="#7DCB29"/>
<path d="M52.3948 23.463L52.2016 21.8217L51.0969 22.7613L52.3948 23.463Z" fill="#73C82C"/>
<path d="M51.2021 24.7437L51.0968 22.7613L49.4742 24.4302L51.2021 24.7437Z" fill="#70C72D"/>
<path d="M53.9766 23.8218L52.395 23.4629L52.9572 24.8201L53.9766 23.8218Z" fill="#6FC72D"/>
<path d="M50.0623 25.7578L51.2021 24.7437L49.4742 24.4303L50.0623 25.7578Z" fill="#6EC72D"/>
<path d="M52.8617 26.237L51.2021 24.7438L51.2522 26.599L52.8617 26.237Z" fill="#69C52F"/>
<path d="M52.2017 21.8217L53.8496 20.9205L52.3304 20.3829L52.2017 21.8217Z" fill="#79CA2A"/>
<path d="M57.3018 22.6352L55.9609 23.0419L57.0987 24.3583L57.3018 22.6352Z" fill="#6BC62E"/>
<path d="M58.4404 21.7996L59.6615 22.5112L59.4452 20.809L58.4404 21.7996Z" fill="#6AC62F"/>
<path d="M55.0255 22.0049L55.872 20.8454L53.8496 20.9206L55.0255 22.0049Z" fill="#72C82C"/>
<path d="M53.4949 22.483L52.395 23.463L53.9766 23.8219L53.4949 22.483Z" fill="#74C92C"/>
<path d="M55.872 20.8454L57.3018 22.6353L57.1961 20.2779L55.872 20.8454Z" fill="#73C82C"/>
<path d="M53.9765 23.8219L55.0255 22.0049L53.4948 22.483L53.9765 23.8219Z" fill="#6FC72D"/>
<path d="M52.9569 24.8202L52.8616 26.2369L54.8752 25.8322L52.9569 24.8202Z" fill="#6EC72D"/>
<path d="M56.7956 26.0668L54.8754 25.8322L55.6256 27.261L56.7956 26.0668Z" fill="#63C431"/>
<path d="M54.8752 25.832L55.3299 24.2852L53.9764 23.8218L54.8752 25.832Z" fill="#67C530"/>
<path d="M47.9003 22.716L49.4743 24.4302L49.3044 23.0143L47.9003 22.716Z" fill="#7CCB29"/>
<path d="M51.0971 22.7613L49.3046 23.0143L49.4745 24.4302L51.0971 22.7613Z" fill="#78CA2A"/>
<path d="M47.4438 27.2377L48.7721 27.2543L48.6142 25.9445L47.4438 27.2377Z" fill="#6BC62E"/>
<path d="M50.0623 25.7578L48.6141 25.9447L50.0112 27.0112L50.0623 25.7578Z" fill="#6EC72D"/>
<path d="M46.8709 28.3287L48.7721 27.2543L47.4438 27.2377L46.8709 28.3287Z" fill="#66C430"/>
<path d="M49.5161 28.3474L50.8607 27.9398L50.0114 27.0112L49.5161 28.3474Z" fill="#63C431"/>
<path d="M51.2022 24.7438L50.0624 25.7578L51.2522 26.599L51.2022 24.7438Z" fill="#70C72D"/>
<path d="M49.4742 24.4302L48.6141 25.9446L50.0623 25.7577L49.4742 24.4302Z" fill="#74C92C"/>
<path d="M52.4509 27.5969L50.8605 27.9398L51.7768 28.9987L52.4509 27.5969Z" fill="#63C431"/>
<path d="M51.2522 26.599L50.0625 25.7578L50.0114 27.0112L51.2522 26.599Z" fill="#69C52F"/>
<path d="M49.5159 28.3474L50.0113 27.0112L48.7721 27.2545L49.5159 28.3474Z" fill="#63C431"/>
<path d="M51.2522 26.599L50.0114 27.0112L50.8606 27.9398L51.2522 26.599Z" fill="#69C52F"/>
<path d="M52.4509 27.5967L51.7768 28.9985L53.7942 29.688L52.4509 27.5967Z" fill="#63C431"/>
<path d="M52.8618 26.2369L52.451 27.5969L53.9511 27.1566L52.8618 26.2369Z" fill="#69C52F"/>
<path d="M54.8752 25.8322L52.8616 26.237L53.9509 27.1566L54.8752 25.8322Z" fill="#67C530"/>
<path d="M52.8617 26.2369L52.9569 24.8202L51.2021 24.7438L52.8617 26.2369Z" fill="#69C52F"/>
<path d="M57.1959 20.2779L58.4403 21.7997L59.4451 20.8091L57.1959 20.2779Z" fill="#6FC72D"/>
<path d="M53.8496 20.9205L55.872 20.8453L54.9469 19.7467L53.8496 20.9205Z" fill="#78CA2A"/>
<path d="M57.1959 20.2779L57.3015 22.6353L58.4403 21.7997L57.1959 20.2779Z" fill="#6FC72D"/>
<path d="M59.1159 24.1392L58.4405 21.7997L57.3018 22.6352L59.1159 24.1392Z" fill="#65C430"/>
<path d="M55.8719 20.8454L55.0255 22.0049L55.9609 23.042L55.8719 20.8454Z" fill="#73C82C"/>
<path d="M57.196 20.2779L54.9468 19.7466L55.8719 20.8453L57.196 20.2779Z" fill="#6FC72D"/>
<path d="M54.8752 25.832L53.9764 23.8218L52.9569 24.82L54.8752 25.832Z" fill="#67C530"/>
<path d="M53.9764 23.8218L55.3299 24.2853L55.9607 23.0419L53.9764 23.8218Z" fill="#6FC72D"/>
<path d="M57.0985 24.3583L55.3298 24.2853L56.7954 26.0668L57.0985 24.3583Z" fill="#68C52F"/>
<path d="M55.872 20.8454L55.961 23.042L57.3018 22.6353L55.872 20.8454Z" fill="#73C82C"/>
<path d="M58.1985 25.0781L56.7955 26.0668L58.2929 26.3829L58.1985 25.0781Z" fill="#64C431"/>
<path d="M59.1158 24.1392L57.3017 22.6352L57.0986 24.3583L59.1158 24.1392Z" fill="#65C430"/>
<path d="M58.1984 25.0781L58.2929 26.3829L59.8233 26.4213L58.1984 25.0781Z" fill="#64C431"/>
<path d="M59.1158 24.1392L57.0986 24.3583L58.1986 25.0781L59.1158 24.1392Z" fill="#65C430"/>
<path d="M54.2872 39.44L55.6905 40.2816L55.5832 38.4431L54.2872 39.44Z" fill="#38B23E"/>
<path d="M56.2312 42.5753L55.6905 40.2816L54.4661 41.6647L56.2312 42.5753Z" fill="#32AB40"/>
<path d="M54.8448 37.3842L54.2872 39.44L55.5832 38.4431L54.8448 37.3842Z" fill="#3EB63D"/>
<path d="M54.287 39.4401L52.8132 38.7271L52.9471 40.3127L54.287 39.4401Z" fill="#38B23E"/>
<path d="M51.1988 39.8873L52.9471 40.3127L52.8131 38.7271L51.1988 39.8873Z" fill="#35AF3F"/>
<path d="M52.9471 40.3127L51.6666 41.2691L52.6131 42.3834L52.9471 40.3127Z" fill="#35AE3F"/>
</g>
</g>
</g>
<path d="M99.4976 36.8637C97.9138 36.8637 96.6293 35.5615 96.6293 33.9551V19.4102C96.6293 17.803 97.9138 16.5001 99.4976 16.5001C101.082 16.5001 102.366 17.803 102.366 19.4102V33.9551C102.366 35.5615 101.082 36.8637 99.4976 36.8637Z" fill="white"/>
<path d="M89.4586 39.7731H82.2879C80.7041 39.7731 79.4191 38.471 79.4191 36.8636C79.4191 35.2572 80.7041 33.9551 82.2879 33.9551H88.0245V25.2277C88.0245 23.6205 89.3084 22.319 90.8927 22.319C92.4766 22.319 93.7615 23.6205 93.7615 25.2277V35.4085C93.7615 37.8155 91.8309 39.7731 89.4586 39.7731Z" fill="white"/>
<path d="M106.655 45.5904H99.4976C97.9138 45.5904 96.6293 44.2883 96.6293 42.6826C96.6293 41.0752 97.9138 39.7731 99.4976 39.7731H105.235V31.0456C105.235 29.4394 106.519 28.1373 108.103 28.1373C109.687 28.1373 110.971 29.4394 110.971 31.0456V41.2141C110.971 43.6264 109.035 45.5904 106.655 45.5904Z" fill="white"/>
<path d="M125.313 39.7731H118.179C115.787 39.7731 113.84 37.7982 113.84 35.3707V22.319C113.84 20.7117 115.124 19.4102 116.707 19.4102C118.292 19.4102 119.576 20.7117 119.576 22.319V33.9551H125.313C126.897 33.9551 128.181 35.2572 128.181 36.8636C128.181 38.471 126.897 39.7731 125.313 39.7731Z" fill="white"/>
<path fill-rule="evenodd" clip-rule="evenodd" d="M110.972 22.3189C110.972 23.9261 109.687 25.2277 108.103 25.2277C106.519 25.2277 105.235 23.9261 105.235 22.3189C105.235 20.7117 106.519 19.4101 108.103 19.4101C109.687 19.4101 110.972 20.7117 110.972 22.3189Z" fill="white"/>
<path fill-rule="evenodd" clip-rule="evenodd" d="M119.576 45.5904C119.576 47.1979 118.292 48.5 116.708 48.5C115.124 48.5 113.84 47.1979 113.84 45.5904C113.84 43.9847 115.124 42.6826 116.708 42.6826C118.292 42.6826 119.576 43.9847 119.576 45.5904Z" fill="white"/>
<path d="M137.783 35.8538C137.783 36.5133 137.561 37.0318 137.119 37.4046C136.676 37.7808 136.004 37.9682 135.106 37.9682H134.181L134.451 39.48L135.646 39.499C136.209 39.511 136.721 39.4148 137.176 39.2086C137.631 39.0022 138.017 38.7173 138.332 38.3546C138.645 37.9937 138.89 37.5675 139.065 37.0752C139.237 36.5839 139.324 36.0547 139.324 35.4858V31.1431H137.783V35.8538Z" fill="white"/>
<path d="M138.611 27.3043C138.289 27.3043 138.02 27.4134 137.803 27.6338C137.583 27.8531 137.475 28.1185 137.475 28.4286C137.475 28.7385 137.583 29.0072 137.803 29.2336C138.02 29.4594 138.289 29.5722 138.611 29.5722C138.92 29.5722 139.182 29.4594 139.402 29.2336C139.619 29.0072 139.729 28.7385 139.729 28.4286C139.729 28.1185 139.619 27.8531 139.402 27.6338C139.182 27.4134 138.92 27.3043 138.611 27.3043Z" fill="white"/>
<path d="M141.636 35.7573H143.041V26.3144H141.636V35.7573Z" fill="white"/>
<path d="M152.73 29.9219C152.987 29.9219 153.208 29.8274 153.394 29.64C153.582 29.4534 153.674 29.2297 153.674 28.9713C153.674 28.6999 153.582 28.467 153.394 28.2737C153.208 28.08 152.987 27.9829 152.73 27.9829C152.448 27.9829 152.214 28.08 152.026 28.2737C151.841 28.467 151.747 28.6999 151.747 28.9713C151.747 29.2297 151.841 29.4534 152.026 29.64C152.214 29.8274 152.448 29.9219 152.73 29.9219Z" fill="white"/>
<path d="M155.331 29.9219C155.6 29.9219 155.828 29.8274 156.014 29.64C156.201 29.4534 156.293 29.2297 156.293 28.9713C156.293 28.6999 156.201 28.467 156.014 28.2737C155.828 28.08 155.6 27.9829 155.331 27.9829C155.061 27.9829 154.833 28.08 154.647 28.2737C154.461 28.467 154.366 28.6999 154.366 28.9713C154.366 29.2297 154.461 29.4534 154.647 29.64C154.833 29.8274 155.061 29.9219 155.331 29.9219Z" fill="white"/>
<path d="M165.288 27.7694C165.598 27.7694 165.86 27.6555 166.078 27.4302C166.296 27.2038 166.405 26.9356 166.405 26.6257C166.405 26.3144 166.296 26.0504 166.078 25.8308C165.86 25.6113 165.598 25.5001 165.288 25.5001C164.968 25.5001 164.699 25.6113 164.479 25.8308C164.261 26.0504 164.152 26.3144 164.152 26.6257C164.152 26.9356 164.261 27.2038 164.479 27.4302C164.699 27.6555 164.968 27.7694 165.288 27.7694Z" fill="white"/>
<path d="M165.135 31.7447C164.929 31.7316 164.721 31.6828 164.508 31.5981C164.297 31.5146 164.191 31.3375 164.191 31.0661C164.191 30.7811 164.271 30.5423 164.432 30.3479C164.593 30.1548 164.877 30.0575 165.288 30.0575C165.508 30.0575 165.704 30.1085 165.876 30.2123C166.05 30.3165 166.197 30.4478 166.32 30.6102C166.442 30.7714 166.538 30.9587 166.608 31.1726C166.679 31.3859 166.714 31.596 166.714 31.8017L165.135 31.7447ZM167.438 29.5244C167.211 29.2336 166.933 28.9968 166.598 28.8167C166.264 28.6353 165.879 28.5451 165.443 28.5451C165.07 28.5451 164.733 28.6066 164.432 28.7293C164.13 28.852 163.871 29.0229 163.651 29.2427C163.433 29.4626 163.263 29.7209 163.14 30.019C163.017 30.3165 162.958 30.6395 162.958 30.988C162.958 31.6345 163.107 32.1638 163.401 32.5785C163.698 32.9916 164.171 33.2115 164.827 33.2358L166.714 33.2944C166.727 33.5535 166.666 33.776 166.531 33.9633C166.397 34.1521 166.099 34.2444 165.636 34.2444H161.628H161.475C161.167 34.2444 160.882 34.1738 160.618 34.0311C160.356 33.8899 160.223 33.6185 160.223 33.2169V31.1432H158.72V33.1398C158.72 33.5154 158.663 33.7939 158.547 33.973C158.431 34.1549 158.176 34.2444 157.775 34.2444H150.803C150.418 34.2444 150.138 34.1641 149.967 34.0029C149.792 33.8411 149.706 33.5535 149.706 33.1398V31.1432H148.243V33.3716C148.243 34.1359 148.414 34.7233 148.763 35.1374C149.11 35.5511 149.636 35.7573 150.34 35.7573H158.085C158.649 35.7573 159.119 35.5754 159.491 35.2145C159.761 35.4344 160.067 35.5799 160.407 35.6503C160.748 35.722 161.104 35.7573 161.475 35.7573H161.628H165.867C166.252 35.7573 166.586 35.6776 166.868 35.5147C167.151 35.3545 167.385 35.1346 167.572 34.8552C167.757 34.5767 167.896 34.2591 167.986 33.8953C168.074 33.5344 168.121 33.1534 168.121 32.7516V31.6475C168.121 31.2594 168.063 30.8816 167.947 30.513C167.831 30.1444 167.662 29.8149 167.438 29.5244Z" fill="white"/>
<path d="M173.475 37.3465C173.204 37.3465 172.977 37.4416 172.79 37.6289C172.607 37.8146 172.511 38.0398 172.511 38.2965C172.511 38.569 172.607 38.8014 172.79 38.9952C172.977 39.1895 173.204 39.2857 173.475 39.2857C173.746 39.2857 173.973 39.1895 174.16 38.9952C174.343 38.8014 174.439 38.569 174.439 38.2965C174.439 38.0398 174.343 37.8146 174.16 37.6289C173.973 37.4416 173.746 37.3465 173.475 37.3465Z" fill="white"/>
<path d="M176.403 33.1398C176.403 33.2944 176.394 33.4394 176.374 33.5751C176.355 33.7108 176.307 33.8275 176.231 33.9252C176.153 34.0219 176.04 34.0989 175.894 34.1575C175.743 34.2156 175.549 34.2444 175.306 34.2444H173.36H173.014C172.667 34.2444 172.394 34.1738 172.195 34.0311C171.995 33.8899 171.896 33.5724 171.896 33.0811V26.3144H170.431V33.3336C170.431 34.1858 170.652 34.8046 171.087 35.1846C171.523 35.5674 172.112 35.7573 172.859 35.7573H173.36H175.747C176.479 35.7573 177.022 35.5418 177.377 35.1075C177.729 34.676 177.907 34.0963 177.907 33.3716V31.1432H176.403V33.1398Z" fill="white"/>
<path d="M175.96 37.3465C175.676 37.3465 175.443 37.4416 175.258 37.6289C175.07 37.8146 174.977 38.0398 174.977 38.2965C174.977 38.569 175.07 38.8014 175.258 38.9952C175.443 39.1895 175.676 39.2857 175.96 39.2857C176.216 39.2857 176.439 39.1895 176.626 38.9952C176.811 38.8014 176.905 38.569 176.905 38.2965C176.905 38.0398 176.811 37.8146 176.626 37.6289C176.439 37.4416 176.216 37.3465 175.96 37.3465Z" fill="white"/>
<path d="M181.181 35.8538C181.181 36.5133 180.958 37.0318 180.516 37.4047C180.073 37.7808 179.402 37.9682 178.503 37.9682H178.137L178.387 39.48L179.043 39.499C179.606 39.499 180.117 39.3997 180.573 39.1988C181.028 38.9996 181.415 38.7173 181.729 38.3546C182.043 37.9937 182.287 37.5675 182.461 37.0752C182.634 36.5839 182.722 36.0547 182.722 35.4858V31.1431H181.181V35.8538Z" fill="white"/>
<path d="M191.397 32.9856C191.277 32.687 191.094 32.4102 190.849 32.1518L187.575 28.6424L186.593 29.6505L189.886 33.1588C190.053 33.3406 190.138 33.5279 190.138 33.7216C190.138 33.8645 190.079 33.9904 189.963 34.0989C189.847 34.2102 189.676 34.2646 189.442 34.2646H184.648L184.84 35.7573H189.407C190.123 35.7573 190.668 35.57 191.031 35.1944C191.397 34.821 191.581 34.3748 191.581 33.8574C191.581 33.5724 191.52 33.2819 191.397 32.9856Z" fill="white"/>
<rect x="0.5" y="0.5" width="219" height="64" rx="3.5" stroke="white"/>
</svg>
