<?xml version="1.0" encoding="utf-8"?>
<!-- Generator: Adobe Illustrator 23.0.1, SVG Export Plug-In . SVG Version: 6.00 Build 0)  -->
<svg version="1.1" id="Layer_1" xmlns="http://www.w3.org/2000/svg" xmlns:xlink="http://www.w3.org/1999/xlink" x="0px" y="0px"
	 viewBox="0 0 145 55" style="enable-background:new 0 0 145 55;" xml:space="preserve">
<g>
	<path d="M41.4267,35.39855c0.03757-0.11161,0.07986-0.22189,0.11198-0.33504c0.28478-1.00332,1.15992-1.69796,2.20135-1.70974
		c1.2649-0.01431,2.53007-0.00414,3.79512-0.00534c0.70722-0.00067,0.99784-0.28776,0.99806-0.98684
		c0.00064-2.02225-0.00429-4.04451,0.00223-6.06674c0.0041-1.27009,0.88022-2.24055,2.13254-2.38447
		c1.2676-0.14568,2.48402,0.8632,2.5524,2.13954c0.0301,0.56177,0.01291,1.12619,0.01313,1.68941
		c0.00074,1.8745,0.01315,3.74913-0.00421,5.62347c-0.02128,2.29775-1.62091,4.18973-3.87437,4.60252
		c-0.30671,0.05618-0.62395,0.0743-0.93649,0.07592c-1.4774,0.00766-2.95486,0.0043-4.4323,0.00325
		c-1.34167-0.00095-2.18303-0.66198-2.50698-1.96516c-0.01091-0.04388-0.03469-0.08457-0.05247-0.12675
		C41.4267,35.76791,41.4267,35.58323,41.4267,35.39855z"/>
	<path d="M69.8015,29.86057c0-2.0036-0.01562-4.00737,0.00481-6.01077c0.01722-1.688,1.74792-2.79626,3.28665-2.10721
		c0.92046,0.41218,1.39272,1.16027,1.40217,2.17031c0.01314,1.40333,0.0036,2.80687,0.00364,4.21032
		c0.00006,2.17904-0.00007,4.35808,0.00006,6.53712c0.00005,0.77693,0.26565,1.03952,1.05112,1.03967
		c1.20032,0.00023,2.40071-0.00808,3.60094,0.00248c1.43923,0.01266,2.46815,1.05927,2.43052,2.45364
		c-0.03093,1.14601-0.96295,2.15302-2.10831,2.22457c-0.69918,0.04367-1.40269,0.02163-2.10426,0.02261
		c-1.00639,0.0014-2.0136,0.02211-3.01901-0.01028c-2.20081-0.07092-4.02761-1.62754-4.45525-3.78092
		c-0.06777-0.34128-0.08913-0.69648-0.09068-1.04542c-0.00847-1.902-0.00403-3.80407-0.00403-5.70611
		C69.80042,29.86057,69.80096,29.86057,69.8015,29.86057z"/>
	<path d="M67.40976,34.61317c0,1.11731,0.0026,2.23463-0.00052,3.35193c-0.00763,2.72964-2.0535,4.78612-4.77915,4.79718
		c-1.57895,0.00641-3.15812,0.01234-4.73689-0.00671c-1.04737-0.01264-1.93511-0.74557-2.19311-1.75613
		c-0.26131-1.02354,0.1835-2.0841,1.09685-2.6143c0.38475-0.22335,0.80099-0.32039,1.24455-0.31957
		c1.21888,0.00225,2.43776,0.00111,3.65665,0.00045c0.73703-0.00039,1.01253-0.27972,1.01272-1.02579
		c0.0005-2.02224-0.01054-4.04456,0.00441-6.06669c0.01163-1.57301,1.46516-2.67107,2.96809-2.26751
		c1.00048,0.26865,1.70959,1.16615,1.72166,2.22284c0.01404,1.22795,0.00327,2.45619,0.00327,3.6843
		C67.40879,34.61317,67.40928,34.61317,67.40976,34.61317z"/>
	<path d="M60.32101,27.4188c0.00021,1.96589,0.0125,3.93187-0.00349,5.89763c-0.01399,1.71914-1.71061,2.84777-3.26118,2.17315
		c-0.88144-0.38349-1.35078-1.08457-1.42747-2.04206c-0.0169-0.21099-0.0065-0.42427-0.00651-0.63649
		c-0.00021-3.72873-0.00192-7.45746,0.00098-11.18618c0.00098-1.25494,0.783-2.20526,1.96939-2.41126
		c1.39989-0.24307,2.70047,0.81808,2.72159,2.25225c0.02106,1.43027,0.00588,2.86107,0.00644,4.29164
		C60.32098,26.31126,60.3208,26.86503,60.32101,27.4188z"/>
	<path d="M65.0618,21.54461c1.30132-0.00057,2.34364,1.03734,2.34643,2.33649c0.0028,1.30667-1.0565,2.36459-2.36026,2.35717
		c-1.29089-0.00734-2.33851-1.06479-2.33517-2.3571C62.71613,22.58527,63.76176,21.54518,65.0618,21.54461z"/>
	<path d="M72.13183,42.77477c0.00148,1.2958-1.04108,2.34693-2.3358,2.35503c-1.29332,0.00809-2.37045-1.06903-2.36318-2.36317
		c0.00726-1.2928,1.05917-2.33323,2.35754-2.33182C71.09303,40.43623,72.13035,41.4729,72.13183,42.77477z"/>
</g>
<g>
	<path d="M128.12804,23.62073c-0.14029,0.22479-0.35166,0.48289-0.6694,0.72953c-0.84082,0.65279-2.07757,0.98141-3.68598,0.98141
		c-0.38478,0-0.79077-0.01878-1.21777-0.05648c-5.49478-0.48482-10.54887-0.55078-14.61607-0.19083
		c-3.37194,0.29851-5.86167-0.09424-7.01061-1.10583c-0.07528-0.06629-0.14415-0.13524-0.20773-0.20635
		c-0.00812,0.17023-0.00159,0.34811,0.02109,0.53443c0.10337,0.84907,0.21038,1.69955,0.36633,2.54002
		c0.43015,2.31829,0.9737,4.61039,1.67462,6.86334c0.60374,1.94058,1.229,3.87362,2.24091,5.65107
		c0.3605,0.63319,0.74239,1.26573,1.39318,1.64925c0.47616,0.28061,0.96552,0.54838,1.47377,0.76328
		c2.07454,0.87717,4.2779,1.06332,6.62465,1.17691c0.58282-0.0484,1.29408-0.11171,2.00603-0.1657
		c1.44766-0.10976,2.85439-0.40643,4.22218-0.89471c0.82175-0.29335,1.47901-0.78481,2.00243-1.49002
		c0.93501-1.25973,1.58649-2.66784,2.18004-4.1025c1.25285-3.02827,2.19093-6.15669,2.87881-9.36005
		c0.21658-1.00852,0.42141-2.02212,0.35065-3.0618C128.14931,23.78934,128.14011,23.70442,128.12804,23.62073z"/>
	<path d="M127.24511,22.00046c-0.88694-0.739-1.92714-1.19426-3.02055-1.47814c-1.39386-0.36188-2.81606-0.61508-4.22741-0.9086
		c-0.24028-0.04997-0.38214-0.1489-0.48798-0.3984c-0.58011-1.36745-1.15525-2.7392-1.80401-4.07454
		c-0.39295-0.80885-0.92422-1.54807-1.66949-2.09591c-0.43155-0.31723-0.92122-0.53717-1.44974-0.49081
		c-0.62746,0.05505-1.16997,0.35236-1.63885,0.79476c-0.81111,0.76528-1.4092,1.68337-1.89782,2.66647
		c-0.52132,1.04888-0.96491,2.13618-1.45831,3.19933c-0.06282,0.13539-0.20721,0.30077-0.33797,0.32575
		c-0.84043,0.16056-1.69393,0.25541-2.53119,0.42935c-1.56632,0.32539-3.10302,0.74752-4.50108,1.56754
		c-0.69799,0.40939-1.18297,0.93087-1.39055,1.59745c0.09381,0.18163,0.22697,0.34921,0.39969,0.50126
		c1.03884,0.91468,3.46967,1.2768,6.66874,0.99377c0.38342-0.03393,0.77584-0.06395,1.17616-0.09036
		c0.1787-2.41113,1.62408-5.026,1.69353-5.15096l0.77154-0.06882c-0.01609,0.02903-1.60629,2.92791-1.8074,5.18015
		c2.86009-0.15625,6.10989-0.12933,9.59528,0.07873c-0.14106-2.28402-1.63078-5.20766-1.63078-5.20766l0.7631-0.00112
		c0.06544,0.12736,1.40279,2.81581,1.52305,5.2497c0.85798,0.05632,1.72926,0.1233,2.61193,0.20118
		c1.42179,0.12556,3.36558,0.08743,4.55125-0.80593c0.62724-0.47265,0.76987-0.97735,0.79369-1.08276
		C127.79192,22.5816,127.56574,22.26761,127.24511,22.00046z M111.63179,19.28701c0-0.01467-0.0137-0.06105,0.00199-0.09295
		c0.49873-1.01394,1.02985-2.00429,1.85329-2.80688c0.89286-0.87025,1.65659-0.74229,2.4237,0.05767
		c0.72638,0.75749,1.19775,1.69616,1.63039,2.6469c0.02919,0.06413,0.02899,0.14164,0.03912,0.19526
		C115.59149,19.28701,113.61909,19.28701,111.63179,19.28701z M118.72363,19.50546
		c-0.10315-0.11264-0.24185-0.20858-0.30381-0.34056c-0.46631-0.99318-0.93015-1.98841-1.62345-2.84914
		c-0.23648-0.29359-0.50024-0.58052-0.80076-0.80438c-0.98521-0.73389-2.08615-0.61056-3.02707,0.29292
		c-0.65813,0.63192-1.13972,1.39012-1.57565,2.18005c-0.21443,0.38856-0.40684,0.78974-0.59703,1.19098
		c-0.09969,0.21032-0.22871,0.30664-0.50608,0.18287c0.18602-0.44827,0.36449-0.89655,0.55702-1.33872
		c0.49919-1.14646,1.06998-2.25468,1.79987-3.27413c0.36836-0.51451,0.7793-0.98765,1.35001-1.29316
		c0.59886-0.32057,1.1483-0.21782,1.66499,0.18746c0.61852,0.48516,1.08168,1.11006,1.41647,1.80076
		c0.61406,1.26689,1.15925,2.56717,1.73122,3.85439c0.01608,0.03619,0.01042,0.08205,0.0149,0.1234
		C118.79073,19.44728,118.75718,19.47636,118.72363,19.50546z"/>
</g>
<g>
	<path d="M51.31348,16.59654v-0.66699h0.48682c0.24219,0,0.45215-0.02881,0.62939-0.08643
		c0.17773-0.05762,0.32471-0.14648,0.44092-0.26611c0.1167-0.12012,0.20264-0.27295,0.25781-0.4585
		c0.05518-0.18604,0.08301-0.40723,0.08301-0.66357v-2.20117h0.6665v2.20117c0,0.33643-0.04395,0.63672-0.13232,0.90137
		c-0.08789,0.26465-0.21924,0.48877-0.39307,0.67236c-0.17432,0.18311-0.39111,0.32373-0.65088,0.42139
		c-0.26025,0.09766-0.56055,0.14648-0.90137,0.14648H51.31348z M52.92529,10.72643l0.6001-0.60693l0.61377,0.61377l-0.60693,0.60693
		L52.92529,10.72643z"/>
	<path d="M55.81152,14.63512h-0.66699V9.60436h0.66699V14.63512z"/>
	<path d="M66.93457,13.97545v0.66309h-0.16211c-0.18652,0-0.36621-0.03516-0.54004-0.10596
		c-0.17383-0.07031-0.32422-0.1748-0.45117-0.31396c-0.1084,0.1084-0.24512,0.19189-0.40918,0.25049
		c-0.12305,0.04492-0.26465,0.0791-0.42676,0.10254c-0.16309,0.02344-0.34961,0.04053-0.55957,0.05078
		c-0.21094,0.01074-0.44824,0.01709-0.71484,0.01953c-0.26562,0.00244-0.5625,0.00342-0.8916,0.00342
		c-0.24023,0-0.46875-0.00049-0.68457-0.00146c-0.2168-0.00146-0.41992-0.00635-0.61035-0.01611
		c-0.19043-0.00928-0.36816-0.02393-0.5332-0.04395c-0.16406-0.02002-0.31738-0.04883-0.45801-0.08643
		c-0.33691-0.0918-0.58984-0.23633-0.75879-0.43408c-0.19238-0.21631-0.28906-0.50293-0.28906-0.86035
		c0-0.12012,0.00879-0.24072,0.02637-0.36182s0.03711-0.23145,0.05859-0.33154c0.02051-0.1001,0.04004-0.18213,0.05762-0.24707
		c0.01758-0.06445,0.02734-0.09912,0.03027-0.104l0.63477,0.19385c-0.03027,0.1084-0.05469,0.20361-0.07227,0.28613
		c-0.01758,0.08203-0.03418,0.17334-0.0498,0.27295c-0.01465,0.1001-0.02246,0.19727-0.02246,0.2915
		c0,0.09375,0.00977,0.17578,0.03027,0.24512c0.01953,0.06934,0.05176,0.12939,0.09473,0.17969
		c0.04395,0.05078,0.10059,0.09424,0.1709,0.13037c0.07129,0.03662,0.1582,0.06885,0.26172,0.09717
		c0.23926,0.06348,0.53711,0.10059,0.89258,0.11133c0.35449,0.01025,0.76172,0.01562,1.2207,0.01562
		c0.38086,0,0.71191-0.00098,0.99219-0.00342c0.28125-0.00244,0.52051-0.01123,0.71875-0.02637
		c0.19727-0.01514,0.3584-0.03809,0.48438-0.06885s0.22461-0.07422,0.29492-0.13037
		c0.07031-0.05664,0.11816-0.12842,0.14453-0.21533c0.02539-0.08691,0.03906-0.19287,0.03906-0.31738v-0.9668h0.66602v1.09717
		c0,0.1084,0.01953,0.20166,0.05859,0.28027c0.03906,0.0791,0.08887,0.14355,0.15039,0.19434
		c0.06055,0.05029,0.13086,0.08789,0.20898,0.11279c0.0791,0.02441,0.15723,0.03711,0.23535,0.03711H66.93457z M62.0625,11.92906
		l-0.55762-0.56445l0.55078-0.57129l0.57129,0.57129L62.0625,11.92906z M63.41406,11.93639l-0.55762-0.56445l0.55078-0.57178
		l0.57129,0.57178L63.41406,11.93639z"/>
	<path d="M66.84961,14.63854v-0.6665h1.35449c0.2627,0,0.47559-0.01904,0.63672-0.05664s0.28613-0.08447,0.37598-0.14111
		c0.08887-0.05664,0.14941-0.11816,0.18164-0.18506c0.03125-0.06738,0.05078-0.13135,0.05762-0.19238h-0.53613
		c-0.06152,0-0.12891-0.00244-0.2041-0.00732c-0.07617-0.00439-0.1543-0.01318-0.23535-0.02637
		c-0.08105-0.0127-0.16211-0.03223-0.24512-0.05811c-0.08203-0.02588-0.16211-0.06006-0.23926-0.10205
		c-0.06348-0.0376-0.12891-0.08496-0.19434-0.14111c-0.06543-0.05664-0.125-0.12646-0.17773-0.20996
		c-0.05371-0.0835-0.09668-0.18262-0.13086-0.29639c-0.03418-0.11426-0.05078-0.24756-0.05078-0.40039
		c0-0.19043,0.03223-0.37109,0.09863-0.5415c0.06543-0.17041,0.15918-0.31689,0.28223-0.43945
		c0.12207-0.12207,0.26172-0.21484,0.41992-0.27832c0.15723-0.06348,0.3252-0.0957,0.50391-0.0957
		c0.20508,0,0.39258,0.04395,0.56445,0.13086s0.31641,0.21143,0.43359,0.37402c0.12695,0.16895,0.22168,0.37842,0.28223,0.62793
		c0.06152,0.24902,0.0918,0.53467,0.0918,0.85693v0.48682c0,0.23291-0.0459,0.43994-0.13867,0.62109
		c-0.09375,0.18115-0.2334,0.32812-0.42188,0.44092c-0.3125,0.19971-0.76465,0.2998-1.35449,0.2998H66.84961z M68.06641,9.38951
		l0.59961-0.60693l0.61426,0.61377l-0.60742,0.60693L68.06641,9.38951z M68.74707,11.46715
		c-0.07715,0-0.15723,0.01367-0.23828,0.04053s-0.15332,0.06836-0.21875,0.12354c-0.06445,0.05518-0.11719,0.12646-0.1582,0.21338
		s-0.06152,0.19043-0.06152,0.31055c0,0.07764,0.00781,0.14258,0.02441,0.1958c0.0166,0.05273,0.03711,0.09619,0.06348,0.13037
		c0.02539,0.03418,0.05273,0.06201,0.08105,0.08301s0.05469,0.03857,0.08105,0.05273c0.06836,0.04004,0.15137,0.06885,0.25,0.08643
		c0.09961,0.01758,0.21582,0.02637,0.34961,0.02637h0.54297c-0.00391-0.23242-0.02832-0.43604-0.07227-0.60986
		c-0.04297-0.17432-0.10254-0.31641-0.17773-0.42725C69.09961,11.54234,68.94434,11.46715,68.74707,11.46715z"/>
	<path d="M72.80078,14.63854c-0.22363-0.00244-0.41504-0.01953-0.57617-0.05127s-0.29785-0.07764-0.40918-0.1377
		c-0.1123-0.05957-0.20117-0.13477-0.26855-0.22559c-0.06738-0.09033-0.11914-0.19629-0.15723-0.31738
		c-0.03711-0.12109-0.0625-0.25684-0.07422-0.40771c-0.01172-0.15039-0.01758-0.31738-0.01758-0.50049V9.60436h0.66699v3.39404
		c0,0.20459,0.00684,0.37012,0.01953,0.49707s0.04688,0.2251,0.10254,0.29443c0.05469,0.06982,0.13867,0.1167,0.25,0.14111
		c0.1123,0.0249,0.2666,0.03857,0.46387,0.04102V14.63854z"/>
	<path d="M75.15332,11.76695c0.00488,0.01416,0.01465,0.05176,0.02832,0.11279c0.01465,0.06152,0.03027,0.13721,0.04785,0.22754
		c0.01758,0.09082,0.03711,0.19043,0.05859,0.2998c0.02051,0.10938,0.04004,0.22021,0.05566,0.33154
		c0.0166,0.11182,0.03125,0.21973,0.04297,0.32324s0.01758,0.19385,0.01758,0.27148c0,0.22559-0.03711,0.42041-0.11133,0.58398
		c-0.07422,0.16309-0.1709,0.29834-0.28906,0.40527c-0.11914,0.10742-0.25195,0.18652-0.40039,0.23828
		s-0.29785,0.07764-0.44824,0.07764h-1.45996v-0.6665h1.45996c0.03516,0,0.08496-0.00537,0.15039-0.01611
		c0.06445-0.01074,0.12891-0.03711,0.19336-0.07959c0.06445-0.04199,0.12109-0.10547,0.16992-0.19043
		c0.04785-0.08447,0.07227-0.20215,0.07227-0.35254c0-0.05176-0.00488-0.11719-0.0127-0.1958s-0.01855-0.16357-0.03125-0.25391
		c-0.01367-0.09082-0.02832-0.18359-0.04492-0.27881c-0.01562-0.09521-0.03223-0.18506-0.04883-0.27002
		c-0.0166-0.08447-0.03223-0.15967-0.0459-0.22559c-0.01465-0.06592-0.02637-0.11523-0.03516-0.14844L75.15332,11.76695z
		 M74.06348,15.98961l-0.57129,0.57129l-0.55078-0.57129l0.55762-0.56445L74.06348,15.98961z M75.41504,15.98277l-0.57227,0.57129
		l-0.5498-0.57129l0.55762-0.56445L75.41504,15.98277z"/>
	<path d="M75.53418,16.59654v-0.66699h0.48633c0.24219,0,0.45215-0.02881,0.62988-0.08643s0.3252-0.14648,0.44141-0.26611
		c0.11621-0.12012,0.20215-0.27295,0.25684-0.4585c0.05566-0.18604,0.08301-0.40723,0.08301-0.66357v-2.20117h0.66699v2.20117
		c0,0.33643-0.04395,0.63672-0.13184,0.90137c-0.08887,0.26465-0.21973,0.48877-0.39355,0.67236
		c-0.17383,0.18311-0.3916,0.32373-0.65137,0.42139s-0.55957,0.14648-0.90137,0.14648H75.53418z"/>
	<path d="M80.36035,14.69127c-0.12012,0-0.24121-0.00488-0.36426-0.01562c-0.12207-0.01074-0.24121-0.02734-0.35742-0.04932
		c-0.11621-0.02246-0.22852-0.05176-0.33496-0.08838c-0.10742-0.03662-0.2041-0.08057-0.29102-0.13232l-0.29297-0.16553
		l0.33105-0.58203l0.29297,0.16553c0.08203,0.04688,0.18359,0.08545,0.30371,0.11475s0.24707,0.05078,0.38086,0.06348
		s0.26953,0.01807,0.40527,0.01562c0.13672-0.00195,0.2627-0.01172,0.37793-0.02783
		c0.13672-0.02148,0.24902-0.05127,0.33691-0.09033c0.08789-0.03857,0.14355-0.08252,0.16699-0.13232
		c0.02441-0.05127,0.02051-0.12305-0.00977-0.21484c-0.03125-0.0918-0.08398-0.19434-0.15918-0.30713l-1.27734-1.92969
		l0.56445-0.3667c0.03125,0.04688,0.0625,0.0957,0.0957,0.14648c0.0332,0.05029,0.07129,0.10938,0.11621,0.17627
		s0.09668,0.146,0.15527,0.23633c0.05859,0.09082,0.13086,0.19922,0.21484,0.32617c0.08496,0.12695,0.18359,0.27539,0.29688,0.44482
		c0.1123,0.16895,0.24414,0.3667,0.39453,0.59229c0.05957,0.08984,0.1123,0.18311,0.15918,0.28076s0.08203,0.1958,0.10547,0.29443
		s0.03418,0.19824,0.03027,0.29834c-0.00391,0.09961-0.02734,0.19775-0.07227,0.29443
		c-0.14844,0.33154-0.48926,0.53613-1.02344,0.61377c-0.08203,0.01172-0.16895,0.021-0.26074,0.02832
		C80.55371,14.68785,80.45898,14.69127,80.36035,14.69127z"/>
</g>
<g>
	<path d="M135.61267,3.22319c3.33279,0,6.04424,2.71144,6.04424,6.04424v36.51812c0,3.3328-2.71144,6.04424-6.04424,6.04424H10.4547
		c-3.3328,0-6.04424-2.71144-6.04424-6.04424V9.26743c0-3.3328,2.71144-6.04424,6.04424-6.04424H135.61267 M135.61267,2.22319
		H10.4547c-3.89042,0-7.04424,3.1538-7.04424,7.04424v36.51812c0,3.89044,3.15382,7.04424,7.04424,7.04424h125.15797
		c3.89043,0,7.04424-3.1538,7.04424-7.04424V9.26743C142.65691,5.37699,139.5031,2.22319,135.61267,2.22319L135.61267,2.22319z"/>
</g>
</svg>
