<?xml version="1.0" encoding="utf-8"?>
<!-- Generator: Adobe Illustrator 23.0.1, SVG Export Plug-In . SVG Version: 6.00 Build 0)  -->
<svg version="1.1" id="Layer_1" xmlns="http://www.w3.org/2000/svg" xmlns:xlink="http://www.w3.org/1999/xlink" x="0px" y="0px"
	 viewBox="0 0 145 55" style="enable-background:new 0 0 145 55;" xml:space="preserve">
<style type="text/css">
	.st0{fill:#FFFFFF;}
</style>
<g>
	<path d="M10.47223,52.8401h125.33994c3.89607,0,7.05447-3.1584,7.05447-7.05449V9.21439c0-3.89609-3.1584-7.05449-7.05447-7.05449
		H10.47223c-3.89609,0-7.05449,3.1584-7.05449,7.05449v36.57122C3.41775,49.68169,6.57615,52.8401,10.47223,52.8401z"/>
	<g>
		<path class="st0" d="M17.61621,39.78906c-0.29443,0-0.57812-0.03516-0.85107-0.10547
			c-0.27246-0.07031-0.52979-0.16895-0.771-0.29785c-0.24121-0.12988-0.46436-0.28809-0.66846-0.47559
			c-0.20459-0.18848-0.38232-0.40039-0.53369-0.63574c-0.17676-0.28711-0.31299-0.60742-0.40869-0.95898
			c-0.09619-0.35156-0.14404-0.71973-0.14404-1.10254c0-0.24316,0.01465-0.47852,0.04443-0.70703
			c0.0293-0.22852,0.07617-0.46289,0.14111-0.70215c0.06445-0.23926,0.14893-0.49023,0.25391-0.75195
			s0.23291-0.54883,0.38428-0.8623l1.24365,0.5918c-0.13281,0.26855-0.24316,0.50977-0.33154,0.72363
			s-0.16064,0.41602-0.21582,0.60547s-0.09473,0.37207-0.11865,0.54688s-0.03613,0.3584-0.03613,0.5498
			c0,0.25098,0.03125,0.49121,0.09424,0.72168c0.0625,0.23047,0.14893,0.4375,0.25977,0.62207
			c0.17676,0.26074,0.40967,0.4707,0.69922,0.62695c0.28906,0.15625,0.6084,0.23535,0.9585,0.23535h1.12207
			c0.39062,0,0.7085-0.04102,0.95361-0.12207s0.43555-0.19629,0.57178-0.3457s0.22949-0.32812,0.2793-0.53906
			c0.0498-0.20996,0.07471-0.44141,0.07471-0.69629v-3.71973h1.37598v1.72461c0.00732,0.24316,0.0874,0.4248,0.24072,0.54492
			c0.15283,0.11914,0.35059,0.17969,0.59375,0.17969h0.44238v1.37598h-0.44238c-0.14014,0-0.28271-0.0127-0.42822-0.03906
			c-0.14551-0.02539-0.28076-0.0625-0.40625-0.11035v0.04395c0,1.02832-0.27148,1.79883-0.81494,2.31055
			c-0.54395,0.51172-1.35693,0.76855-2.44043,0.76855H17.61621z M17.50049,32.58203l0.99463-1.00586l1.01709,1.0166
			l-1.00586,1.00586L17.50049,32.58203z"/>
		<path class="st0" d="M22.98877,35.43945h0.71289c0.21729,0,0.39307-0.01855,0.52783-0.05566
			c0.13428-0.03711,0.23926-0.09082,0.31494-0.16309c0.07568-0.07129,0.12646-0.15918,0.15186-0.2627
			c0.02588-0.10254,0.03906-0.2207,0.03906-0.35352v-1.6084h1.37598v1.58105c0,0.29785,0.07178,0.51562,0.21582,0.65234
			c0.14355,0.13574,0.37207,0.20605,0.68506,0.20996h-0.00537c0.05518-0.00391,0.12256-0.01465,0.20166-0.0332
			s0.15674-0.05664,0.23193-0.11328c0.07568-0.05762,0.14014-0.14062,0.19385-0.24902
			c0.05322-0.1084,0.08008-0.25488,0.08008-0.43945v-1.6084h1.37061v1.58105c0,0.30176,0.07178,0.52148,0.21533,0.65723
			c0.14404,0.13672,0.37793,0.20508,0.70215,0.20508c0.08838,0,0.17578-0.01367,0.26221-0.04199
			c0.08691-0.02734,0.16504-0.07324,0.23535-0.1377c0.06982-0.06445,0.12695-0.14844,0.1709-0.25195
			c0.04443-0.10254,0.07031-0.23047,0.07764-0.38086v0.00488v-1.63574h1.37598v1.63574
			c0.00732,0.28418,0.09424,0.48926,0.25977,0.61621c0.16602,0.12793,0.42041,0.19141,0.7627,0.19141h0.54199v1.37598h-0.54199
			c-0.37939,0-0.70898-0.04199-0.98926-0.12402c-0.27979-0.08301-0.52148-0.21875-0.72412-0.40625
			c-0.1875,0.17285-0.40771,0.30469-0.66016,0.39453c-0.25244,0.09082-0.50928,0.13574-0.771,0.13574
			c-0.34668,0-0.64941-0.04297-0.90918-0.12695c-0.25977-0.08496-0.49121-0.22168-0.69385-0.40918
			c-0.19141,0.16992-0.40625,0.2998-0.64355,0.39258c-0.23779,0.0918-0.47852,0.13965-0.72168,0.14355
			c-0.34619,0.00391-0.65088-0.04102-0.91455-0.13281s-0.49121-0.21875-0.68262-0.38086
			c-0.43115,0.3418-1.00977,0.51367-1.73535,0.51367h-0.71289V35.43945z M28.31104,30.70801l-0.93945,0.95117l-0.93945-0.94043
			l0.93945-0.9502L28.31104,30.70801z M29.46094,29.12695l-0.88477,0.88477l-0.87305-0.87305l0.88428-0.88477L29.46094,29.12695z
			 M30.68213,30.68555l-0.92871,0.94043l-0.9668-0.92871l0.9502-0.95117L30.68213,30.68555z"/>
		<path class="st0" d="M39.39258,35.43945v1.37598h-0.81836c-0.31299,0-0.59863-0.04297-0.85645-0.12695
			c-0.25781-0.08496-0.47559-0.20996-0.65234-0.37598c-0.20605,0.17285-0.4502,0.2998-0.73242,0.38086
			c-0.28174,0.08105-0.60303,0.12207-0.96436,0.12207h-1.91211v-1.37598h1.91211c0.22461,0,0.4043-0.02148,0.53906-0.06348
			c0.13428-0.04297,0.23584-0.0957,0.30371-0.1582c0.06836-0.0625,0.11279-0.13281,0.13281-0.20996s0.03027-0.15234,0.03027-0.22656
			v-1.79102h1.37109v1.75293c0,0.16504,0.03662,0.29492,0.11035,0.38965c0.07373,0.09375,0.15723,0.16309,0.25146,0.20996
			c0.09375,0.0459,0.18701,0.07324,0.2793,0.08301c0.0918,0.00879,0.1543,0.01367,0.1875,0.01367H39.39258z M34.82715,39.86035
			l-0.92871-0.93945l0.91211-0.9502l0.95068,0.9502L34.82715,39.86035z M37.14307,39.85547l-0.92871-0.93945l0.91748-0.95117
			l0.95068,0.95117L37.14307,39.85547z"/>
		<path class="st0" d="M46.29541,36.81543h-0.16602c-0.32422,0-0.60596-0.03027-0.8457-0.09082
			c-0.23926-0.06152-0.45508-0.14551-0.64648-0.25488c-0.19141-0.1084-0.36768-0.23926-0.52783-0.39258
			c-0.16016-0.15234-0.32324-0.32324-0.48926-0.51074c-0.08838,0.23242-0.229,0.42871-0.42285,0.59082
			c-0.19336,0.16211-0.41455,0.29297-0.66309,0.39258s-0.51514,0.1709-0.79883,0.21289s-0.56348,0.05957-0.83984,0.05273H39.1709
			v-1.37598h1.80176c0.24316,0,0.46826-0.01367,0.67432-0.04199c0.20654-0.02734,0.38525-0.07324,0.53613-0.1377
			c0.15137-0.06445,0.271-0.15039,0.35938-0.25684c0.08838-0.10742,0.13818-0.23828,0.14941-0.39258
			c0-0.1582-0.06738-0.35938-0.20166-0.60254c-0.13477-0.24316-0.30957-0.51465-0.52539-0.8125
			c-0.21533-0.29883-0.4585-0.61426-0.72949-0.94824c-0.271-0.33301-0.54443-0.6709-0.8208-1.01367l0.23242-1.12207l4.79736-2.32715
			l0.56348,1.26074l-4.19482,1.93945c0.34619,0.46387,0.69189,0.92578,1.03613,1.38477
			c0.34473,0.45898,0.68994,0.91992,1.03662,1.38379c0.20264,0.26953,0.38867,0.50781,0.55811,0.71582
			c0.16943,0.20898,0.33984,0.38477,0.51123,0.52832s0.35107,0.25293,0.53857,0.3291c0.18799,0.0752,0.3999,0.11328,0.63574,0.11328
			h0.16602V36.81543z"/>
		<path class="st0" d="M52.08203,35.43945v1.37598h-0.81836c-0.31299,0-0.59863-0.04297-0.85645-0.12695
			c-0.25781-0.08496-0.47559-0.20996-0.65234-0.37598c-0.20605,0.17285-0.4502,0.2998-0.73242,0.38086
			c-0.28174,0.08105-0.60303,0.12207-0.96436,0.12207H46.146v-1.37598h1.91211c0.22461,0,0.4043-0.02148,0.53906-0.06348
			c0.13428-0.04297,0.23584-0.0957,0.30371-0.1582c0.06836-0.0625,0.11279-0.13281,0.13281-0.20996s0.03027-0.15234,0.03027-0.22656
			v-1.79102h1.37109v1.75293c0,0.16504,0.03662,0.29492,0.11035,0.38965c0.07373,0.09375,0.15723,0.16309,0.25146,0.20996
			c0.09375,0.0459,0.18701,0.07324,0.2793,0.08301c0.0918,0.00879,0.1543,0.01367,0.1875,0.01367H52.08203z M47.5166,39.86035
			l-0.92871-0.93945L47.5,37.9707l0.95068,0.9502L47.5166,39.86035z M49.83252,39.85547l-0.92871-0.93945l0.91748-0.95117
			l0.95068,0.95117L49.83252,39.85547z"/>
		<path class="st0" d="M51.91016,35.43945c0.354,0,0.62842-0.03027,0.82373-0.0918c0.19531-0.06055,0.33984-0.13672,0.43359-0.22949
			c0.09424-0.0918,0.15137-0.19336,0.17139-0.30371c0.02051-0.11035,0.03076-0.21582,0.03076-0.31445v-5.6543h1.37061V34.5
			c0,0.24316,0.07275,0.45312,0.21826,0.62988s0.35107,0.28027,0.61621,0.30957h0.13281v1.37598h-0.13818
			c-0.18457-0.00391-0.3457-0.0166-0.48389-0.03906c-0.13818-0.02148-0.26416-0.05762-0.37842-0.10742
			s-0.22412-0.11523-0.3291-0.19629s-0.21436-0.18066-0.32861-0.29883c-0.09619,0.11816-0.20947,0.21875-0.33984,0.30176
			c-0.13086,0.08301-0.28418,0.14941-0.45898,0.19922s-0.37305,0.08496-0.59424,0.10742
			c-0.2207,0.02246-0.46973,0.0332-0.74609,0.0332V35.43945z"/>
		<path class="st0" d="M59.60352,32.17285c0.00732,0.02539,0.02295,0.08691,0.04736,0.18262
			c0.02393,0.0957,0.05029,0.21289,0.08008,0.35059c0.0293,0.1377,0.05957,0.29199,0.09082,0.46191
			c0.03125,0.16895,0.06104,0.33984,0.08887,0.51074c0.02734,0.17188,0.04932,0.33789,0.06592,0.5s0.0249,0.30469,0.0249,0.42578
			c0,0.37988-0.0625,0.70801-0.18799,0.98633c-0.125,0.27832-0.28906,0.50781-0.4917,0.68848s-0.43018,0.31543-0.68262,0.40332
			c-0.25244,0.08887-0.50586,0.13281-0.75977,0.13281h-2.38232v-1.37598h2.4209c0.04443,0,0.10791-0.00684,0.19092-0.01953
			c0.08252-0.0127,0.16553-0.04688,0.24854-0.10254c0.08301-0.05469,0.15576-0.13867,0.21826-0.25098
			s0.09375-0.2666,0.09375-0.46191c0-0.08105-0.00635-0.17969-0.01904-0.2959c-0.01318-0.11621-0.03027-0.24023-0.05273-0.37305
			c-0.02197-0.13281-0.04688-0.26758-0.07471-0.40625c-0.02734-0.1377-0.0542-0.26855-0.08008-0.39258
			c-0.02588-0.12305-0.05127-0.23535-0.07715-0.33691s-0.04639-0.17969-0.06104-0.23438L59.60352,32.17285z M55.75146,38.63379
			l0.93945-0.93945l0.93945,0.9502l-0.93945,0.93945L55.75146,38.63379z M56.95605,40.19238l0.87354-0.87305l0.88428,0.88379
			l-0.87305,0.87305L56.95605,40.19238z M58.05615,38.64453l0.95068-0.93945l0.93945,0.95117l-0.93945,0.93945L58.05615,38.64453z"
			/>
		<path class="st0" d="M62.49951,36.81543h-1.37598V28.8457h1.37598V36.81543z"/>
		<path class="st0" d="M76.58203,32.99609v1.80762c0,0.54492-0.16602,0.99512-0.49707,1.34863
			c-0.41309,0.43848-1.01367,0.65918-1.80176,0.66309h-6.37842c-0.27246,0-0.53027-0.0459-0.77344-0.13867
			c-0.24316-0.0918-0.45898-0.22656-0.64697-0.40332c-0.07373-0.06934-0.1499-0.1543-0.229-0.25391
			c-0.07959-0.09961-0.15039-0.21777-0.21289-0.35352c-0.06299-0.13672-0.11426-0.29004-0.15479-0.46191
			c-0.04053-0.1709-0.06104-0.36328-0.06104-0.57715c0-0.18457,0.01855-0.38477,0.05566-0.59961
			c0.03662-0.21582,0.07812-0.41992,0.12402-0.61133c0.04639-0.19141,0.08936-0.35742,0.12988-0.49707
			s0.06641-0.22656,0.07764-0.25977l0.65771,0.20996l0.65186,0.2041c-0.03271,0.09961-0.06787,0.21875-0.10498,0.35645
			c-0.03662,0.13867-0.07178,0.28027-0.10498,0.42578s-0.06055,0.28711-0.08252,0.42285
			c-0.02246,0.13672-0.0332,0.25391-0.0332,0.35352c0,0.17676,0.0249,0.32031,0.07422,0.42871
			c0.0498,0.1084,0.11084,0.19141,0.18262,0.24902c0.07178,0.05664,0.1499,0.09473,0.23486,0.11328s0.16016,0.02734,0.22656,0.02734
			h6.32812c0.20215,0,0.37598-0.01953,0.51953-0.05762c0.14355-0.03906,0.25098-0.0957,0.32031-0.16895
			c0.08496-0.0957,0.12695-0.23438,0.12695-0.41504v-1.8125H76.58203z M70.19873,38.66113l0.99463-1.00586l1.01709,1.01758
			l-1.00586,1.00586L70.19873,38.66113z"/>
		<path class="st0" d="M77.7041,38.40723c0.29395,0,0.55664-0.01074,0.78711-0.03027
			c0.23047-0.02051,0.43457-0.0498,0.61328-0.08887c0.17871-0.03809,0.33594-0.08789,0.46973-0.14941
			c0.13477-0.06055,0.25195-0.13281,0.35156-0.21777c0.1543-0.12598,0.27148-0.27148,0.35059-0.43652
			c0.0791-0.16602,0.12598-0.38867,0.1416-0.66895h-0.85156c-0.18457,0-0.37207-0.01465-0.56348-0.04395
			c-0.19238-0.03027-0.37598-0.08008-0.55273-0.15234s-0.34375-0.16504-0.5-0.2793
			c-0.15723-0.11426-0.29297-0.25488-0.40918-0.42285c-0.11621-0.16699-0.20898-0.36523-0.27637-0.59375
			c-0.06836-0.22852-0.10254-0.49023-0.10254-0.78516c0-0.25391,0.02246-0.47949,0.06641-0.67676s0.10059-0.37109,0.16895-0.52246
			c0.06738-0.15137,0.14453-0.2832,0.22852-0.39551c0.08496-0.1123,0.16602-0.21094,0.24316-0.29492
			c0.22168-0.22168,0.47168-0.3916,0.75195-0.51172s0.58203-0.17969,0.90625-0.17969c0.40234,0,0.74512,0.06934,1.03125,0.20703
			c0.28516,0.13867,0.51953,0.3291,0.70215,0.57227c0.18164,0.24316,0.31543,0.53125,0.40039,0.86523
			c0.08496,0.33301,0.12695,0.69531,0.12695,1.08594v1.96191c0,0.54883-0.08301,1.01074-0.24902,1.38477
			c-0.16504,0.37402-0.41797,0.69531-0.75684,0.96387c-0.16992,0.13281-0.35352,0.24805-0.55273,0.3457
			s-0.42188,0.17969-0.66895,0.24609s-0.52246,0.11523-0.82617,0.14648s-0.64746,0.04688-1.03027,0.04688V38.40723z
			 M79.52734,33.33301c-0.3125,0-0.56152,0.09766-0.74609,0.29297c-0.18359,0.19531-0.27637,0.5-0.27637,0.91211
			c0,0.16211,0.03223,0.30078,0.09668,0.41504s0.14746,0.20703,0.24902,0.27832c0.10156,0.07227,0.21484,0.125,0.33984,0.1582
			s0.25098,0.0498,0.37598,0.0498h0.85156V34.6875c0-0.20996-0.0166-0.38965-0.0498-0.53906s-0.07715-0.27344-0.12988-0.37305
			c-0.05371-0.09961-0.11426-0.17871-0.18262-0.2373c-0.06836-0.05957-0.13477-0.10352-0.19922-0.13281
			s-0.12598-0.04883-0.18555-0.05762C79.6123,33.33789,79.56445,33.33301,79.52734,33.33301z"/>
	</g>
	<g>
		<path class="st0" d="M68.37939,20.96045h-0.08838c-0.37695,0-0.70605-0.08057-0.9873-0.24219
			c-0.28174-0.16113-0.49756-0.38672-0.64844-0.67627c-0.0752,0.10352-0.16553,0.19385-0.27002,0.27002
			c-0.10498,0.07666-0.22314,0.14453-0.35547,0.20312c-0.0752,0.03076-0.16211,0.05566-0.26123,0.07422
			c-0.09912,0.01904-0.20361,0.02832-0.31445,0.02832s-0.22412-0.0127-0.34082-0.03857s-0.23047-0.06982-0.34082-0.13086
			c-0.16992-0.08936-0.30566-0.20801-0.4082-0.35498c-0.10254-0.14746-0.16992-0.3208-0.20312-0.521
			c-0.04492-0.24512-0.02979-0.48242,0.04395-0.71191c0.07422-0.22998,0.20361-0.43994,0.38721-0.63086
			c0.32275-0.32959,0.77832-0.58154,1.36719-0.75586l-0.06738-0.38184l0.65039-0.1377
			c0.05615,0.23584,0.10596,0.44482,0.14795,0.62695c0.04248,0.18262,0.08008,0.34717,0.11328,0.49316
			c0.00684,0.02832,0.01807,0.0752,0.03369,0.14111c0.01514,0.06592,0.0332,0.14209,0.05469,0.22803
			c0.021,0.08594,0.04346,0.17822,0.06689,0.27734c0.02393,0.09863,0.04736,0.19531,0.0708,0.28955s0.0459,0.18262,0.06738,0.26514
			c0.021,0.08252,0.03955,0.15088,0.05615,0.20459c0.04736,0.17676,0.1167,0.31885,0.2085,0.42578
			c0.0918,0.10742,0.19189,0.18994,0.30029,0.24756s0.21875,0.09521,0.33057,0.11279s0.21143,0.02686,0.29834,0.02686h0.08838
			V20.96045z M66.13623,18.1167c-0.2334,0.06836-0.43945,0.14941-0.61865,0.24365c-0.17871,0.09424-0.32666,0.19824-0.44336,0.3125
			c-0.11621,0.11426-0.19922,0.2373-0.24902,0.36914c-0.04932,0.13184-0.06104,0.27002-0.03516,0.41357
			c0.0166,0.09863,0.05176,0.18164,0.10596,0.24902c0.0542,0.06689,0.11768,0.12061,0.19092,0.16064
			c0.05176,0.03076,0.10791,0.05225,0.16943,0.06543c0.06104,0.0127,0.12256,0.02002,0.18359,0.021
			c0.06152,0.00146,0.12061-0.00293,0.17871-0.01221c0.05762-0.00928,0.10889-0.02344,0.15332-0.04248
			c0.29688-0.12256,0.47021-0.34473,0.51953-0.66748c0.0166-0.11768,0.01953-0.22314,0.00879-0.31641
			c-0.01074-0.09277-0.01953-0.15576-0.02637-0.18896L66.13623,18.1167z"/>
		<path class="st0" d="M73.00684,19.54736c-0.01367,0.00928-0.07275,0.04932-0.17627,0.12012s-0.24121,0.15674-0.41309,0.25781
			c0.02588,0.0874,0.06738,0.15479,0.12549,0.20312c0.05762,0.04834,0.11816,0.08496,0.18164,0.10938
			c0.06348,0.0249,0.12354,0.04004,0.18018,0.0459c0.05664,0.00635,0.09619,0.00928,0.11963,0.00928h0.74219v0.66748h-0.74219
			c-0.17139,0-0.33203-0.02539-0.48145-0.07617c-0.1499-0.05029-0.28467-0.125-0.40479-0.22412
			c-0.13672-0.11523-0.24023-0.25439-0.31104-0.41699c-0.18115,0.08984-0.37549,0.17725-0.58252,0.26318
			c-0.20752,0.08594-0.42236,0.1626-0.64502,0.22998c-0.22266,0.06689-0.45117,0.12109-0.68506,0.16211
			c-0.23438,0.0415-0.46826,0.06201-0.70166,0.06201h-0.99268v-0.66748h0.99268c0.26416,0,0.53076-0.03125,0.80029-0.09375
			s0.5293-0.14014,0.7793-0.2334c0.24951-0.09277,0.48389-0.19434,0.70264-0.30371c0.21924-0.10938,0.41113-0.2124,0.57617-0.30908
			c-0.22852-0.0918-0.45654-0.18115-0.68359-0.26855c-0.22754-0.08691-0.43506-0.16406-0.62354-0.23145
			c-0.18848-0.06689-0.35059-0.12158-0.48584-0.16406c-0.13574-0.04248-0.22559-0.06738-0.27051-0.07422
			c-0.04004,0-0.08154,0.00342-0.12549,0.01074c-0.04346,0.00684-0.08643,0.02783-0.12891,0.06348
			c-0.04199,0.03516-0.0835,0.08984-0.12354,0.16406s-0.07764,0.17871-0.11279,0.31299l-0.64648-0.16992
			c0.18115-0.69727,0.5625-1.04541,1.14453-1.04541c0.01611,0,0.03564,0.00049,0.05811,0.00146
			c0.02246,0.00146,0.05664,0.00732,0.10254,0.01758c0.0459,0.01074,0.10547,0.02734,0.17822,0.0498
			c0.07324,0.02246,0.16846,0.05322,0.28613,0.09326c0.11816,0.04004,0.26025,0.09131,0.42773,0.15381
			c0.16699,0.0625,0.36719,0.13965,0.60059,0.23145l1.25049,0.46289L73.00684,19.54736z M69.24854,16.50537l0.60059-0.60742
			l0.61475,0.61475l-0.60791,0.60742L69.24854,16.50537z"/>
		<path class="st0" d="M79.19629,20.86328c-0.17383-0.06494-0.32031-0.16211-0.4375-0.2915h-0.00391l-0.05273,0.05664
			c-0.11523,0.11084-0.24609,0.19385-0.39258,0.24902c-0.14551,0.05518-0.30273,0.08301-0.46973,0.08301
			c-0.44043,0-0.78223-0.12695-1.02441-0.38135c-0.11816,0.12451-0.25293,0.21826-0.40625,0.28076s-0.30859,0.0957-0.4668,0.10059
			h-0.0459c-0.41699-0.00684-0.74121-0.12939-0.97461-0.36719c-0.01465,0.01855-0.03027,0.03516-0.0498,0.04932
			c-0.2373,0.21191-0.57324,0.31787-1.00684,0.31787H73.625v-0.66748h0.24023c0.15137,0,0.27246-0.01416,0.36621-0.04248
			c0.09277-0.02832,0.16504-0.07031,0.2168-0.12549s0.08691-0.12256,0.10449-0.20166
			c0.01758-0.07861,0.02637-0.16895,0.02637-0.27002v-1.07764h0.66797v1.06006c0,0.22852,0.05469,0.39453,0.16602,0.49805
			c0.11035,0.10352,0.2832,0.15674,0.51953,0.15918c0.04199-0.00244,0.09473-0.01074,0.15723-0.0249
			c0.06152-0.01416,0.12207-0.04346,0.17969-0.08838s0.10742-0.10889,0.15039-0.19238
			c0.04199-0.0835,0.06348-0.19482,0.06348-0.33398v-1.07764h0.66406v1.06006c0,0.22852,0.05469,0.39502,0.16406,0.5
			c0.10938,0.10449,0.28613,0.15723,0.52832,0.15723c0.06836,0,0.13672-0.01074,0.20508-0.03223
			c0.06836-0.021,0.12891-0.05615,0.18359-0.10596c0.05371-0.04932,0.09863-0.11328,0.13379-0.19238
			c0.03613-0.0791,0.05566-0.17578,0.06055-0.2915v-1.09521h0.66797v1.09521c0.00488,0.2168,0.06445,0.37451,0.17969,0.47363
			c0.11523,0.09863,0.29102,0.14844,0.52637,0.14844h0.21582v0.66748h-0.21582
			C79.57129,20.96045,79.37109,20.92822,79.19629,20.86328z"/>
		<path class="st0" d="M81.80664,18.08496c0.00488,0.01367,0.01465,0.05176,0.02832,0.11279
			c0.01465,0.06152,0.03027,0.13721,0.04785,0.22803c0.01758,0.09033,0.03711,0.19043,0.05859,0.30029
			c0.02051,0.10938,0.04004,0.22021,0.05664,0.33203c0.01562,0.11182,0.03027,0.21973,0.04199,0.32324
			s0.01758,0.19434,0.01758,0.27197c0,0.22607-0.03711,0.4209-0.11133,0.58447c-0.07422,0.16406-0.1709,0.29932-0.28906,0.40625
			c-0.11914,0.10742-0.25293,0.18701-0.40137,0.23877s-0.29785,0.07764-0.44922,0.07764h-0.90039v-0.66748h0.90039
			c0.03613,0,0.08594-0.00537,0.15039-0.01611c0.06543-0.01074,0.12988-0.03711,0.19434-0.07959
			c0.06543-0.04248,0.12109-0.10596,0.16992-0.19092c0.04785-0.08447,0.07227-0.20215,0.07227-0.35303
			c0-0.05176-0.00391-0.11719-0.0127-0.19629c-0.00781-0.07861-0.01855-0.16357-0.03125-0.25439
			c-0.01367-0.09033-0.02832-0.18359-0.04395-0.27881c-0.0166-0.09521-0.0332-0.18555-0.0498-0.27051
			c-0.0166-0.08447-0.03223-0.16016-0.0459-0.22607c-0.01465-0.06592-0.02637-0.11523-0.03516-0.14844L81.80664,18.08496z
			 M80.62305,16.62549l0.60059-0.60742l0.61523,0.61475l-0.60742,0.60742L80.62305,16.62549z"/>
	</g>
	<g>
		<path class="st0" d="M103.61633,22.56763c-2.53642,4.40224-0.92382,11.08254,1.88119,15.13306
			c1.40035,2.02533,2.81792,3.84307,4.76012,3.84307c0.03652,0,0.07305-0.00049,0.11044-0.00234
			c0.91225-0.03603,1.5719-0.31716,2.2093-0.58857c0.71536-0.30498,1.45557-0.62018,2.61673-0.62018
			c1.10435,0,1.80913,0.30511,2.4908,0.60001c0.67146,0.29072,1.3637,0.5914,2.38602,0.57222
			c2.18716-0.04083,3.53033-2.00233,4.71498-3.73312c1.23642-1.80667,1.8566-3.56107,2.06566-4.23118l0.00861-0.02693
			c0.03985-0.11916-0.01636-0.24878-0.13073-0.30167c-0.00332-0.00148-0.01488-0.00627-0.01771-0.00726
			c-0.38529-0.15754-3.76436-1.65627-3.79941-5.74197c-0.03308-3.31894,2.53458-5.07617,3.04949-5.39517l0.0241-0.01488
			c0.05571-0.03603,0.09457-0.09272,0.10748-0.15802c0.01353-0.06493-0.00037-0.13257-0.03788-0.18742
			c-1.77211-2.59361-4.4887-2.98406-5.58209-3.03116c-0.15901-0.01586-0.32282-0.02398-0.48712-0.02398
			c-1.2845,0-2.51478,0.48515-3.5034,0.87474c-0.68266,0.26945-1.27209,0.5015-1.67841,0.5015
			c-0.45686,0-1.04974-0.23489-1.73621-0.50728c-0.91741-0.36463-1.95793-0.77722-3.05945-0.77722
			c-0.02595,0-0.0519,0.00049-0.07735,0.00086C107.37048,18.78224,104.95039,20.2474,103.61633,22.56763L103.61633,22.56763z
			 M103.61633,22.56763"/>
		<path class="st0" d="M120.4754,11.53711c-1.55063,0.06346-3.41068,1.01789-4.52277,2.32023
			c-0.94497,1.09487-1.86829,2.91974-1.62466,4.75962c0.01488,0.11535,0.10847,0.20427,0.22431,0.21287
			c0.10465,0.00812,0.21189,0.01242,0.31802,0.01242c1.51656,0,3.15229-0.83871,4.26918-2.1895
			c1.17592-1.4263,1.77064-3.25707,1.59048-4.89662C120.71606,11.62787,120.60268,11.53232,120.4754,11.53711L120.4754,11.53711z
			 M120.4754,11.53711"/>
	</g>
</g>
</svg>
