<?xml version="1.0" encoding="utf-8"?>
<!-- Generator: Adobe Illustrator 23.0.1, SVG Export Plug-In . SVG Version: 6.00 Build 0)  -->
<svg version="1.1" id="Layer_1" xmlns="http://www.w3.org/2000/svg" xmlns:xlink="http://www.w3.org/1999/xlink" x="0px" y="0px"
	 viewBox="0 0 160.2 62.6" style="enable-background:new 0 0 160.2 62.6;" xml:space="preserve">
<g>
	<path d="M74.6,25.4c-0.4,0-0.7-0.1-0.9-0.2c-0.1-0.1-0.4-0.3-0.9-0.8c-0.3,0.7-0.9,1.1-1.6,1.1c-0.5,0-0.9-0.2-1.2-0.5
		s-0.5-0.7-0.5-1.2c0-0.5,0.3-1.1,1-1.8l-0.3-0.3l0.6-0.6l2.7,2.8c0.2,0.2,0.4,0.4,0.5,0.4c0.1,0.1,0.3,0.1,0.6,0.1V25.4z M72,23.8
		c0-0.2-0.1-0.4-0.2-0.5l-0.7-0.7c-0.3,0.3-0.5,0.4-0.5,0.5c-0.2,0.2-0.3,0.5-0.3,0.7c0,0.2,0.1,0.4,0.2,0.6
		c0.2,0.1,0.4,0.2,0.6,0.2c0.2,0,0.4-0.1,0.6-0.2S72,24.1,72,23.8z"/>
	<path d="M79.7,25.4c-0.8,0-1.3-0.2-1.4-0.6c0-0.1-0.1-0.3-0.1-0.5c-0.9,0.5-1.5,0.8-1.9,0.9c-0.4,0.1-1.1,0.1-2.1,0.1v-0.9
		c1.2,0,2-0.1,2.5-0.3c0.1,0,0.7-0.4,1.7-0.9c-0.1-0.2-0.3-0.4-0.6-0.5c-0.1,0-0.4,0-0.8,0h-1.6l-0.1-0.9h2.2c1.2,0,1.8,0.6,1.8,1.8
		l-0.8,0.5c0,0.3,0.4,0.4,1.1,0.4V25.4z M77.5,20.1c0,0.2-0.1,0.3-0.2,0.4c-0.1,0.1-0.3,0.2-0.4,0.2c-0.2,0-0.4-0.1-0.5-0.2
		c-0.1-0.1-0.2-0.3-0.2-0.5c0-0.4,0.2-0.5,0.6-0.5C77.2,19.5,77.5,19.7,77.5,20.1z"/>
	<path d="M87.5,25.4c-0.3,0-0.6,0-0.7-0.1c-0.2-0.1-0.4-0.2-0.5-0.4c-0.3,0.4-0.6,0.6-1,0.6c-0.4,0-0.8-0.2-1.2-0.6
		c-0.3,0.4-0.8,0.6-1.3,0.6c-0.5,0-0.9-0.2-1.2-0.6c-0.2,0.3-0.5,0.4-1,0.5c-0.2,0-0.6,0-1.2,0v-0.9h0.8c0.3,0,0.6,0,0.7-0.1
		c0.2-0.1,0.3-0.3,0.3-0.7v-1.1h0.9v1.3c0,0.2,0.1,0.4,0.2,0.5c0.2,0.1,0.3,0.2,0.5,0.2c0.4,0,0.6-0.2,0.6-0.6v-1.5h0.9v1.3
		c0,0.2,0.1,0.4,0.2,0.5c0.1,0.1,0.3,0.2,0.5,0.2c0.4,0,0.6-0.2,0.6-0.6v-1.5h0.9v1.4c0,0.2,0.1,0.4,0.3,0.5c0.1,0,0.3,0.1,0.7,0.1
		V25.4z"/>
	<path d="M89.9,23.9c0,0.4-0.1,0.7-0.4,1c-0.3,0.3-0.6,0.5-0.9,0.5h-1.5v-0.9c0.9,0,1.5,0,1.6-0.1c0.2-0.1,0.3-0.3,0.3-0.8
		c0-0.1,0-0.3,0-0.5c0-0.2,0-0.4,0-0.5h0.9V23.9z M89,21.2c0,0.2-0.1,0.3-0.2,0.4c-0.1,0.1-0.3,0.2-0.4,0.2c-0.5,0-0.7-0.2-0.7-0.6
		c0-0.4,0.2-0.5,0.6-0.5C88.8,20.6,89,20.8,89,21.2z"/>
</g>
<path d="M17.4,45c-0.3,0-0.6,0-1-0.1c-0.3-0.1-0.6-0.2-0.9-0.3c-0.3-0.1-0.5-0.3-0.8-0.5c-0.2-0.2-0.4-0.4-0.6-0.7
	c-0.2-0.3-0.4-0.7-0.5-1.1c-0.1-0.4-0.2-0.8-0.2-1.2c0-0.3,0-0.5,0-0.8c0-0.3,0.1-0.5,0.2-0.8c0.1-0.3,0.2-0.5,0.3-0.8
	c0.1-0.3,0.3-0.6,0.4-1l1.4,0.7c-0.1,0.3-0.3,0.6-0.4,0.8c-0.1,0.2-0.2,0.5-0.2,0.7c-0.1,0.2-0.1,0.4-0.1,0.6c0,0.2,0,0.4,0,0.6
	c0,0.3,0,0.5,0.1,0.8c0.1,0.3,0.2,0.5,0.3,0.7c0.2,0.3,0.5,0.5,0.8,0.7c0.3,0.2,0.7,0.3,1.1,0.3h1.3c0.4,0,0.8,0,1.1-0.1
	c0.3-0.1,0.5-0.2,0.6-0.4c0.2-0.2,0.3-0.4,0.3-0.6c0.1-0.2,0.1-0.5,0.1-0.8v-4.1h1.5v1.9c0,0.3,0.1,0.5,0.3,0.6
	c0.2,0.1,0.4,0.2,0.7,0.2h0.5v1.5h-0.5c-0.2,0-0.3,0-0.5,0c-0.2,0-0.3-0.1-0.5-0.1v0c0,1.1-0.3,2-0.9,2.6c-0.6,0.6-1.5,0.9-2.7,0.9
	H17.4z M17.2,37l1.1-1.1l1.1,1.1l-1.1,1.1L17.2,37z"/>
<path d="M23.4,40.2h0.8c0.2,0,0.4,0,0.6-0.1c0.2,0,0.3-0.1,0.4-0.2c0.1-0.1,0.1-0.2,0.2-0.3c0-0.1,0-0.2,0-0.4v-1.8h1.5v1.8
	c0,0.3,0.1,0.6,0.2,0.7c0.2,0.2,0.4,0.2,0.8,0.2h0c0.1,0,0.1,0,0.2,0c0.1,0,0.2-0.1,0.3-0.1c0.1-0.1,0.2-0.2,0.2-0.3
	c0.1-0.1,0.1-0.3,0.1-0.5v-1.8h1.5v1.8c0,0.3,0.1,0.6,0.2,0.7c0.2,0.2,0.4,0.2,0.8,0.2c0.1,0,0.2,0,0.3,0c0.1,0,0.2-0.1,0.3-0.2
	c0.1-0.1,0.1-0.2,0.2-0.3c0-0.1,0.1-0.3,0.1-0.4v0v-1.8h1.5v1.8c0,0.3,0.1,0.5,0.3,0.7c0.2,0.1,0.5,0.2,0.9,0.2h0.6v1.5h-0.6
	c-0.4,0-0.8,0-1.1-0.1c-0.3-0.1-0.6-0.2-0.8-0.5c-0.2,0.2-0.5,0.3-0.7,0.4c-0.3,0.1-0.6,0.2-0.9,0.2c-0.4,0-0.7,0-1-0.1
	c-0.3-0.1-0.5-0.2-0.8-0.5c-0.2,0.2-0.5,0.3-0.7,0.4c-0.3,0.1-0.5,0.2-0.8,0.2c-0.4,0-0.7,0-1-0.1c-0.3-0.1-0.6-0.2-0.8-0.4
	c-0.5,0.4-1.1,0.6-1.9,0.6h-0.8V40.2z M29.3,34.9l-1.1,1.1l-1.1-1l1.1-1.1L29.3,34.9z M30.6,33.1l-1,1l-1-1l1-1L30.6,33.1z M32,34.9
	l-1,1l-1.1-1l1.1-1.1L32,34.9z"/>
<path d="M41.7,40.2v1.5h-0.9c-0.4,0-0.7,0-1-0.1c-0.3-0.1-0.5-0.2-0.7-0.4c-0.2,0.2-0.5,0.3-0.8,0.4c-0.3,0.1-0.7,0.1-1.1,0.1h-2.1
	v-1.5h2.1c0.3,0,0.5,0,0.6-0.1c0.1,0,0.3-0.1,0.3-0.2c0.1-0.1,0.1-0.1,0.1-0.2c0-0.1,0-0.2,0-0.3v-2h1.5v2c0,0.2,0,0.3,0.1,0.4
	c0.1,0.1,0.2,0.2,0.3,0.2c0.1,0.1,0.2,0.1,0.3,0.1c0.1,0,0.2,0,0.2,0H41.7z M36.6,45.1l-1-1l1-1.1l1.1,1.1L36.6,45.1z M39.2,45.1
	l-1-1l1-1.1l1.1,1.1L39.2,45.1z"/>
<path d="M49.5,41.7h-0.2c-0.4,0-0.7,0-0.9-0.1c-0.3-0.1-0.5-0.2-0.7-0.3c-0.2-0.1-0.4-0.3-0.6-0.4c-0.2-0.2-0.4-0.4-0.5-0.6
	c-0.1,0.3-0.3,0.5-0.5,0.7c-0.2,0.2-0.5,0.3-0.7,0.4c-0.3,0.1-0.6,0.2-0.9,0.2c-0.3,0-0.6,0.1-0.9,0.1h-1.9v-1.5h2
	c0.3,0,0.5,0,0.8,0c0.2,0,0.4-0.1,0.6-0.2c0.2-0.1,0.3-0.2,0.4-0.3c0.1-0.1,0.2-0.3,0.2-0.4c0-0.2-0.1-0.4-0.2-0.7
	c-0.2-0.3-0.3-0.6-0.6-0.9c-0.2-0.3-0.5-0.7-0.8-1.1c-0.3-0.4-0.6-0.7-0.9-1.1l0.3-1.3l5.4-2.6l0.6,1.4l-4.7,2.2
	c0.4,0.5,0.8,1,1.2,1.5c0.4,0.5,0.8,1,1.2,1.5c0.2,0.3,0.4,0.6,0.6,0.8c0.2,0.2,0.4,0.4,0.6,0.6c0.2,0.2,0.4,0.3,0.6,0.4
	c0.2,0.1,0.4,0.1,0.7,0.1h0.2V41.7z"/>
<path d="M55.9,40.2v1.5H55c-0.4,0-0.7,0-1-0.1c-0.3-0.1-0.5-0.2-0.7-0.4c-0.2,0.2-0.5,0.3-0.8,0.4c-0.3,0.1-0.7,0.1-1.1,0.1h-2.1
	v-1.5h2.1c0.3,0,0.5,0,0.6-0.1c0.2,0,0.3-0.1,0.3-0.2c0.1-0.1,0.1-0.1,0.1-0.2c0-0.1,0-0.2,0-0.3v-2h1.5v2c0,0.2,0,0.3,0.1,0.4
	c0.1,0.1,0.2,0.2,0.3,0.2c0.1,0.1,0.2,0.1,0.3,0.1c0.1,0,0.2,0,0.2,0H55.9z M50.8,45.1l-1-1l1-1.1l1.1,1.1L50.8,45.1z M53.4,45.1
	l-1-1l1-1.1l1.1,1.1L53.4,45.1z"/>
<path d="M55.8,40.2c0.4,0,0.7,0,0.9-0.1c0.2-0.1,0.4-0.2,0.5-0.3c0.1-0.1,0.2-0.2,0.2-0.3c0-0.1,0-0.2,0-0.4v-6.3h1.5v6.3
	c0,0.3,0.1,0.5,0.2,0.7c0.2,0.2,0.4,0.3,0.7,0.3H60v1.5h-0.2c-0.2,0-0.4,0-0.5,0c-0.2,0-0.3-0.1-0.4-0.1c-0.1-0.1-0.3-0.1-0.4-0.2
	c-0.1-0.1-0.2-0.2-0.4-0.3c-0.1,0.1-0.2,0.2-0.4,0.3c-0.1,0.1-0.3,0.2-0.5,0.2c-0.2,0.1-0.4,0.1-0.7,0.1c-0.2,0-0.5,0-0.8,0V40.2z"
	/>
<path d="M64.4,36.5c0,0,0,0.1,0.1,0.2c0,0.1,0.1,0.2,0.1,0.4c0,0.2,0.1,0.3,0.1,0.5c0,0.2,0.1,0.4,0.1,0.6c0,0.2,0.1,0.4,0.1,0.6
	c0,0.2,0,0.3,0,0.5c0,0.4-0.1,0.8-0.2,1.1c-0.1,0.3-0.3,0.6-0.6,0.8c-0.2,0.2-0.5,0.4-0.8,0.4c-0.3,0.1-0.6,0.1-0.9,0.1h-2.7v-1.5
	h2.7c0,0,0.1,0,0.2,0c0.1,0,0.2-0.1,0.3-0.1c0.1-0.1,0.2-0.2,0.2-0.3c0.1-0.1,0.1-0.3,0.1-0.5c0-0.1,0-0.2,0-0.3
	c0-0.1,0-0.3-0.1-0.4c0-0.1-0.1-0.3-0.1-0.5c0-0.2-0.1-0.3-0.1-0.4c0-0.1-0.1-0.3-0.1-0.4c0-0.1-0.1-0.2-0.1-0.3L64.4,36.5z
	 M60.1,43.7l1.1-1l1.1,1.1l-1.1,1L60.1,43.7z M61.4,45.5l1-1l1,1l-1,1L61.4,45.5z M62.6,43.7l1.1-1l1.1,1.1l-1.1,1L62.6,43.7z"/>
<path d="M67.6,41.7h-1.5v-8.9h1.5V41.7z"/>
<path d="M83.4,37.4v2c0,0.6-0.2,1.1-0.6,1.5c-0.5,0.5-1.1,0.7-2,0.7h-7.1c-0.3,0-0.6-0.1-0.9-0.2c-0.3-0.1-0.5-0.3-0.7-0.4
	c-0.1-0.1-0.2-0.2-0.3-0.3c-0.1-0.1-0.2-0.2-0.2-0.4c-0.1-0.2-0.1-0.3-0.2-0.5c0-0.2-0.1-0.4-0.1-0.6c0-0.2,0-0.4,0.1-0.7
	c0-0.2,0.1-0.5,0.1-0.7c0.1-0.2,0.1-0.4,0.1-0.6c0-0.2,0.1-0.3,0.1-0.3l0.7,0.2l0.7,0.2c0,0.1-0.1,0.2-0.1,0.4
	c0,0.2-0.1,0.3-0.1,0.5c0,0.2-0.1,0.3-0.1,0.5c0,0.2,0,0.3,0,0.4c0,0.2,0,0.4,0.1,0.5c0.1,0.1,0.1,0.2,0.2,0.3
	c0.1,0.1,0.2,0.1,0.3,0.1c0.1,0,0.2,0,0.3,0h7.1c0.2,0,0.4,0,0.6-0.1c0.2,0,0.3-0.1,0.4-0.2c0.1-0.1,0.1-0.3,0.1-0.5v-2H83.4z
	 M76.2,43.7l1.1-1.1l1.1,1.1l-1.1,1.1L76.2,43.7z"/>
<path d="M84.6,43.5c0.3,0,0.6,0,0.9,0c0.3,0,0.5-0.1,0.7-0.1c0.2,0,0.4-0.1,0.5-0.2c0.1-0.1,0.3-0.1,0.4-0.2
	c0.2-0.1,0.3-0.3,0.4-0.5c0.1-0.2,0.1-0.4,0.2-0.7h-1c-0.2,0-0.4,0-0.6,0c-0.2,0-0.4-0.1-0.6-0.2c-0.2-0.1-0.4-0.2-0.6-0.3
	c-0.2-0.1-0.3-0.3-0.5-0.5c-0.1-0.2-0.2-0.4-0.3-0.7c-0.1-0.3-0.1-0.5-0.1-0.9c0-0.3,0-0.5,0.1-0.8c0-0.2,0.1-0.4,0.2-0.6
	c0.1-0.2,0.2-0.3,0.3-0.4c0.1-0.1,0.2-0.2,0.3-0.3c0.2-0.2,0.5-0.4,0.8-0.6c0.3-0.1,0.7-0.2,1-0.2c0.4,0,0.8,0.1,1.2,0.2
	c0.3,0.2,0.6,0.4,0.8,0.6c0.2,0.3,0.4,0.6,0.4,1c0.1,0.4,0.1,0.8,0.1,1.2v2.2c0,0.6-0.1,1.1-0.3,1.5c-0.2,0.4-0.5,0.8-0.8,1.1
	c-0.2,0.1-0.4,0.3-0.6,0.4c-0.2,0.1-0.5,0.2-0.7,0.3c-0.3,0.1-0.6,0.1-0.9,0.2c-0.3,0-0.7,0.1-1.2,0.1V43.5z M86.7,37.8
	c-0.4,0-0.6,0.1-0.8,0.3c-0.2,0.2-0.3,0.6-0.3,1c0,0.2,0,0.3,0.1,0.5c0.1,0.1,0.2,0.2,0.3,0.3c0.1,0.1,0.2,0.1,0.4,0.2
	c0.1,0,0.3,0.1,0.4,0.1h1v-0.8c0-0.2,0-0.4-0.1-0.6c0-0.2-0.1-0.3-0.1-0.4c-0.1-0.1-0.1-0.2-0.2-0.3c-0.1-0.1-0.1-0.1-0.2-0.1
	c-0.1,0-0.1-0.1-0.2-0.1C86.8,37.8,86.7,37.8,86.7,37.8z"/>
<path d="M113.6,25.8c-2.8,4.9-1,12.4,2.1,16.9c1.6,2.3,3.2,4.3,5.3,4.3c0,0,0.1,0,0.1,0c1,0,1.8-0.4,2.5-0.7
	c0.8-0.3,1.6-0.7,2.9-0.7c1.2,0,2,0.3,2.8,0.7c0.8,0.3,1.5,0.7,2.7,0.6c2.4,0,4-2.2,5.3-4.2c1.4-2,2.1-4,2.3-4.7l0,0
	c0-0.1,0-0.3-0.1-0.3c0,0,0,0,0,0c-0.4-0.2-4.2-1.8-4.3-6.4c0-3.7,2.8-5.7,3.4-6l0,0c0.1,0,0.1-0.1,0.1-0.2c0-0.1,0-0.1,0-0.2
	c-2-2.9-5-3.3-6.2-3.4c-0.2,0-0.4,0-0.5,0c-1.4,0-2.8,0.5-3.9,1c-0.8,0.3-1.4,0.6-1.9,0.6c-0.5,0-1.2-0.3-1.9-0.6
	c-1-0.4-2.2-0.9-3.4-0.9c0,0-0.1,0-0.1,0C117.8,21.6,115.1,23.2,113.6,25.8L113.6,25.8z M113.6,25.8"/>
<path d="M132.5,13.5c-1.7,0.1-3.8,1.1-5.1,2.6c-1.1,1.2-2.1,3.3-1.8,5.3c0,0.1,0.1,0.2,0.3,0.2c0.1,0,0.2,0,0.4,0
	c1.7,0,3.5-0.9,4.8-2.4c1.3-1.6,2-3.6,1.8-5.5C132.8,13.6,132.7,13.5,132.5,13.5L132.5,13.5z M132.5,13.5"/>
<path d="M149.7,60H9.4c-4.6,0-8.3-3.7-8.3-8.3V10.9c0-4.6,3.7-8.3,8.3-8.3h140.3c4.6,0,8.3,3.7,8.3,8.3v40.8
	C158,56.2,154.3,60,149.7,60z M9.4,3.4c-4.1,0-7.5,3.3-7.5,7.5v40.8c0,4.1,3.4,7.5,7.5,7.5h140.3c4.1,0,7.5-3.3,7.5-7.5V10.9
	c0-4.1-3.4-7.5-7.5-7.5H9.4z"/>
<g>
</g>
<g>
</g>
<g>
</g>
<g>
</g>
<g>
</g>
<g>
</g>
</svg>
