<svg width="220" height="65" viewBox="0 0 220 65" fill="none" xmlns="http://www.w3.org/2000/svg">
<path d="M46.5079 31.7805L32.6294 45.8409C32.6294 45.8444 32.6294 45.8444 32.6331 45.848C33.058 47.375 34.5176 48.4999 36.2505 48.4999C36.9452 48.4999 37.5955 48.3201 38.1535 48.0062L38.1978 47.9815L53.8204 39.3767L46.5079 31.7805Z" fill="#EA4335"/>
<path d="M60.5491 29.3896L60.5343 29.379L53.7908 25.6479L46.1938 32.1016L53.8167 39.3768L60.5269 35.681C61.7019 35.078 62.5 33.893 62.5 32.5283C62.5 31.1741 61.713 29.9962 60.5491 29.3896Z" fill="#FBBC04"/>
<path d="M32.6293 19.1592C32.5443 19.4519 32.5 19.7587 32.5 20.0796V44.9207C32.5 45.2381 32.5443 45.5484 32.6293 45.8411L46.9845 32.1404L32.6293 19.1592Z" fill="#4285F4"/>
<path d="M46.6114 32.5L53.7946 25.6444L38.1904 17.0114C37.6214 16.6869 36.96 16.5 36.2505 16.5C34.5176 16.5 33.0543 17.625 32.6294 19.1555C32.6294 19.1555 32.6294 19.1555 32.6294 19.159L46.6114 32.5Z" fill="#34A853"/>
<path d="M183.655 13.2355C183.447 13.5349 183.16 13.8604 182.796 14.212C182.401 13.8995 182.083 13.612 181.839 13.3473C182.295 12.8916 182.604 12.5661 182.769 12.3708C183.052 12.6781 183.347 12.9672 183.655 13.2355ZM181.663 22.2588C181.451 22.2588 181.159 22.1755 180.791 22.0088C180.421 21.8421 180.131 21.6755 179.917 21.5115L180.1 21.0688C180.585 21.1677 181.005 21.2172 181.357 21.2172C182.025 21.2172 182.596 21.0192 183.069 20.6224C183.541 20.2249 183.905 19.6468 184.156 18.8864C184.039 18.6 183.905 18.3213 183.752 18.0479C183.44 17.5088 183.213 17.0765 183.072 16.7484C182.931 16.4203 182.86 16.1468 182.86 15.9255C182.86 15.6989 182.928 15.5183 183.067 15.3812C183.201 15.2448 183.392 15.1156 183.636 14.9932C183.7 15.2364 183.789 15.5079 183.903 15.8041C184.016 16.1016 184.128 16.4063 184.241 16.7156C184.355 17.0255 184.452 17.3317 184.533 17.6339C184.616 17.9359 184.657 18.212 184.657 18.4645C184.657 19.1547 184.527 19.7953 184.264 20.3875C184.001 20.9801 183.64 21.4401 183.184 21.7683C182.725 22.0964 182.219 22.2588 181.663 22.2588Z" fill="white"/>
<path d="M187.067 15.0972V15.9306C187.067 16.79 187.036 17.9567 186.975 19.428L186.363 19.5374C186.307 16.4212 186.186 13.8343 185.999 11.777L185.992 11.6078C185.992 11.3264 186.063 11.1015 186.204 10.9348C186.346 10.7682 186.568 10.653 186.871 10.592L186.911 10.7483C186.923 10.7967 187.07 11.2718 187.347 12.1754L186.988 12.48L186.995 12.5452C187.043 13.501 187.067 14.3515 187.067 15.0972Z" fill="white"/>
<path d="M183.655 13.2354L183.546 13.1593C183.344 13.4489 183.063 13.7688 182.703 14.1161L182.796 14.212L182.879 14.1073C182.488 13.7978 182.174 13.514 181.936 13.2573L181.839 13.3473L181.934 13.4416C182.39 12.9844 182.7 12.6582 182.871 12.4568L182.77 12.3708L182.672 12.4609C182.958 12.7713 183.255 13.064 183.568 13.3358L183.655 13.2354L183.743 13.1349C183.438 12.8702 183.147 12.5844 182.868 12.2806L182.766 12.1692L182.668 12.2849C182.508 12.474 182.199 12.7989 181.744 13.253L181.654 13.3437L181.74 13.4374C181.991 13.7093 182.315 14.001 182.714 14.3166L182.804 14.389L182.888 14.3078C183.258 13.9521 183.55 13.6208 183.764 13.3114L183.834 13.2134L183.743 13.1349L183.655 13.2354ZM181.663 22.2588V22.1254C181.486 22.1265 181.204 22.0505 180.846 21.8874C180.483 21.724 180.2 21.5609 180 21.4062L179.918 21.5114L180.042 21.5625L180.224 21.1192L180.1 21.0688L180.074 21.1994C180.566 21.2994 180.994 21.3505 181.358 21.3505C182.051 21.3516 182.659 21.1421 183.155 20.7245C183.651 20.3073 184.027 19.7057 184.283 18.9281L184.299 18.8817L184.28 18.8358C184.16 18.5448 184.024 18.2609 183.87 17.9828V17.9822L183.868 17.9812C183.558 17.4448 183.332 17.0156 183.194 16.6953L183.195 16.6958C183.058 16.3776 182.994 16.1188 182.994 15.9254C182.995 15.7245 183.051 15.5864 183.16 15.476L183.162 15.4749C183.282 15.3525 183.46 15.2301 183.695 15.1125L183.636 14.9932L183.507 15.0276C183.574 15.2765 183.663 15.5516 183.778 15.8521C183.891 16.1478 184.003 16.4521 184.116 16.7614C184.228 17.0682 184.324 17.3702 184.406 17.6688C184.486 17.962 184.524 18.2265 184.524 18.4645C184.524 19.1374 184.396 19.7588 184.143 20.3338C183.887 20.9082 183.542 21.3464 183.106 21.6593C182.668 21.9724 182.192 22.1249 181.663 22.1254V22.2588V22.3921C182.246 22.3926 182.783 22.2197 183.262 21.8765C183.74 21.5328 184.116 21.0521 184.387 20.4416C184.656 19.8317 184.791 19.1713 184.791 18.4645C184.791 18.1973 184.747 17.9098 184.663 17.5989C184.58 17.2926 184.48 16.9833 184.367 16.6702C184.254 16.3598 184.14 16.0546 184.027 15.7568C183.915 15.4634 183.828 15.1968 183.764 14.9588L183.722 14.8005L183.576 14.874C183.324 15.001 183.122 15.1364 182.972 15.2874V15.2864C182.807 15.4494 182.727 15.6734 182.727 15.9254C182.728 16.1749 182.804 16.463 182.95 16.801V16.8016C183.095 17.1374 183.323 17.5729 183.638 18.1145L183.752 18.0478L183.636 18.113C183.786 18.3817 183.918 18.6557 184.034 18.9369L184.156 18.8864L184.03 18.8448C183.784 19.588 183.432 20.1426 182.983 20.5197C182.535 20.8964 181.999 21.0828 181.358 21.0838C181.018 21.0838 180.607 21.0358 180.127 20.938L180.019 20.9161L179.795 21.4604L179.756 21.5546L179.836 21.6172C180.062 21.7901 180.36 21.9604 180.736 22.1301C181.114 22.3005 181.416 22.3912 181.663 22.3921V22.2588Z" fill="white"/>
<path d="M187.067 15.0972H186.934V15.9306C186.934 16.7868 186.903 17.9524 186.843 19.4223L186.975 19.428L186.952 19.2967L186.34 19.4062L186.363 19.5374L186.496 19.5348C186.44 16.4171 186.319 13.827 186.132 11.765L185.999 11.777L186.132 11.7718L186.126 11.6024L185.992 11.6078H186.126C186.126 11.3478 186.19 11.1582 186.306 11.0207L186.308 11.0187L186.307 11.0207C186.42 10.8848 186.612 10.78 186.898 10.7228L186.871 10.592L186.742 10.6244L186.782 10.7806V10.7816V10.7832C186.798 10.8395 186.942 11.3092 187.219 12.2144L187.347 12.1754L187.26 12.0739L186.902 12.3786L186.848 12.4239L186.863 12.5582L186.995 12.5452L186.862 12.552C186.91 13.5062 186.934 14.354 186.934 15.0972H187.067H187.2C187.2 14.3483 187.176 13.4963 187.128 12.5384V12.5354L187.122 12.4671L186.988 12.48L187.075 12.5816L187.434 12.277L187.5 12.2202L187.474 12.1363C187.198 11.2343 187.05 10.7535 187.039 10.7134L186.911 10.7483L187.04 10.716L187 10.5598L186.97 10.4363L186.846 10.4614C186.523 10.5259 186.27 10.651 186.103 10.8483V10.8478C185.936 11.0442 185.859 11.3051 185.859 11.6078V11.6103L185.866 11.7822V11.7854V11.789C186.052 13.8415 186.174 16.4259 186.23 19.54L186.234 19.6963L186.999 19.5592L187.104 19.5406L187.108 19.4338C187.17 17.9614 187.2 16.7931 187.2 15.9306V15.0972H187.067Z" fill="white"/>
<path d="M116.212 28.2716C115.436 28.2757 114.671 28.4512 113.972 28.7855C113.272 29.1198 112.655 29.6046 112.165 30.2051C111.675 30.8056 111.325 31.5067 111.138 32.2586C110.951 33.0105 110.934 33.7944 111.086 34.5539C111.241 35.2634 111.542 35.9331 111.969 36.5207C112.397 37.1083 112.941 37.6011 113.569 37.9678C114.197 38.3345 114.894 38.567 115.616 38.6509C116.338 38.7349 117.07 38.6686 117.765 38.4557C118.46 38.2428 119.104 37.8883 119.655 37.4145C120.206 36.9406 120.653 36.3578 120.967 35.7027C121.281 35.0477 121.456 34.3347 121.48 33.6088C121.504 32.8829 121.377 32.1601 121.107 31.4856C120.844 30.8445 120.454 30.263 119.96 29.7764C119.471 29.2828 118.886 28.8959 118.24 28.6397C117.596 28.3822 116.906 28.257 116.212 28.2716ZM116.212 36.6999C115.735 36.7322 115.258 36.657 114.814 36.4801C114.37 36.3031 113.972 36.0287 113.649 35.6774C113.325 35.3261 113.085 34.9069 112.946 34.4504C112.807 33.994 112.772 33.512 112.844 33.0403C112.916 32.5687 113.094 32.1192 113.363 31.7252C113.633 31.3312 113.988 31.0027 114.401 30.7641C114.815 30.5254 115.277 30.3826 115.754 30.3463C116.23 30.3099 116.708 30.3811 117.154 30.5542C117.747 30.7897 118.257 31.1972 118.617 31.7242C118.977 32.2513 119.171 32.8739 119.173 33.5119C119.196 33.9188 119.134 34.3259 118.994 34.7085C118.854 35.088 118.642 35.4367 118.369 35.7346C118.088 36.0278 117.754 36.2647 117.384 36.4326C117.015 36.5981 116.617 36.6883 116.212 36.6999ZM104.701 28.2716C103.663 28.2738 102.648 28.5835 101.786 29.1614C100.924 29.7393 100.252 30.5595 99.8566 31.5185C99.461 32.4775 99.3589 33.5321 99.5633 34.549C99.7676 35.5659 100.269 36.4994 101.005 37.2316C101.74 37.9638 102.677 38.4618 103.696 38.6626C104.714 38.8635 105.77 38.7583 106.729 38.36C107.688 37.9618 108.507 37.2884 109.083 36.4253C109.658 35.5622 109.965 34.5479 109.964 33.5107C109.972 32.8176 109.844 32.1298 109.588 31.4856C109.324 30.8445 108.934 30.263 108.44 29.7764C107.948 29.2875 107.363 28.9012 106.72 28.6397C106.076 28.3822 105.386 28.257 104.692 28.2716H104.701ZM104.701 36.6999C104.063 36.7475 103.425 36.6016 102.871 36.2814C102.317 35.9612 101.872 35.4815 101.595 34.9049C101.317 34.3289 101.218 33.6825 101.313 33.0498C101.407 32.4172 101.69 31.8275 102.125 31.3578C102.561 30.889 103.128 30.5616 103.752 30.4176C104.376 30.2784 105.028 30.3259 105.626 30.5542C106.221 30.7877 106.733 31.1945 107.095 31.7218C107.456 32.2491 107.651 32.8728 107.654 33.5119C107.676 33.9188 107.615 34.3259 107.474 34.7085C107.335 35.088 107.122 35.4367 106.849 35.7346C106.568 36.0278 106.234 36.2647 105.864 36.4326C105.495 36.5971 105.097 36.6871 104.692 36.6977L104.701 36.6999ZM90.992 29.8871V32.1099H96.3326C96.2493 33.1561 95.8153 34.1434 95.1005 34.9127C94.5632 35.4508 93.9228 35.8754 93.2175 36.1604C92.5081 36.4423 91.7468 36.5704 90.9841 36.5363C90.2058 36.5365 89.4351 36.3825 88.7167 36.0835C87.9938 35.7918 87.3383 35.3555 86.7907 34.8012C86.2362 34.2523 85.797 33.5984 85.4988 32.8777C84.9054 31.4258 84.9054 29.7992 85.4988 28.3473C85.797 27.6267 86.2362 26.9727 86.7907 26.4238C87.3384 25.8696 87.9939 25.4333 88.7167 25.1415C89.4352 24.8427 90.2058 24.6887 90.9841 24.6887C91.729 24.6756 92.469 24.8094 93.1622 25.0821C93.8553 25.3548 94.4879 25.7612 95.0237 26.2782L96.5981 24.7057C95.8648 23.9677 94.9912 23.3835 94.0287 22.9872C93.0662 22.591 92.0341 22.3907 90.993 22.3983C89.8955 22.3554 88.8009 22.5355 87.7752 22.9278C86.2245 23.5142 84.8893 24.5579 83.947 25.9206C83.0048 27.2832 82.5 28.9001 82.5 30.5561C82.5 32.2122 83.0048 33.8291 83.947 35.1917C84.8893 36.5544 86.2245 37.5981 87.7752 38.1845C88.8014 38.5742 89.8961 38.7519 90.993 38.7062C92.0003 38.7651 93.0089 38.6136 93.9544 38.2614C94.8942 37.903 95.7505 37.3558 96.4704 36.6539C97.1882 35.9476 97.75 35.0993 98.1199 34.1631C98.4897 33.227 98.6595 32.2239 98.618 31.2183C98.6258 30.7501 98.5856 30.2822 98.4982 29.8221L90.992 29.8871ZM146.994 31.6132C146.612 30.5013 145.839 29.5658 144.818 28.9808C143.797 28.3957 142.598 28.2009 141.444 28.4325C140.29 28.6641 139.26 29.3063 138.544 30.2399C137.829 31.1735 137.478 32.3348 137.555 33.5078C137.535 34.5476 137.829 35.5694 138.4 36.4389C138.972 37.3085 139.793 37.9851 140.756 38.38C141.48 38.6631 142.256 38.789 143.032 38.7493C143.808 38.7096 144.567 38.5052 145.258 38.1497C146.021 37.7459 146.671 37.1585 147.149 36.4406L145.36 35.201C145.088 35.6447 144.708 36.0122 144.256 36.269C143.805 36.5265 143.294 36.6594 142.775 36.6539C142.239 36.6767 141.709 36.5371 141.254 36.2534C140.799 35.9698 140.44 35.5553 140.225 35.0644L147.26 32.1666L146.994 31.6132ZM139.832 33.3651C139.807 32.983 139.856 32.5999 139.977 32.2365C140.105 31.8766 140.303 31.5455 140.559 31.2622C140.812 30.9752 141.121 30.7424 141.466 30.5781C141.813 30.4164 142.188 30.3237 142.57 30.3049C142.97 30.2804 143.368 30.3724 143.716 30.57C144.062 30.7669 144.342 31.0616 144.521 31.4168L139.832 33.3651ZM134.115 38.4508H136.425V23.0235H134.115V38.4508ZM130.333 29.4424H130.247C129.902 29.0502 129.476 28.7381 128.998 28.5279C128.521 28.3143 128.005 28.2033 127.483 28.2027C126.133 28.2697 124.859 28.8529 123.927 29.8314C122.995 30.8099 122.475 32.1089 122.475 33.4596C122.475 34.8102 122.995 36.109 123.927 37.0875C124.859 38.066 126.133 38.6492 127.483 38.7162C128.007 38.7231 128.525 38.6157 129.003 38.4017C129.48 38.1876 129.905 37.8717 130.248 37.4765H130.325V38.2286C130.325 40.2459 129.246 41.3138 127.518 41.3138C126.944 41.3025 126.387 41.1178 125.921 40.7843C125.446 40.4548 125.082 39.9901 124.876 39.4509L122.866 40.2887C123.245 41.2117 123.891 42.0006 124.723 42.5542C125.549 43.1075 126.523 43.3995 127.518 43.3919C130.231 43.3919 132.464 41.8024 132.464 37.9213V28.5798H130.342L130.333 29.4424ZM127.688 36.6987C126.893 36.629 126.154 36.2628 125.617 35.6728C125.078 35.0832 124.778 34.3132 124.778 33.5143C124.778 32.7155 125.078 31.9455 125.617 31.3559C126.154 30.7659 126.893 30.3995 127.688 30.3297C128.083 30.3471 128.471 30.4459 128.826 30.6199C129.184 30.7896 129.503 31.0302 129.765 31.3269C130.027 31.6236 130.226 31.9702 130.35 32.346C130.479 32.7192 130.529 33.1153 130.495 33.5087C130.532 33.9072 130.485 34.3089 130.359 34.6885C130.232 35.0634 130.031 35.4092 129.769 35.7057C129.508 36.0049 129.187 36.2463 128.827 36.4146C128.467 36.5844 128.077 36.6803 127.68 36.6968L127.688 36.6987ZM157.82 23.0235H152.3V38.4508H154.61V32.6043H157.836C158.494 32.6507 159.154 32.5609 159.776 32.3402C160.397 32.1195 160.966 31.7729 161.447 31.322C161.934 30.8757 162.322 30.332 162.586 29.7265C162.845 29.1215 162.979 28.4702 162.979 27.8119C162.979 27.1537 162.845 26.5024 162.586 25.8974C162.321 25.2944 161.935 24.7519 161.452 24.3036C160.969 23.8552 160.399 23.5106 159.778 23.2908C159.156 23.0667 158.494 22.9762 157.835 23.0254L157.82 23.0235ZM157.82 30.4334H154.594V25.1683H157.872C158.222 25.168 158.568 25.2379 158.89 25.3738C159.212 25.5035 159.503 25.6984 159.746 25.9461C159.995 26.1902 160.192 26.4818 160.325 26.8033C160.459 27.1248 160.527 27.4696 160.525 27.8178C160.523 28.1664 160.455 28.5115 160.325 28.8349C160.046 29.4787 159.532 29.9923 158.887 30.2711C158.564 30.4012 158.218 30.4688 157.869 30.4705L157.82 30.4334ZM172.077 28.2107C171.235 28.159 170.397 28.355 169.665 28.7743C168.934 29.1937 168.341 29.8179 167.961 30.57L170.015 31.4248C170.212 31.0483 170.519 30.741 170.896 30.5442C171.56 30.2821 172.285 30.217 172.985 30.3568C173.413 30.4792 173.794 30.7272 174.079 31.0686C174.364 31.41 174.539 31.829 174.582 32.2713V32.4339C173.843 32.0398 173.016 31.8368 172.177 31.8435C169.961 31.8435 167.727 33.074 167.727 35.3057C167.746 35.783 167.862 36.2515 168.07 36.6819C168.379 37.3304 168.877 37.8706 169.498 38.232C170.12 38.5933 170.836 38.7589 171.553 38.7072C172.136 38.7444 172.718 38.6263 173.24 38.3651C173.764 38.108 174.209 37.7121 174.524 37.2204H174.6V38.4598H176.826V32.5196C176.826 29.8102 174.772 28.2458 172.133 28.2458L172.077 28.2107ZM171.787 36.6639C171.034 36.6639 169.99 36.2799 169.99 35.3565C169.99 34.1171 171.299 33.7152 172.455 33.7152C173.19 33.6988 173.916 33.8757 174.561 34.2279C174.485 34.8967 174.17 35.5154 173.672 35.9696C173.175 36.4237 172.53 36.6824 171.856 36.6977L171.787 36.6639ZM184.932 28.5788L182.288 35.2709H182.211L179.465 28.5788H176.992L181.108 37.9374L178.763 43.1346H181.176L187.5 28.5757L184.932 28.5788ZM164.154 38.4508H166.464V23.0235H164.154V38.4508Z" fill="white"/>
<path d="M140.011 51.9138C139.677 51.9138 139.387 51.8566 139.141 51.7446C138.893 51.6326 138.676 51.4764 138.487 51.2749C137.728 51.7004 136.897 51.9138 135.994 51.9138C135.492 51.9138 135.115 51.8452 134.865 51.7082C134.613 51.5728 134.489 51.3801 134.489 51.1301C134.489 50.8654 134.56 50.6482 134.705 50.4805C134.911 50.6482 135.143 50.7733 135.407 50.854C135.669 50.9332 135.996 50.9738 136.386 50.9738C136.899 50.9738 137.468 50.8878 138.09 50.7144C137.776 50.1692 137.512 49.6066 137.297 49.0285C137.083 48.4504 136.975 48.0468 136.975 47.8176C136.975 47.4165 137.191 47.143 137.625 46.9998C137.795 47.617 137.947 48.1378 138.084 48.5597C138.22 48.9805 138.348 49.3228 138.466 49.5858C138.584 49.8488 138.728 50.0998 138.896 50.3384C139.065 50.578 139.236 50.743 139.407 50.8358C139.581 50.9269 139.781 50.9738 140.011 50.9738L140.118 51.0753V51.8108L140.011 51.9138Z" fill="white"/>
<path d="M144.123 53.2979C143.974 53.5312 143.727 53.8099 143.382 54.1355C143.024 53.85 142.753 53.599 142.568 53.3828C142.753 53.2136 143.018 52.9375 143.363 52.5522C143.435 52.6328 143.689 52.8803 144.123 53.2979ZM142.262 53.474C142.112 53.7094 141.87 53.9912 141.533 54.3162C141.163 54.0198 140.891 53.7683 140.714 53.564C140.93 53.362 141.196 53.086 141.508 52.7318C141.581 52.8084 141.832 53.0563 142.262 53.474ZM143.363 49.1068L143.664 49.2031C143.516 49.561 143.386 49.8594 143.273 50.1016C143.161 50.3412 143.092 50.4766 143.068 50.5036C143.346 50.6807 143.603 50.8031 143.842 50.8724C144.081 50.9402 144.341 50.974 144.622 50.974L144.724 51.0755V51.811L144.622 51.914C143.863 51.914 143.212 51.6746 142.671 51.197L142.472 51.461C142.388 51.5547 142.09 51.6527 141.578 51.7568C141.065 51.862 140.563 51.914 140.069 51.914L139.966 51.811V51.0755L140.069 50.974C140.579 50.974 141.012 50.9522 141.367 50.9079C141.723 50.8636 141.973 50.7891 142.12 50.685C142.266 50.5807 142.482 50.2527 142.767 49.7031L142.984 49.3063C143.056 49.1735 143.182 49.1068 143.363 49.1068Z" fill="white"/>
<path d="M147.391 47.4816C147.198 47.7577 146.933 48.0597 146.596 48.3842C146.23 48.0952 145.935 47.828 145.711 47.5832C146.132 47.1613 146.419 46.8602 146.572 46.6796C146.833 46.9644 147.106 47.2316 147.391 47.4816ZM144.771 51.9138L144.668 51.8108V51.0753L144.771 50.9738C145.072 50.9738 145.331 50.9452 145.549 50.8862C145.764 50.828 145.934 50.7446 146.053 50.6342C146.175 50.5233 146.367 50.2134 146.632 49.7029L146.849 49.3061C146.921 49.1733 147.047 49.1066 147.228 49.1066L147.529 49.2029C147.353 49.6362 147.154 50.0728 146.933 50.5102C147.218 50.6821 147.475 50.8029 147.707 50.8722C147.938 50.94 148.196 50.9738 148.48 50.9738L148.584 51.0753V51.8108L148.48 51.9138C147.718 51.9138 147.069 51.6717 146.535 51.19L146.331 51.4608C146.246 51.566 146.05 51.6681 145.741 51.7654C145.431 51.8644 145.108 51.9138 144.771 51.9138Z" fill="white"/>
<path d="M148.541 51.9138L148.438 51.8108V51.0753L148.541 50.9738C149.107 50.9738 149.605 50.9452 150.034 50.8862C150.464 50.828 150.842 50.7525 151.166 50.6613C151.491 50.5676 151.829 50.4321 152.179 50.2514C152.029 49.7941 151.746 49.3644 151.329 48.966C150.912 48.566 150.335 48.1873 149.601 47.8305L149.294 47.8722C149.078 47.8722 148.897 47.7968 148.755 47.6472C148.613 47.4962 148.541 47.3045 148.541 47.0712C148.541 46.8905 148.584 46.6545 148.67 46.3644C148.757 46.0728 148.822 45.9149 148.867 45.8905C149.963 45.3253 150.803 44.9086 151.386 44.6416C151.97 44.3749 152.592 44.1092 153.251 43.8436C153.374 43.952 153.436 44.1092 153.436 44.3138L153.431 44.4217C153.391 44.7072 153.218 44.9113 152.913 45.0362C151.231 45.7378 149.924 46.3045 148.993 46.7342C149.619 46.8862 150.218 47.1378 150.79 47.4868C151.363 47.8358 151.819 48.229 152.161 48.6638C152.502 49.0998 152.672 49.5077 152.672 49.8905C152.672 50.5477 152.33 51.0493 151.645 51.3957C150.96 51.741 149.926 51.9138 148.541 51.9138Z" fill="white"/>
<path d="M163.024 47.1378C162.872 47.3826 162.624 47.6638 162.283 47.9816C161.935 47.7029 161.664 47.4504 161.47 47.2212C161.558 47.1416 161.824 46.8644 162.265 46.3905C162.361 46.4946 162.615 46.7446 163.024 47.1378ZM161.164 47.3124C161.015 47.5493 160.772 47.8305 160.435 48.1561C160.065 47.8582 159.792 47.6066 159.615 47.4034C159.832 47.202 160.097 46.9244 160.411 46.5712C160.507 46.6717 160.757 46.9192 161.164 47.3124ZM166.577 51.9138C165.745 51.9138 165.044 51.6222 164.469 51.0405C163.968 51.3097 163.352 51.5217 162.623 51.6785C161.895 51.8358 161.104 51.9138 160.248 51.9138C159.28 51.9138 158.537 51.7394 158.016 51.3894C157.497 51.0405 157.236 50.5138 157.236 49.8124C157.236 49.302 157.293 48.8498 157.405 48.4572H157.844C157.836 48.4894 157.828 48.5728 157.818 48.7092C157.808 48.8462 157.802 48.9644 157.802 49.0649C157.802 49.5425 157.893 49.9113 158.073 50.1733C158.255 50.4332 158.543 50.6326 158.939 50.7696C159.333 50.9061 159.856 50.9738 160.507 50.9738C161.197 50.9738 161.931 50.8982 162.705 50.7446C163.48 50.592 163.972 50.4425 164.18 50.2941L164.418 50.0728C164.476 49.9998 164.544 49.893 164.62 49.7577L164.795 49.4373C164.871 49.3097 164.999 49.2446 165.18 49.2446L165.475 49.3358C165.251 49.8853 165.08 50.2618 164.963 50.4624C165.236 50.643 165.497 50.7733 165.743 50.854C165.991 50.9332 166.268 50.9738 166.577 50.9738L166.679 51.0753V51.8108L166.577 51.9138Z" fill="white"/>
<path d="M169.838 44.5662L169.729 44.4902C169.544 44.7579 169.284 45.0527 168.95 45.374L169.044 45.4698L169.126 45.3656C168.765 45.0798 168.474 44.8167 168.256 44.5792L168.158 44.6694L168.252 44.7636C168.676 44.3402 168.964 44.0375 169.121 43.8522L169.02 43.7656L168.921 43.8558C169.185 44.1443 169.462 44.4151 169.752 44.6672L169.838 44.5662L169.926 44.4656C169.645 44.2203 169.376 43.9574 169.118 43.6755L169.016 43.564L168.918 43.6798C168.772 43.8527 168.484 44.1547 168.064 44.5751L167.973 44.6656L168.06 44.7594C168.292 45.0115 168.592 45.2823 168.961 45.5746L169.052 45.647L169.136 45.5662C169.477 45.2364 169.749 44.9298 169.948 44.6427L170.017 44.5443L169.926 44.4656L169.838 44.5662ZM168.784 47.2396V47.1063C168.493 47.1042 168.237 47.2495 168.054 47.5016C167.872 47.749 167.778 48.035 167.778 48.3422C167.776 48.6255 167.877 48.8694 168.084 49.0167V49.0172C168.29 49.1631 168.58 49.2208 168.958 49.2219C169.384 49.2219 169.836 49.112 170.316 48.8979L170.425 48.849L170.388 48.735C170.222 48.2251 170.009 47.8271 169.738 47.5432V47.5438C169.47 47.2594 169.144 47.1052 168.784 47.1063V47.2396V47.373C169.068 47.374 169.313 47.4855 169.545 47.7271L169.546 47.7276C169.778 47.9698 169.977 48.3323 170.134 48.8172L170.261 48.776L170.206 48.6542C169.753 48.8568 169.338 48.9552 168.958 48.9552C168.608 48.9563 168.368 48.8943 168.24 48.8006V48.8011C168.113 48.7068 168.048 48.5719 168.045 48.3422C168.045 48.0875 168.118 47.8651 168.269 47.6599C168.42 47.4588 168.578 47.3751 168.784 47.373V47.2396ZM170.585 50.311L170.717 50.2954C170.677 49.9536 170.62 49.626 170.546 49.311L170.497 49.0964L170.33 49.2402C170.093 49.4438 169.828 49.6027 169.534 49.7167C169.24 49.8323 168.952 49.8886 168.665 49.8886C168.336 49.887 168.089 49.7719 167.884 49.5282C167.68 49.2803 167.576 48.974 167.576 48.5834C167.576 47.9746 167.72 47.4459 168.009 46.9864C168.302 46.526 168.614 46.3271 168.972 46.326C169.365 46.3271 169.704 46.4631 170.013 46.7474C170.321 47.0344 170.572 47.4459 170.76 47.9938C170.948 48.5412 171.041 49.1328 171.041 49.7698C171.044 50.0074 170.91 50.4167 170.624 50.9604L170.742 51.0219L170.672 50.9088C170.186 51.2094 169.644 51.4303 169.038 51.5694C168.434 51.7094 167.632 51.7807 166.634 51.7807V51.914L166.729 51.8198L166.653 51.7443V51.1438L166.729 51.0683L166.634 50.974V51.1074C167.528 51.1074 168.285 51.0536 168.909 50.9464C169.534 50.838 170.112 50.6672 170.638 50.4328L170.729 50.3932L170.717 50.2954L170.585 50.311L170.53 50.1896C170.025 50.4136 169.469 50.5787 168.864 50.6839C168.26 50.7875 167.517 50.8407 166.634 50.8407H166.58L166.425 50.9943L166.386 51.0334V51.7995V51.8547L166.54 52.0084L166.58 52.0474H166.634C167.645 52.0474 168.464 51.9755 169.098 51.8292C169.729 51.6844 170.301 51.4522 170.813 51.1355L170.844 51.1162L170.861 51.0839C171.153 50.5208 171.306 50.0943 171.308 49.7698C171.308 49.1068 171.21 48.485 171.012 47.9074C170.814 47.3303 170.544 46.8771 170.194 46.5522C169.844 46.2271 169.429 46.0584 168.972 46.0594C168.501 46.0579 168.097 46.3412 167.784 46.8443C167.465 47.3484 167.308 47.9318 167.309 48.5834C167.308 49.0208 167.43 49.3995 167.678 49.6984H167.68C167.926 49.999 168.269 50.1574 168.665 50.1552C168.986 50.1552 169.31 50.0918 169.632 49.9651C169.952 49.8402 170.244 49.6656 170.504 49.4422L170.417 49.3412L170.288 49.3714C170.357 49.676 170.413 49.9943 170.453 50.3271L170.585 50.311Z" fill="white"/>
<path d="M174.49 51.0753V51.8108L174.388 51.9138C173.901 51.9138 173.498 51.8176 173.18 51.6274C172.861 51.4373 172.681 51.1744 172.641 50.841C172.508 49.7889 172.368 48.1649 172.22 45.9686L172.1 44.3253C172.328 44.092 172.605 43.8644 172.93 43.6394C172.986 44.8916 173.03 46.6638 173.062 48.9556L173.105 50.6545C173.49 50.867 173.917 50.9738 174.388 50.9738L174.49 51.0753Z" fill="white"/>
<path d="M178.339 53.2979C178.191 53.5312 177.945 53.8099 177.601 54.1355C177.242 53.85 176.971 53.599 176.786 53.3828C176.971 53.2136 177.235 52.9375 177.582 52.5522C177.654 52.6328 177.906 52.8803 178.339 53.2979ZM176.479 53.474C176.331 53.7094 176.089 53.9912 175.751 54.3162C175.382 54.0198 175.109 53.7683 174.933 53.564C175.149 53.362 175.414 53.086 175.726 52.7318C175.799 52.8084 176.05 53.0563 176.479 53.474ZM174.443 51.914L174.341 51.811V51.0755L174.443 50.974C175.051 50.974 175.633 50.9323 176.19 50.85C176.749 50.7683 177.171 50.6588 177.461 50.5219C177.377 50.1927 177.227 49.7422 177.015 49.1667C176.859 48.7422 176.779 48.4662 176.779 48.3422C176.779 48.1615 176.854 47.9766 176.999 47.7891C177.147 47.599 177.342 47.4375 177.587 47.3011C177.623 47.5418 177.669 47.7803 177.722 48.0167C177.777 48.2536 177.829 48.487 177.877 48.7162C177.925 48.9454 177.966 49.1651 177.999 49.3776C178.034 49.5912 178.051 49.7918 178.051 49.9807C178.051 50.2656 177.909 50.6823 177.623 51.2328C177.286 51.4375 176.821 51.6016 176.223 51.7266C175.627 51.8516 175.034 51.914 174.443 51.914Z" fill="white"/>
<path d="M179.875 54.4306V54.2973C179.713 54.2989 179.454 54.2281 179.122 54.0776C178.787 53.9254 178.526 53.776 178.342 53.6328L178.261 53.738L178.383 53.789L178.553 53.3792L178.43 53.3281L178.403 53.4588C178.858 53.5526 179.254 53.6005 179.591 53.601C180.235 53.6016 180.801 53.4068 181.262 53.0188C181.723 52.6317 182.069 52.0713 182.307 51.353L182.323 51.3062L182.305 51.2609C182.194 50.9917 182.067 50.726 181.923 50.4693V50.4677L181.922 50.4666C181.635 49.9724 181.427 49.5745 181.301 49.2806C181.174 48.9874 181.115 48.7478 181.117 48.5702C181.118 48.3874 181.167 48.2636 181.266 48.1614L181.171 48.0677L181.266 48.1625C181.379 48.0494 181.542 47.9374 181.759 47.8286L181.699 47.7093L181.57 47.7437C181.631 47.975 181.717 48.2292 181.822 48.5068C181.926 48.7806 182.03 49.062 182.134 49.3473C182.237 49.6322 182.327 49.9114 182.401 50.1869L182.402 50.1896V50.1874C182.475 50.4573 182.511 50.7021 182.511 50.9193C182.511 51.5406 182.394 52.1145 182.158 52.6453C181.923 53.1754 181.605 53.5802 181.203 53.8682V53.8677C180.799 54.1552 180.362 54.2973 179.875 54.2973V54.4306V54.564C180.414 54.5645 180.914 54.4021 181.358 54.0854L181.359 54.0849C181.803 53.7661 182.153 53.3193 182.402 52.753C182.653 52.1874 182.778 51.574 182.778 50.9193C182.778 50.6729 182.738 50.4046 182.658 50.1166V50.1145V50.1177C182.582 49.8333 182.49 49.5473 182.385 49.2568C182.281 48.9697 182.175 48.6874 182.071 48.4125C181.969 48.1406 181.886 47.8948 181.829 47.6754L181.786 47.5166L181.639 47.5906C181.406 47.7084 181.219 47.8333 181.078 47.9729L181.077 47.974C180.923 48.127 180.849 48.336 180.85 48.5702C180.85 48.8041 180.922 49.0724 181.055 49.386C181.19 49.6964 181.401 50.1005 181.691 50.601L181.807 50.5338L181.691 50.5984C181.829 50.8469 181.951 51.1021 182.058 51.3614L182.181 51.3109L182.054 51.2693C181.827 51.9546 181.503 52.4672 181.09 52.8145C180.677 53.1609 180.183 53.3333 179.591 53.3344C179.279 53.3344 178.899 53.2885 178.457 53.1973L178.349 53.1754L178.137 53.6874L178.098 53.7812L178.179 53.8437C178.387 54.0052 178.665 54.163 179.013 54.3208C179.363 54.4776 179.643 54.563 179.875 54.564V54.4306Z" fill="white"/>
<path d="M184.71 51.9138C184.209 51.9138 183.832 51.8452 183.581 51.7082C183.33 51.5728 183.205 51.3801 183.205 51.1301C183.205 50.8654 183.277 50.6482 183.421 50.4805C183.626 50.6482 183.86 50.7733 184.122 50.854C184.386 50.9332 184.713 50.9738 185.102 50.9738C185.648 50.9738 186.206 50.8894 186.776 50.7212C186.648 50.355 186.477 49.9774 186.264 49.5884L185.842 48.8176C185.718 48.6014 185.63 48.4192 185.58 48.2706C185.53 48.1206 185.504 47.9712 185.504 47.8176C185.504 47.4165 185.721 47.143 186.156 46.9998C186.28 47.3358 186.412 47.6561 186.553 47.9592C186.693 48.2629 186.824 48.5468 186.944 48.8124C187.064 49.0764 187.165 49.3244 187.245 49.552C187.326 49.781 187.366 49.9894 187.366 50.1796C187.366 50.2993 187.328 50.4738 187.252 50.7004C187.174 50.9269 187.068 51.1701 186.933 51.4321C186.333 51.7525 185.593 51.9138 184.71 51.9138Z" fill="white"/>
<path d="M140.011 51.914V51.7807C139.692 51.7807 139.422 51.726 139.196 51.6235C138.964 51.5183 138.762 51.3735 138.585 51.1834L138.513 51.1074L138.422 51.1584C137.683 51.573 136.876 51.7807 135.994 51.7807C135.504 51.7812 135.145 51.711 134.929 51.5912H134.928C134.708 51.4672 134.626 51.3328 134.622 51.1303C134.623 50.8891 134.685 50.7084 134.806 50.5678L134.705 50.4807L134.62 50.5839C134.839 50.7626 135.089 50.8964 135.368 50.9818L135.37 50.9823L135.368 50.9818C135.648 51.0662 135.987 51.1074 136.386 51.1074C136.914 51.1074 137.494 51.0194 138.126 50.8432L138.291 50.7974L138.206 50.6484C137.896 50.1088 137.634 49.5531 137.422 48.9823C137.209 48.4115 137.107 48.0094 137.109 47.8178C137.116 47.4694 137.27 47.2667 137.667 47.1266L137.625 47L137.497 47.0355C137.666 47.6536 137.819 48.176 137.957 48.6011C138.095 49.0246 138.223 49.3708 138.345 49.6407L138.345 49.6402C138.465 49.9115 138.614 50.1703 138.787 50.4151C138.964 50.6656 139.147 50.8464 139.345 50.9531L139.346 50.9536C139.54 51.0563 139.763 51.1074 140.011 51.1074V50.974L139.92 51.0708L139.985 51.1334V51.7542L139.918 51.8178L140.011 51.914L140.102 52.0104L140.211 51.9079L140.252 51.8683V51.0755V51.0178L140.102 50.8766L140.063 50.8407H140.011C139.8 50.8407 139.622 50.7979 139.47 50.7183L139.471 50.7188C139.325 50.6407 139.166 50.4907 139.005 50.2615C138.842 50.0303 138.702 49.7864 138.588 49.5318L138.588 49.5303V49.5312C138.473 49.2751 138.346 48.9364 138.211 48.5188C138.075 48.1 137.923 47.5807 137.754 46.9646L137.717 46.8292L137.584 46.8735C137.114 47.0198 136.835 47.364 136.842 47.8178C136.844 48.0844 136.956 48.4896 137.172 49.0751C137.39 49.6604 137.657 50.2298 137.975 50.7812L138.09 50.7146L138.054 50.5864C137.441 50.7574 136.884 50.8407 136.386 50.8407C136.006 50.8407 135.691 50.8011 135.445 50.7266H135.446C135.198 50.6506 134.982 50.5344 134.789 50.3771L134.688 50.2954L134.603 50.3932C134.435 50.5886 134.354 50.8427 134.356 51.1303C134.351 51.4276 134.519 51.6787 134.802 51.8255H134.801C135.085 51.9792 135.48 52.047 135.994 52.0474C136.918 52.0474 137.774 51.8282 138.552 51.3912L138.487 51.2751L138.39 51.3656C138.59 51.5803 138.823 51.7474 139.086 51.8662C139.352 51.9875 139.662 52.0474 140.011 52.0474H140.064L140.102 52.0104L140.011 51.914Z" fill="white"/>
<path d="M144.123 53.2978L144.01 53.2265C143.872 53.4437 143.631 53.7177 143.29 54.0385L143.382 54.1354L143.465 54.0311C143.111 53.7494 142.846 53.5026 142.669 53.2963L142.568 53.3827L142.658 53.4811C142.849 53.3062 143.116 53.0286 143.463 52.6411L143.363 52.5521L143.264 52.6406C143.345 52.7311 143.595 52.9745 144.03 53.3942L144.123 53.2978L144.215 53.2021C143.783 52.7859 143.525 52.5343 143.463 52.4635L143.364 52.3515L143.264 52.463C142.921 52.8469 142.657 53.1207 142.478 53.2843L142.383 53.3713L142.467 53.4693C142.66 53.6953 142.936 53.951 143.299 54.2395L143.389 54.3119L143.473 54.2322C143.823 53.9026 144.076 53.6182 144.235 53.3697L144.293 53.2775L144.215 53.2021L144.123 53.2978ZM142.262 53.4739L142.149 53.4026C142.008 53.6239 141.773 53.8994 141.44 54.2202L141.533 54.3161L141.616 54.2125C141.25 53.9187 140.983 53.6707 140.814 53.4765L140.714 53.5639L140.805 53.6609C141.025 53.4551 141.293 53.1765 141.608 52.8197L141.508 52.7317L141.411 52.8234C141.489 52.9051 141.738 53.1505 142.169 53.5697L142.262 53.4739L142.355 53.3786C141.926 52.9609 141.673 52.7119 141.605 52.6401L141.504 52.5343L141.408 52.6437C141.098 52.9953 140.835 53.2687 140.623 53.4661L140.529 53.5541L140.613 53.651C140.799 53.8655 141.076 54.1202 141.449 54.4202L141.541 54.4937L141.625 54.4125C141.967 54.0822 142.216 53.7953 142.375 53.5453L142.432 53.4541L142.355 53.3786L142.262 53.4739ZM143.363 49.1067L143.323 49.2338L143.624 49.3302L143.664 49.203L143.541 49.1521C143.393 49.5087 143.264 49.8051 143.152 50.0453L143.018 50.3218L142.979 50.3969L142.967 50.4155L142.977 50.4218L142.969 50.4145L142.967 50.4155L142.977 50.4218L142.969 50.4145L142.863 50.5311L142.996 50.6161C143.281 50.7983 143.55 50.927 143.806 51.0005C144.058 51.0718 144.33 51.1073 144.622 51.1073V50.9739L144.528 51.0687L144.591 51.1311V51.7562L144.527 51.8197L144.622 51.9139V51.7806C143.891 51.7797 143.278 51.553 142.759 51.0969L142.651 51.0015L142.365 51.3806L142.472 51.4609L142.372 51.3723C142.358 51.4073 142.053 51.5311 141.552 51.6259C141.046 51.7297 140.553 51.7806 140.069 51.7806V51.9139L140.163 51.8197L140.1 51.7562V51.1311L140.163 51.0687L140.069 50.9739V51.1073C140.584 51.1073 141.02 51.0849 141.384 51.0401C141.75 50.9931 142.016 50.9202 142.197 50.7937L142.198 50.7931C142.388 50.6505 142.593 50.3207 142.886 49.7645L142.767 49.703L142.884 49.7666L143.1 49.3697V49.3702C143.152 49.2827 143.213 49.2442 143.363 49.2401V49.1067V48.9734C143.152 48.9693 142.96 49.0635 142.866 49.2417L142.65 49.6395L142.65 49.6406L142.649 49.6417C142.371 50.1843 142.143 50.5109 142.042 50.5765L142.043 50.5759C141.93 50.6578 141.696 50.7333 141.351 50.775C141.003 50.8187 140.576 50.8406 140.069 50.8406H140.014L139.873 50.9806L139.833 51.0197V51.8109V51.8661L139.975 52.0083L140.014 52.0473H140.069C140.572 52.0473 141.084 51.9942 141.605 51.8869C142.127 51.7734 142.418 51.7021 142.571 51.5494L142.575 51.5453L142.777 51.277L142.671 51.1969L142.582 51.2963C143.147 51.7958 143.836 52.0483 144.622 52.0473H144.677L144.818 51.9051L144.857 51.8661V51.0754V51.0197L144.715 50.8791L144.676 50.8406H144.622C144.352 50.8406 144.104 50.8078 143.879 50.7442C143.656 50.6797 143.409 50.5635 143.14 50.3917L143.068 50.5035L143.167 50.5931L143.256 50.4426C143.291 50.3729 143.337 50.2786 143.393 50.1578C143.507 49.9135 143.639 49.6135 143.788 49.2541L143.843 49.1202L143.404 48.9797L143.384 48.9734H143.363V49.1067Z" fill="white"/>
<path d="M147.391 47.4818L147.281 47.4052C147.096 47.6719 146.836 47.9683 146.503 48.288L146.596 48.3844L146.678 48.2798C146.317 47.9938 146.027 47.7307 145.81 47.4932L145.711 47.5834L145.805 47.6776C146.227 47.2542 146.516 46.9531 146.674 46.7656L146.572 46.6798L146.473 46.7698C146.737 47.0584 147.014 47.3292 147.303 47.5818L147.391 47.4818L147.479 47.3812C147.197 47.135 146.927 46.8714 146.67 46.5896L146.568 46.4776L146.47 46.5938C146.323 46.7683 146.036 47.0688 145.617 47.4891L145.527 47.5792L145.613 47.6735C145.843 47.9255 146.144 48.1964 146.512 48.4886L146.604 48.561L146.688 48.4803C147.029 48.1516 147.301 47.8438 147.5 47.5584L147.568 47.4599L147.479 47.3812L147.391 47.4818ZM144.771 51.914L144.865 51.8198L144.801 51.7563V51.1312L144.865 51.0688L144.771 50.974V51.1074C145.08 51.1074 145.35 51.0782 145.583 51.0156C145.813 50.9531 146.002 50.8626 146.144 50.7318L146.143 50.7323C146.296 50.5896 146.48 50.2807 146.75 49.7646L146.632 49.7031L146.749 49.7672L146.966 49.3698V49.3694C147.017 49.2828 147.077 49.2443 147.228 49.2402V49.1068L147.188 49.2339L147.488 49.3303L147.529 49.2031L147.405 49.1531C147.231 49.5828 147.034 50.0156 146.814 50.45L146.757 50.5604L146.864 50.6246C147.155 50.8006 147.423 50.9266 147.669 51C147.914 51.0724 148.185 51.1074 148.48 51.1074V50.974L148.387 51.0688L148.45 51.1312V51.7563L148.386 51.8198L148.48 51.914V51.7807C147.746 51.7798 147.136 51.5511 146.625 51.0912L146.517 50.9938L146.225 51.3807L146.331 51.461L146.227 51.3776C146.181 51.4412 146 51.5464 145.701 51.6386C145.404 51.7334 145.096 51.7807 144.771 51.7807V51.914V52.0474C145.122 52.0474 145.459 51.9959 145.781 51.8927C146.1 51.7896 146.312 51.6918 146.435 51.5443L146.436 51.5432L146.642 51.2703L146.535 51.1902L146.446 51.2891C147.003 51.7927 147.69 52.0484 148.48 52.0474H148.536L148.678 51.9052L148.717 51.8662V51.0755V51.0198L148.574 50.8792L148.536 50.8407H148.48C148.206 50.8407 147.961 50.8079 147.745 50.7443C147.528 50.6803 147.28 50.564 147.001 50.3964L146.933 50.5104L147.051 50.5708C147.274 50.1303 147.475 49.6907 147.652 49.2531L147.707 49.1198L147.269 48.9798L147.249 48.9735H147.228C147.017 48.9694 146.824 49.0636 146.732 49.2427L146.733 49.2422L146.515 49.6391L146.514 49.6402L146.513 49.6418C146.254 50.1464 146.054 50.4574 145.964 50.536L145.962 50.5375L145.963 50.536C145.865 50.6271 145.716 50.7031 145.513 50.7579C145.312 50.8126 145.063 50.8407 144.771 50.8407H144.716L144.575 50.9807L144.535 51.0198V51.811V51.8662L144.677 52.0084L144.716 52.0474H144.771V51.914Z" fill="white"/>
<path d="M148.541 51.914L148.635 51.8198L148.571 51.7563V51.1312L148.634 51.0688L148.541 50.974V51.1074C149.112 51.1074 149.615 51.0787 150.053 51.0188C150.487 50.9594 150.87 50.8828 151.202 50.7902L151.203 50.7896C151.537 50.6932 151.883 50.5542 152.24 50.3698L152.341 50.3178L152.306 50.2099C152.148 49.7287 151.852 49.2803 151.421 48.8698C150.99 48.4568 150.402 48.0719 149.659 47.711L149.623 47.6932L149.275 47.7402L149.294 47.8724V47.7391C149.108 47.7375 148.972 47.6792 148.851 47.5547L148.852 47.5558C148.734 47.4292 148.675 47.2776 148.674 47.0714C148.674 46.9115 148.713 46.6855 148.797 46.4027C148.84 46.2594 148.878 46.15 148.907 46.0787L148.944 46.0027L148.95 45.9927L148.899 45.949L148.931 46.0074L148.95 45.9927L148.899 45.949L148.931 46.0074L148.867 45.8907L148.928 46.0094C150.023 45.4443 150.861 45.0287 151.441 44.7631C152.024 44.4974 152.643 44.2323 153.301 43.9678L153.251 43.8438L153.163 43.9443C153.253 44.024 153.302 44.135 153.303 44.314H153.436L153.304 44.3074L153.298 44.4156L153.431 44.4219L153.299 44.4031C153.263 44.6418 153.136 44.7964 152.863 44.9131L152.862 44.9136C151.179 45.6156 149.87 46.1823 148.937 46.6136L148.59 46.7735L148.961 46.864C149.574 47.0131 150.159 47.2584 150.72 47.6011C151.282 47.9432 151.727 48.326 152.056 48.7464C152.386 49.1688 152.54 49.549 152.539 49.8907C152.535 50.4984 152.239 50.9407 151.585 51.2766C150.933 51.6068 149.915 51.7812 148.541 51.7807V51.914V52.0474C149.937 52.047 150.987 51.8751 151.705 51.5151C152.421 51.1584 152.81 50.5979 152.806 49.8907C152.805 49.4667 152.618 49.0318 152.266 48.5818C151.913 48.1318 151.443 47.7287 150.859 47.373C150.277 47.0178 149.664 46.7604 149.024 46.6047L148.993 46.7344L149.048 46.8552C149.977 46.4271 151.283 45.861 152.965 45.1594L152.964 45.1599C153.299 45.0266 153.52 44.7724 153.563 44.4407L153.565 44.4344L153.57 44.3203V44.3172V44.314C153.571 44.0839 153.496 43.8798 153.339 43.7432L153.277 43.6896L153.201 43.7203C152.54 43.9864 151.917 44.2527 151.331 44.5208C150.744 44.7891 149.903 45.2068 148.805 45.7719L148.803 45.7735L148.802 45.7746L148.661 45.9766C148.625 46.0626 148.586 46.1782 148.542 46.3266H148.542C148.454 46.6246 148.408 46.8698 148.407 47.0714C148.406 47.3312 148.491 47.5631 148.657 47.7386L148.658 47.7396C148.823 47.9146 149.046 48.0074 149.294 48.0058H149.303L149.619 47.9631L149.601 47.8307L149.543 47.9506C150.268 48.3031 150.834 48.676 151.236 49.0626C151.642 49.449 151.91 49.8599 152.052 50.2927L152.179 50.2516L152.118 50.1328C151.774 50.3104 151.445 50.4422 151.129 50.5334L151.13 50.5328C150.813 50.6219 150.441 50.697 150.016 50.7547C149.595 50.812 149.103 50.8407 148.541 50.8407H148.486L148.344 50.9807L148.305 51.0198V51.811V51.8662L148.446 52.0084L148.485 52.0474H148.541V51.914Z" fill="white"/>
<path d="M163.024 47.138L162.911 47.0678C162.768 47.2964 162.528 47.5714 162.192 47.8844L162.283 47.9818L162.367 47.8776C162.021 47.6027 161.757 47.3547 161.573 47.1355L161.471 47.2214L161.56 47.3208C161.659 47.2307 161.919 46.9574 162.363 46.4812L162.265 46.3907L162.167 46.4812C162.269 46.5912 162.521 46.8402 162.932 47.2344L163.024 47.138L163.116 47.0418C162.708 46.6495 162.453 46.3984 162.363 46.3L162.265 46.1948L162.168 46.2995C161.728 46.7719 161.46 47.0531 161.381 47.1219L161.285 47.2084L161.368 47.3074C161.569 47.5464 161.847 47.8036 162.2 48.086L162.289 48.1579L162.375 48.0792C162.72 47.7568 162.975 47.4694 163.137 47.2084L163.195 47.1167L163.116 47.0418L163.024 47.138ZM161.164 47.3126L161.051 47.2418C160.912 47.4636 160.675 47.7396 160.341 48.0604L160.435 48.1563L160.519 48.0527C160.153 47.7574 159.884 47.5094 159.716 47.3162L159.615 47.4036L159.705 47.5016C159.928 47.2948 160.195 47.0151 160.511 46.6604L160.411 46.5714L160.315 46.664C160.415 46.7678 160.664 47.0146 161.071 47.4084L161.164 47.3126L161.256 47.2167C160.851 46.824 160.6 46.5766 160.507 46.4792L160.407 46.3751L160.311 46.4828C159.999 46.8339 159.737 47.1088 159.524 47.3058L159.429 47.3938L159.515 47.4912C159.7 47.7042 159.979 47.9588 160.351 48.2599L160.441 48.3339L160.527 48.2522C160.868 47.9219 161.119 47.6355 161.276 47.3834L161.333 47.2918L161.256 47.2167L161.164 47.3126ZM166.577 51.914V51.7807C165.776 51.7792 165.117 51.5047 164.564 50.947L164.495 50.8755L164.407 50.923C163.92 51.185 163.315 51.3938 162.595 51.5479C161.877 51.7031 161.096 51.7807 160.248 51.7807C159.296 51.7812 158.579 51.6079 158.091 51.2787C157.608 50.9516 157.373 50.4823 157.369 49.8126C157.369 49.312 157.425 48.8724 157.533 48.4938L157.405 48.4574V48.5907H157.844V48.4574L157.715 48.426C157.703 48.4803 157.695 48.5599 157.685 48.7011V48.6995C157.675 48.8386 157.669 48.9604 157.669 49.0651C157.669 49.5594 157.763 49.9552 157.964 50.2484V50.2495C158.165 50.5386 158.48 50.7527 158.895 50.8959C159.312 51.0396 159.847 51.1074 160.507 51.1074C161.207 51.1074 161.949 51.0307 162.731 50.8755C163.513 50.7194 164.007 50.5771 164.257 50.4027L164.265 50.3979L164.509 50.1708L164.517 50.1636L164.524 50.1552C164.588 50.073 164.657 49.9626 164.736 49.8235L164.737 49.823L164.912 49.5016L164.795 49.4375L164.909 49.5052C164.963 49.4224 165.029 49.3818 165.18 49.3782V49.2448L165.141 49.3719L165.435 49.4636L165.475 49.336L165.351 49.2855C165.128 49.8323 164.957 50.2074 164.848 50.3948L164.784 50.5036L164.889 50.5735C165.171 50.7594 165.441 50.8954 165.701 50.9807V50.9812H165.703C165.964 51.0656 166.256 51.1074 166.577 51.1074V50.974L166.483 51.0683L166.545 51.1307V51.7568L166.483 51.8203L166.577 51.914L166.672 52.0079L166.773 51.9047L166.812 51.8656V51.0755V51.0203L166.672 50.8798L166.632 50.8407H166.577C166.279 50.8407 166.016 50.8016 165.784 50.7271V50.7276C165.552 50.6516 165.301 50.5266 165.036 50.3511L164.963 50.4626L165.077 50.5298C165.203 50.3162 165.373 49.9386 165.599 49.3864L165.653 49.2516L165.22 49.1178L165.2 49.1115H165.18C164.969 49.1079 164.779 49.1974 164.68 49.3698L164.679 49.3719L164.503 49.6938L164.62 49.7579L164.504 49.6922C164.429 49.8246 164.364 49.9271 164.313 49.9907L164.419 50.073L164.328 49.9751L164.089 50.1964L164.18 50.2943L164.103 50.186C163.937 50.3084 163.447 50.4656 162.679 50.614C161.912 50.7662 161.188 50.8407 160.507 50.8407C159.865 50.8407 159.356 50.7735 158.981 50.6432C158.604 50.5131 158.344 50.3287 158.183 50.097L158.184 50.0979C158.025 49.8678 157.936 49.5266 157.936 49.0651C157.936 48.9694 157.941 48.8542 157.951 48.7198L157.952 48.7188C157.96 48.586 157.971 48.499 157.975 48.488L158.013 48.324H157.405H157.305L157.277 48.4203C157.161 48.8282 157.103 49.2922 157.103 49.8126C157.1 50.5464 157.385 51.1292 157.941 51.5C158.496 51.8714 159.265 52.047 160.248 52.0474C161.112 52.0474 161.913 51.9688 162.651 51.8088C163.389 51.6506 164.017 51.435 164.532 51.1579L164.469 51.0407L164.375 51.1339C164.971 51.7402 165.715 52.049 166.577 52.0474H166.633L166.672 52.0079L166.577 51.914Z" fill="white"/>
<path d="M169.838 44.566C169.646 44.8436 169.381 45.1441 169.044 45.4696C168.678 45.1805 168.384 44.9138 168.158 44.6692C168.58 44.2472 168.868 43.9452 169.02 43.7654C169.28 44.0509 169.554 44.3176 169.838 44.566ZM168.784 47.2394C168.536 47.2394 168.329 47.354 168.162 47.5805C167.996 47.8072 167.912 48.0608 167.912 48.342C167.912 48.5988 167.996 48.7873 168.162 48.9086C168.329 49.0285 168.594 49.0884 168.958 49.0884C169.361 49.0884 169.794 48.9842 170.261 48.7758C170.1 48.2785 169.893 47.8982 169.642 47.6353C169.392 47.3722 169.106 47.2394 168.784 47.2394ZM170.585 50.3108C170.545 49.9738 170.489 49.6509 170.417 49.341C170.168 49.5545 169.889 49.7212 169.582 49.841C169.276 49.9624 168.969 50.0217 168.665 50.0217C168.302 50.0217 168.008 49.8853 167.781 49.6134C167.554 49.34 167.442 48.9972 167.442 48.5832C167.442 47.9529 167.593 47.3972 167.896 46.9149C168.2 46.4332 168.557 46.1925 168.972 46.1925C169.397 46.1925 169.774 46.3452 170.104 46.6493C170.433 46.9556 170.693 47.3878 170.886 47.9504C171.078 48.5129 171.174 49.1196 171.174 49.7696C171.174 50.0509 171.032 50.4686 170.742 51.0217C170.244 51.3305 169.686 51.5572 169.068 51.6988C168.449 51.842 167.638 51.9138 166.634 51.9138L166.52 51.7993V51.0884L166.634 50.9738C167.522 50.9738 168.273 50.9201 168.888 50.8149C169.501 50.7082 170.068 50.5405 170.585 50.3108Z" fill="white"/>
<path d="M174.49 51.0755H174.357V51.7563L174.293 51.8198L174.388 51.914V51.7807C173.918 51.7807 173.541 51.688 173.248 51.5131C172.957 51.337 172.81 51.1183 172.773 50.8251V50.8246C172.641 49.7776 172.501 48.1547 172.352 45.9599L172.232 44.3156L172.1 44.3255L172.194 44.4188C172.414 44.1932 172.686 43.9703 173.006 43.749L172.93 43.6396L172.797 43.6454C172.853 44.8954 172.897 46.6667 172.929 48.9579V48.9599L172.972 50.6584L172.973 50.735L173.04 50.7719C173.445 50.9954 173.897 51.1074 174.388 51.1074V50.974L174.293 51.0688L174.396 51.1703L174.49 51.0755L174.584 50.9807L174.481 50.8792L174.442 50.8407H174.388C173.937 50.8407 173.534 50.7391 173.169 50.538L173.105 50.6547L173.238 50.6516L173.196 48.9527L173.062 48.9558L173.196 48.9536C173.164 46.6615 173.12 44.8886 173.064 43.6334L173.053 43.3922L172.854 43.5298C172.524 43.7588 172.24 43.9918 172.004 44.2323L171.962 44.2755L172.086 45.9787V45.9776C172.234 48.1755 172.376 49.8006 172.509 50.8579V50.8574C172.552 51.2307 172.765 51.538 173.112 51.7422C173.457 51.9474 173.884 52.0474 174.388 52.0474H174.442L174.584 51.9052L174.624 51.8662V51.0755V51.0198L174.584 50.9807L174.49 51.0755Z" fill="white"/>
<path d="M178.34 53.2978L178.228 53.2265C178.089 53.4442 177.849 53.7177 177.509 54.0385L177.601 54.1354L177.684 54.0311C177.33 53.7494 177.065 53.5026 176.888 53.2963L176.786 53.3827L176.877 53.4811C177.068 53.3062 177.333 53.0281 177.681 52.6411L177.582 52.5521L177.482 52.6406C177.564 52.7311 177.813 52.9745 178.248 53.3942L178.34 53.2978L178.433 53.2021C178.001 52.7859 177.745 52.5343 177.682 52.4635L177.582 52.3521L177.484 52.463C177.138 52.8469 176.876 53.1207 176.697 53.2843L176.601 53.3713L176.685 53.4693C176.878 53.6953 177.156 53.951 177.517 54.2395L177.608 54.3119L177.692 54.2322C178.042 53.9021 178.294 53.6182 178.453 53.3697L178.512 53.2775L178.433 53.2021L178.34 53.2978ZM176.48 53.4739L176.366 53.403C176.228 53.6239 175.992 53.8994 175.658 54.2202L175.752 54.3161L175.836 54.2125C175.469 53.9187 175.2 53.6707 175.034 53.477L174.933 53.5639L175.024 53.6609C175.244 53.4551 175.512 53.1765 175.826 52.8197L175.726 52.7317L175.63 52.8234C175.708 52.9046 175.956 53.1505 176.386 53.5697L176.48 53.4739L176.573 53.3786C176.144 52.9614 175.892 52.7125 175.824 52.6401L175.724 52.5343L175.626 52.6437C175.317 52.9953 175.053 53.2687 174.841 53.4661L174.748 53.5535L174.832 53.651C175.017 53.8655 175.294 54.1202 175.668 54.4202L175.76 54.4937L175.844 54.4125C176.186 54.0822 176.434 53.7953 176.592 53.5453L176.65 53.4535L176.573 53.3786L176.48 53.4739ZM174.444 51.9139L174.538 51.8197L174.474 51.7562V51.1311L174.538 51.0687L174.444 50.9739V51.1073C175.057 51.1073 175.646 51.065 176.21 50.9822C176.776 50.8983 177.209 50.7885 177.518 50.6426L177.618 50.5958L177.59 50.489C177.504 50.1515 177.354 49.6983 177.141 49.1202C176.985 48.7041 176.91 48.4197 176.913 48.3421C176.913 48.1989 176.972 48.0431 177.105 47.8707H177.106C177.24 47.6969 177.42 47.5469 177.653 47.4171L177.588 47.301L177.456 47.3207C177.493 47.565 177.538 47.8062 177.593 48.0463V48.0469C177.648 48.2827 177.698 48.515 177.746 48.7437C177.794 48.9707 177.836 49.189 177.869 49.3983C177.901 49.6062 177.918 49.7994 177.918 49.9806C177.92 50.2229 177.788 50.6306 177.505 51.1718L177.624 51.2327L177.554 51.1193C177.237 51.3119 176.784 51.4734 176.197 51.5963C175.609 51.7193 175.025 51.7806 174.444 51.7806V51.9139V52.0473C175.044 52.0473 175.646 51.9838 176.252 51.8573C176.857 51.7297 177.336 51.563 177.693 51.3469L177.725 51.3275L177.742 51.2942C178.03 50.7343 178.182 50.3083 178.185 49.9806C178.185 49.7838 178.166 49.5759 178.132 49.3567C178.098 49.1417 178.056 48.9197 178.008 48.6885C177.958 48.4587 177.908 48.225 177.853 47.9869V47.9874C177.8 47.7535 177.756 47.5182 177.72 47.2806L177.69 47.0906L177.522 47.1843C177.265 47.3281 177.054 47.501 176.894 47.7073H176.896C176.737 47.9098 176.646 48.1239 176.646 48.3421C176.65 48.5125 176.734 48.7802 176.89 49.2125C177.102 49.7859 177.249 50.2338 177.332 50.5551L177.461 50.5218L177.404 50.4015C177.136 50.5291 176.722 50.6374 176.172 50.7182C175.621 50.7994 175.045 50.8406 174.444 50.8406H174.389L174.248 50.9806L174.208 51.0197V51.8109V51.8661L174.35 52.0083L174.389 52.0473H174.444V51.9139Z" fill="white"/>
<path d="M179.876 54.4307C179.679 54.4307 179.409 54.3531 179.068 54.1989C178.727 54.0443 178.457 53.8907 178.261 53.738L178.431 53.3281C178.88 53.4203 179.268 53.4677 179.592 53.4677C180.211 53.4677 180.739 53.2839 181.176 52.9167C181.613 52.5495 181.948 52.0131 182.181 51.3109C182.073 51.0469 181.948 50.7864 181.808 50.5339C181.519 50.0364 181.309 49.6355 181.179 49.3333C181.049 49.0303 180.984 48.776 180.984 48.5703C180.984 48.362 181.047 48.1953 181.172 48.0677C181.3 47.9417 181.475 47.8229 181.7 47.7093C181.76 47.9349 181.843 48.1849 181.947 48.4593C182.052 48.7344 182.156 49.0156 182.26 49.3021C182.364 49.5901 182.455 49.8724 182.531 50.1527C182.608 50.4307 182.645 50.6875 182.645 50.9193C182.645 51.5573 182.524 52.1511 182.28 52.6989C182.039 53.2473 181.705 53.6735 181.281 53.9765C180.857 54.2787 180.388 54.4307 179.876 54.4307Z" fill="white"/>
<path d="M184.711 51.914V51.7807C184.221 51.7812 183.861 51.711 183.645 51.5912L183.644 51.5907V51.5912C183.424 51.4672 183.343 51.3328 183.339 51.1303C183.339 50.8891 183.401 50.7084 183.523 50.5678L183.421 50.4807L183.337 50.5839C183.556 50.7626 183.805 50.8964 184.084 50.9818C184.365 51.0662 184.704 51.1074 185.103 51.1074C185.661 51.1074 186.233 51.0203 186.813 50.849L186.948 50.8094L186.901 50.6776C186.771 50.3036 186.597 49.9194 186.38 49.5246L185.96 48.7536V48.7527L185.959 48.7511C185.836 48.5396 185.752 48.3636 185.707 48.2276L185.58 48.2708L185.707 48.2292C185.661 48.0912 185.637 47.9563 185.637 47.8178C185.645 47.4694 185.8 47.2667 186.197 47.1266L186.156 47L186.031 47.0464C186.156 47.385 186.289 47.7088 186.432 48.0156C186.572 48.3188 186.703 48.6027 186.823 48.8678C186.941 49.1287 187.04 49.373 187.12 49.597V49.5964C187.196 49.8151 187.233 50.0084 187.233 50.1798C187.235 50.2714 187.199 50.4391 187.125 50.6584V50.6579C187.052 50.876 186.948 51.114 186.815 51.3708L186.933 51.4323L186.871 51.3146C186.295 51.6219 185.577 51.7807 184.711 51.7807V51.914V52.0474C185.609 52.0474 186.372 51.8828 186.996 51.55L187.032 51.5303L187.052 51.4938C187.189 51.2271 187.299 50.9782 187.379 50.7432V50.7427C187.456 50.5088 187.499 50.3276 187.5 50.1798C187.5 49.9703 187.456 49.7474 187.371 49.5079C187.289 49.2755 187.187 49.0251 187.067 48.7574H187.065C186.945 48.4912 186.815 48.2074 186.673 47.9036C186.535 47.6036 186.404 47.287 186.28 46.9536L186.236 46.8328L186.113 46.8735C185.644 47.0198 185.364 47.364 185.371 47.8178C185.371 47.9864 185.4 48.1511 185.453 48.3126V48.314C185.509 48.4751 185.6 48.6636 185.728 48.8844L185.843 48.8178L185.727 48.8818L186.147 49.6527C186.357 50.0364 186.524 50.4074 186.649 50.7651L186.776 50.7214L186.737 50.5932C186.18 50.7584 185.633 50.8407 185.103 50.8407C184.723 50.8407 184.407 50.8011 184.161 50.7266C183.915 50.6506 183.699 50.5344 183.505 50.3771L183.405 50.2954L183.32 50.3932C183.152 50.5886 183.071 50.8427 183.072 51.1303C183.068 51.4276 183.236 51.6787 183.519 51.8255H183.517C183.801 51.9792 184.197 52.047 184.711 52.0474V51.914Z" fill="white"/>
<rect x="0.5" y="0.5" width="219" height="64" rx="3.5" stroke="white"/>
</svg>
